%TF.GenerationSoftware,KiCad,Pcbnew,5.1.9+dfsg1-1*%
%TF.CreationDate,2021-05-17T19:44:08-07:00*%
%TF.ProjectId,Flight_Comp,466c6967-6874-45f4-936f-6d702e6b6963,rev?*%
%TF.SameCoordinates,Original*%
%TF.FileFunction,Paste,Top*%
%TF.FilePolarity,Positive*%
%FSLAX46Y46*%
G04 Gerber Fmt 4.6, Leading zero omitted, Abs format (unit mm)*
G04 Created by KiCad (PCBNEW 5.1.9+dfsg1-1) date 2021-05-17 19:44:08*
%MOMM*%
%LPD*%
G01*
G04 APERTURE LIST*
%ADD10C,0.100000*%
G04 APERTURE END LIST*
D10*
%TO.C,Reset1*%
G36*
X116868345Y-124610639D02*
G01*
X116858966Y-124607794D01*
X116850321Y-124603173D01*
X116842745Y-124596955D01*
X116836527Y-124589379D01*
X116831906Y-124580734D01*
X116829061Y-124571355D01*
X116828100Y-124561600D01*
X116828100Y-123037600D01*
X116829061Y-123027845D01*
X116831906Y-123018466D01*
X116836527Y-123009821D01*
X116842745Y-123002245D01*
X116850321Y-122996027D01*
X116858966Y-122991406D01*
X116868345Y-122988561D01*
X116878100Y-122987600D01*
X118148100Y-122987600D01*
X118157855Y-122988561D01*
X118167234Y-122991406D01*
X118175879Y-122996027D01*
X118183455Y-123002245D01*
X118189673Y-123009821D01*
X118194294Y-123018466D01*
X118197139Y-123027845D01*
X118198100Y-123037600D01*
X118198100Y-124561600D01*
X118197139Y-124571355D01*
X118194294Y-124580734D01*
X118189673Y-124589379D01*
X118183455Y-124596955D01*
X118175879Y-124603173D01*
X118167234Y-124607794D01*
X118157855Y-124610639D01*
X118148100Y-124611600D01*
X116878100Y-124611600D01*
X116868345Y-124610639D01*
G37*
G36*
X115090345Y-124610639D02*
G01*
X115080966Y-124607794D01*
X115072321Y-124603173D01*
X115064745Y-124596955D01*
X115058527Y-124589379D01*
X115053906Y-124580734D01*
X115051061Y-124571355D01*
X115050100Y-124561600D01*
X115050100Y-123037600D01*
X115051061Y-123027845D01*
X115053906Y-123018466D01*
X115058527Y-123009821D01*
X115064745Y-123002245D01*
X115072321Y-122996027D01*
X115080966Y-122991406D01*
X115090345Y-122988561D01*
X115100100Y-122987600D01*
X116370100Y-122987600D01*
X116379855Y-122988561D01*
X116389234Y-122991406D01*
X116397879Y-122996027D01*
X116405455Y-123002245D01*
X116411673Y-123009821D01*
X116416294Y-123018466D01*
X116419139Y-123027845D01*
X116420100Y-123037600D01*
X116420100Y-124561600D01*
X116419139Y-124571355D01*
X116416294Y-124580734D01*
X116411673Y-124589379D01*
X116405455Y-124596955D01*
X116397879Y-124603173D01*
X116389234Y-124607794D01*
X116379855Y-124610639D01*
X116370100Y-124611600D01*
X115100100Y-124611600D01*
X115090345Y-124610639D01*
G37*
%TD*%
M02*
