M48
; DRILL file {KiCad 5.1.9+dfsg1-1} date Mon May 17 19:43:53 2021
; FORMAT={-:-/ absolute / inch / decimal}
; #@! TF.CreationDate,2021-05-17T19:43:53-07:00
; #@! TF.GenerationSoftware,Kicad,Pcbnew,5.1.9+dfsg1-1
; #@! TF.FileFunction,Plated,1,2,PTH
FMAT,2
INCH
T1C0.0315
T2C0.0394
T3C0.0400
T4C0.0984
T5C0.1457
%
G90
G05
T1
X5.7415Y-3.3695
X6.0415Y-3.3695
T2
X4.504Y-3.869
X4.5045Y-4.1375
X4.604Y-3.869
X4.6045Y-4.1375
X4.704Y-3.269
X4.704Y-3.869
X4.7045Y-4.1375
X4.804Y-3.269
X4.804Y-3.869
X4.8045Y-4.1375
X4.904Y-3.269
X4.904Y-3.869
X4.9045Y-4.1375
X5.004Y-3.269
X5.004Y-3.869
X5.0045Y-4.1375
X5.104Y-3.269
X5.104Y-3.869
X5.1045Y-4.1375
X5.204Y-3.869
X5.2045Y-4.1375
X5.304Y-3.869
X5.3995Y-4.591
X5.4995Y-4.591
X5.5995Y-4.591
X5.6995Y-4.591
X5.7915Y-3.5695
X5.8915Y-3.5695
X5.9698Y-3.9495
X5.9698Y-4.0495
X5.9698Y-4.1495
X5.9698Y-4.2495
X5.9698Y-4.3495
X5.9698Y-4.4495
X5.9698Y-4.5495
X5.9698Y-4.6495
X5.9698Y-4.7495
X5.9915Y-3.5695
X6.3387Y-3.161
X6.3387Y-3.261
X6.3387Y-3.361
X6.3387Y-3.461
X6.3387Y-3.561
X6.3387Y-3.661
X6.3387Y-3.761
X7.75Y-3.439
X7.75Y-3.539
X7.75Y-3.639
X7.75Y-3.739
T3
X4.4795Y-3.0445
X4.5795Y-3.0445
X4.6795Y-3.0445
X4.7795Y-3.0445
X4.8395Y-4.9445
X4.8795Y-3.0445
X4.9395Y-4.9445
X4.9795Y-3.0445
X5.0395Y-4.9445
X5.0795Y-3.0445
X5.1395Y-4.9445
X5.1795Y-3.0445
X5.2395Y-4.9445
X5.2795Y-3.0445
X5.3395Y-4.9445
X5.3795Y-3.0445
X5.4395Y-4.9445
X5.5395Y-3.0445
X5.5395Y-4.9445
X5.6395Y-3.0445
X5.7395Y-3.0445
X5.7395Y-4.9445
X5.8395Y-3.0445
X5.8395Y-4.9445
X5.9395Y-3.0445
X5.9395Y-4.9445
X6.0395Y-3.0445
X6.0395Y-4.9445
X6.1395Y-3.0445
X6.1395Y-4.9445
X6.2395Y-3.0445
X6.2395Y-4.9445
X6.3395Y-4.9445
X6.4395Y-3.0445
X6.4395Y-4.9445
X6.5395Y-3.0445
X6.6395Y-3.0445
X6.6395Y-4.9445
X6.7395Y-3.0445
X6.7395Y-4.9445
X6.8395Y-3.0445
X6.8395Y-4.9445
X6.9395Y-3.0445
X6.9395Y-4.9445
X7.0395Y-3.0445
X7.0395Y-4.9445
X7.1395Y-3.0445
X7.1395Y-4.9445
X7.2395Y-4.9445
X7.3395Y-4.9445
X7.4395Y-3.0445
X7.4395Y-3.1445
X7.4395Y-3.2445
X7.4395Y-3.3445
X7.4395Y-3.4445
X7.4395Y-3.5445
X7.4395Y-3.6445
X7.4395Y-3.7445
X7.4395Y-3.8445
X7.4395Y-3.9445
X7.4395Y-4.0445
X7.4395Y-4.1445
X7.4395Y-4.2445
X7.4395Y-4.3445
X7.4395Y-4.4445
X7.4395Y-4.5445
X7.4395Y-4.6445
X7.4395Y-4.7445
X7.5395Y-3.0445
X7.5395Y-3.1445
X7.5395Y-3.2445
X7.5395Y-3.3445
X7.5395Y-3.4445
X7.5395Y-3.5445
X7.5395Y-3.6445
X7.5395Y-3.7445
X7.5395Y-3.8445
X7.5395Y-3.9445
X7.5395Y-4.0445
X7.5395Y-4.1445
X7.5395Y-4.2445
X7.5395Y-4.3445
X7.5395Y-4.4445
X7.5395Y-4.5445
X7.5395Y-4.6445
X7.5395Y-4.7445
T4
X4.354Y-3.269
X4.354Y-3.869
X4.5545Y-4.6375
X5.1545Y-4.6375
X5.454Y-3.269
X5.454Y-3.869
X7.1397Y-4.7495
X7.1398Y-3.9495
T5
X8.165Y-3.496
X8.165Y-4.481
T0
M30
