%TF.GenerationSoftware,KiCad,Pcbnew,5.1.9+dfsg1-1*%
%TF.CreationDate,2021-05-17T19:44:08-07:00*%
%TF.ProjectId,Flight_Comp,466c6967-6874-45f4-936f-6d702e6b6963,rev?*%
%TF.SameCoordinates,Original*%
%TF.FileFunction,Copper,L2,Bot*%
%TF.FilePolarity,Positive*%
%FSLAX46Y46*%
G04 Gerber Fmt 4.6, Leading zero omitted, Abs format (unit mm)*
G04 Created by KiCad (PCBNEW 5.1.9+dfsg1-1) date 2021-05-17 19:44:08*
%MOMM*%
%LPD*%
G01*
G04 APERTURE LIST*
%TA.AperFunction,ComponentPad*%
%ADD10O,3.515868X3.515868*%
%TD*%
%TA.AperFunction,ComponentPad*%
%ADD11O,1.700000X1.700000*%
%TD*%
%TA.AperFunction,ComponentPad*%
%ADD12R,1.700000X1.700000*%
%TD*%
%TA.AperFunction,ComponentPad*%
%ADD13C,5.000000*%
%TD*%
%TA.AperFunction,ComponentPad*%
%ADD14O,1.727200X1.727200*%
%TD*%
%TA.AperFunction,ComponentPad*%
%ADD15C,1.600000*%
%TD*%
%TA.AperFunction,ComponentPad*%
%ADD16O,1.600000X1.600000*%
%TD*%
%TA.AperFunction,Conductor*%
%ADD17C,0.500000*%
%TD*%
%TA.AperFunction,Conductor*%
%ADD18C,0.300000*%
%TD*%
%TA.AperFunction,Conductor*%
%ADD19C,0.100000*%
%TD*%
G04 APERTURE END LIST*
D10*
%TO.P,J3,3*%
%TO.N,GND*%
X115684301Y-117792373D03*
X130924300Y-117792373D03*
D11*
%TO.P,J3,7*%
%TO.N,Net-(J3-Pad7)*%
X116954301Y-105092500D03*
%TO.P,J3,6*%
%TO.N,GND*%
X119494301Y-105092500D03*
%TO.P,J3,5*%
%TO.N,SCL_1*%
X122034300Y-105092500D03*
%TO.P,J3,8*%
%TO.N,Net-(J3-Pad8)*%
X114414300Y-105092500D03*
%TO.P,J3,2*%
%TO.N,Net-(J3-Pad2)*%
X129654300Y-105092499D03*
%TO.P,J3,3*%
%TO.N,GND*%
X127114300Y-105092499D03*
%TO.P,J3,1*%
%TO.N,+5V*%
X132194300Y-105092499D03*
%TO.P,J3,4*%
%TO.N,SDA_1*%
X124574301Y-105092499D03*
%TD*%
D12*
%TO.P,J2,1*%
%TO.N,+5V*%
X137147300Y-116611400D03*
D11*
%TO.P,J2,2*%
%TO.N,GND*%
X139687300Y-116611400D03*
%TO.P,J2,4*%
%TO.N,SDA_1*%
X144767299Y-116611400D03*
%TO.P,J2,3*%
%TO.N,SCL_1*%
X142227300Y-116611400D03*
%TD*%
D10*
%TO.P,J4,3*%
%TO.N,GND*%
X138531601Y-98272600D03*
X110591601Y-98272600D03*
X138531601Y-83032601D03*
X110591601Y-83032601D03*
D11*
%TO.P,J4,10*%
%TO.N,Net-(J4-Pad10)*%
X119481600Y-83032602D03*
%TO.P,J4,13*%
%TO.N,Net-(J4-Pad13)*%
X127101599Y-83032601D03*
%TO.P,J4,11*%
%TO.N,Net-(J4-Pad11)*%
X122021599Y-83032602D03*
%TO.P,J4,12*%
%TO.N,Net-(J4-Pad12)*%
X124561600Y-83032601D03*
%TO.P,J4,14*%
%TO.N,Net-(J4-Pad14)*%
X129641599Y-83032601D03*
%TO.P,J4,9*%
%TO.N,Net-(J4-Pad9)*%
X134721601Y-98272600D03*
%TO.P,J4,4*%
%TO.N,SCL_1*%
X122021599Y-98272601D03*
%TO.P,J4,1*%
%TO.N,+5V*%
X114401600Y-98272601D03*
%TO.P,J4,3*%
%TO.N,GND*%
X119481600Y-98272601D03*
%TO.P,J4,2*%
%TO.N,Net-(J4-Pad2)*%
X116941600Y-98272601D03*
%TO.P,J4,5*%
%TO.N,SDA_1*%
X124561600Y-98272600D03*
%TO.P,J4,6*%
%TO.N,Net-(J4-Pad6)*%
X127101599Y-98272600D03*
%TO.P,J4,8*%
%TO.N,Net-(J4-Pad8)*%
X132181600Y-98272600D03*
%TO.P,J4,7*%
%TO.N,Net-(J4-Pad7)*%
X129641599Y-98272600D03*
%TD*%
%TO.P,J1,3*%
%TO.N,RX1*%
X196850000Y-89890600D03*
%TO.P,J1,4*%
%TO.N,TX1*%
X196850000Y-87350600D03*
%TO.P,J1,2*%
%TO.N,GND*%
X196850000Y-92430600D03*
D12*
%TO.P,J1,1*%
%TO.N,+5V*%
X196850000Y-94970600D03*
D13*
%TO.P,J1,2*%
%TO.N,GND*%
X207391000Y-88798400D03*
X207391000Y-113817400D03*
%TD*%
D10*
%TO.P,J5,7*%
%TO.N,GND*%
X181348887Y-120637301D03*
X181351300Y-100317300D03*
D11*
X151633300Y-115557299D03*
%TO.P,J5,3*%
%TO.N,Net-(J5-Pad3)*%
X151633299Y-105397300D03*
%TO.P,J5,4*%
%TO.N,Net-(J5-Pad4)*%
X151633299Y-107937299D03*
%TO.P,J5,8*%
%TO.N,+5V*%
X151633300Y-118097300D03*
%TO.P,J5,2*%
%TO.N,Net-(J5-Pad2)*%
X151633299Y-102857300D03*
%TO.P,J5,1*%
%TO.N,Net-(J5-Pad1)*%
X151633299Y-100317300D03*
%TO.P,J5,6*%
%TO.N,TX2*%
X151633300Y-113017299D03*
%TO.P,J5,5*%
%TO.N,RX2*%
X151633300Y-110477300D03*
%TO.P,J5,9*%
%TO.N,Net-(J5-Pad9)*%
X151633300Y-120637301D03*
%TD*%
D14*
%TO.P,XA1,A0*%
%TO.N,Net-(XA1-PadA0)*%
X145783300Y-125590300D03*
%TO.P,XA1,VIN*%
%TO.N,VSS*%
X140703300Y-125590300D03*
%TO.P,XA1,GND3*%
%TO.N,GND*%
X138163300Y-125590300D03*
%TO.P,XA1,GND2*%
X135623300Y-125590300D03*
%TO.P,XA1,5V1*%
%TO.N,+5V*%
X133083300Y-125590300D03*
%TO.P,XA1,3V3*%
%TO.N,+3V3*%
X130543300Y-125590300D03*
%TO.P,XA1,RST1*%
%TO.N,Net-(Reset1-Pad1)*%
X128003300Y-125590300D03*
%TO.P,XA1,IORF*%
%TO.N,Net-(XA1-PadIORF)*%
X125463300Y-125590300D03*
%TO.P,XA1,D21*%
%TO.N,Net-(XA1-PadD21)*%
X181343300Y-77330300D03*
%TO.P,XA1,D20*%
%TO.N,Net-(XA1-PadD20)*%
X178803300Y-77330300D03*
%TO.P,XA1,D19*%
%TO.N,RX1*%
X176263300Y-77330300D03*
%TO.P,XA1,D18*%
%TO.N,TX1*%
X173723300Y-77330300D03*
%TO.P,XA1,D17*%
%TO.N,RX2*%
X171183300Y-77330300D03*
%TO.P,XA1,D16*%
%TO.N,TX2*%
X168643300Y-77330300D03*
%TO.P,XA1,D15*%
%TO.N,Net-(XA1-PadD15)*%
X166103300Y-77330300D03*
%TO.P,XA1,D14*%
%TO.N,Net-(XA1-PadD14)*%
X163563300Y-77330300D03*
%TO.P,XA1,D0*%
%TO.N,Net-(XA1-PadD0)*%
X158483300Y-77330300D03*
%TO.P,XA1,D1*%
%TO.N,Net-(XA1-PadD1)*%
X155943300Y-77330300D03*
%TO.P,XA1,D2*%
%TO.N,D2*%
X153403300Y-77330300D03*
%TO.P,XA1,D3*%
%TO.N,D3*%
X150863300Y-77330300D03*
%TO.P,XA1,D4*%
%TO.N,Net-(XA1-PadD4)*%
X148323300Y-77330300D03*
%TO.P,XA1,D5*%
%TO.N,Net-(XA1-PadD5)*%
X145783300Y-77330300D03*
%TO.P,XA1,D6*%
%TO.N,Net-(XA1-PadD6)*%
X143243300Y-77330300D03*
%TO.P,XA1,D7*%
%TO.N,Net-(XA1-PadD7)*%
X140703300Y-77330300D03*
%TO.P,XA1,GND1*%
%TO.N,GND*%
X121399300Y-77330300D03*
%TO.P,XA1,D8*%
%TO.N,Net-(XA1-PadD8)*%
X136639300Y-77330300D03*
%TO.P,XA1,D9*%
%TO.N,Net-(XA1-PadD9)*%
X134099300Y-77330300D03*
%TO.P,XA1,D10*%
%TO.N,Net-(XA1-PadD10)*%
X131559300Y-77330300D03*
%TO.P,XA1,SCL*%
%TO.N,SCL_1*%
X113779300Y-77330300D03*
%TO.P,XA1,SDA*%
%TO.N,SDA_1*%
X116319300Y-77330300D03*
%TO.P,XA1,AREF*%
%TO.N,Net-(XA1-PadAREF)*%
X118859300Y-77330300D03*
%TO.P,XA1,D13*%
%TO.N,Net-(XA1-PadD13)*%
X123939300Y-77330300D03*
%TO.P,XA1,D12*%
%TO.N,Net-(XA1-PadD12)*%
X126479300Y-77330300D03*
%TO.P,XA1,D11*%
%TO.N,Net-(XA1-PadD11)*%
X129019300Y-77330300D03*
%TO.P,XA1,*%
%TO.N,*%
X122923300Y-125590300D03*
%TO.P,XA1,A1*%
%TO.N,Net-(XA1-PadA1)*%
X148323300Y-125590300D03*
%TO.P,XA1,A2*%
%TO.N,Net-(XA1-PadA2)*%
X150863300Y-125590300D03*
%TO.P,XA1,A3*%
%TO.N,Net-(XA1-PadA3)*%
X153403300Y-125590300D03*
%TO.P,XA1,A4*%
%TO.N,Net-(XA1-PadA4)*%
X155943300Y-125590300D03*
%TO.P,XA1,A5*%
%TO.N,Net-(XA1-PadA5)*%
X158483300Y-125590300D03*
%TO.P,XA1,A6*%
%TO.N,Net-(XA1-PadA6)*%
X161023300Y-125590300D03*
%TO.P,XA1,A7*%
%TO.N,Net-(XA1-PadA7)*%
X163563300Y-125590300D03*
%TO.P,XA1,A8*%
%TO.N,Net-(XA1-PadA8)*%
X168643300Y-125590300D03*
%TO.P,XA1,A9*%
%TO.N,Net-(XA1-PadA9)*%
X171183300Y-125590300D03*
%TO.P,XA1,A10*%
%TO.N,Net-(XA1-PadA10)*%
X173723300Y-125590300D03*
%TO.P,XA1,A11*%
%TO.N,Net-(XA1-PadA11)*%
X176263300Y-125590300D03*
%TO.P,XA1,A12*%
%TO.N,Net-(XA1-PadA12)*%
X178803300Y-125590300D03*
%TO.P,XA1,A13*%
%TO.N,Net-(XA1-PadA13)*%
X181343300Y-125590300D03*
%TO.P,XA1,A14*%
%TO.N,Net-(XA1-PadA14)*%
X183883300Y-125590300D03*
%TO.P,XA1,A15*%
%TO.N,Net-(XA1-PadA15)*%
X186423300Y-125590300D03*
%TO.P,XA1,5V3*%
%TO.N,+5V*%
X188963300Y-77330300D03*
%TO.P,XA1,5V4*%
X191503300Y-77330300D03*
%TO.P,XA1,D22*%
%TO.N,Net-(XA1-PadD22)*%
X188963300Y-79870300D03*
%TO.P,XA1,D23*%
%TO.N,Net-(XA1-PadD23)*%
X191503300Y-79870300D03*
%TO.P,XA1,D24*%
%TO.N,Net-(XA1-PadD24)*%
X188963300Y-82410300D03*
%TO.P,XA1,D25*%
%TO.N,Net-(XA1-PadD25)*%
X191503300Y-82410300D03*
%TO.P,XA1,D26*%
%TO.N,Net-(XA1-PadD26)*%
X188963300Y-84950300D03*
%TO.P,XA1,D27*%
%TO.N,Net-(XA1-PadD27)*%
X191503300Y-84950300D03*
%TO.P,XA1,D28*%
%TO.N,Net-(XA1-PadD28)*%
X188963300Y-87490300D03*
%TO.P,XA1,D29*%
%TO.N,Net-(XA1-PadD29)*%
X191503300Y-87490300D03*
%TO.P,XA1,D30*%
%TO.N,Net-(XA1-PadD30)*%
X188963300Y-90030300D03*
%TO.P,XA1,D31*%
%TO.N,Net-(XA1-PadD31)*%
X191503300Y-90030300D03*
%TO.P,XA1,D32*%
%TO.N,Net-(XA1-PadD32)*%
X188963300Y-92570300D03*
%TO.P,XA1,D33*%
%TO.N,Net-(XA1-PadD33)*%
X191503300Y-92570300D03*
%TO.P,XA1,D34*%
%TO.N,Net-(XA1-PadD34)*%
X188963300Y-95110300D03*
%TO.P,XA1,D35*%
%TO.N,Net-(XA1-PadD35)*%
X191503300Y-95110300D03*
%TO.P,XA1,D36*%
%TO.N,Net-(XA1-PadD36)*%
X188963300Y-97650300D03*
%TO.P,XA1,D37*%
%TO.N,Net-(XA1-PadD37)*%
X191503300Y-97650300D03*
%TO.P,XA1,D38*%
%TO.N,Net-(XA1-PadD38)*%
X188963300Y-100190300D03*
%TO.P,XA1,D39*%
%TO.N,Net-(XA1-PadD39)*%
X191503300Y-100190300D03*
%TO.P,XA1,D40*%
%TO.N,Net-(XA1-PadD40)*%
X188963300Y-102730300D03*
%TO.P,XA1,D41*%
%TO.N,Net-(XA1-PadD41)*%
X191503300Y-102730300D03*
%TO.P,XA1,D42*%
%TO.N,Net-(XA1-PadD42)*%
X188963300Y-105270300D03*
%TO.P,XA1,D43*%
%TO.N,Net-(XA1-PadD43)*%
X191503300Y-105270300D03*
%TO.P,XA1,D44*%
%TO.N,Net-(XA1-PadD44)*%
X188963300Y-107810300D03*
%TO.P,XA1,D45*%
%TO.N,Net-(XA1-PadD45)*%
X191503300Y-107810300D03*
%TO.P,XA1,D46*%
%TO.N,Net-(XA1-PadD46)*%
X188963300Y-110350300D03*
%TO.P,XA1,D47*%
%TO.N,Net-(XA1-PadD47)*%
X191503300Y-110350300D03*
%TO.P,XA1,D48*%
%TO.N,Net-(XA1-PadD48)*%
X188963300Y-112890300D03*
%TO.P,XA1,D49*%
%TO.N,Net-(XA1-PadD49)*%
X191503300Y-112890300D03*
%TO.P,XA1,D50*%
%TO.N,DO*%
X188963300Y-115430300D03*
%TO.P,XA1,D51*%
%TO.N,DI*%
X191503300Y-115430300D03*
%TO.P,XA1,D52*%
%TO.N,CLK*%
X188963300Y-117970300D03*
%TO.P,XA1,D53*%
%TO.N,CS*%
X191503300Y-117970300D03*
%TO.P,XA1,GND5*%
%TO.N,GND*%
X188963300Y-120510300D03*
%TO.P,XA1,GND6*%
X191503300Y-120510300D03*
%TD*%
D11*
%TO.P,J6,1*%
%TO.N,+5V*%
X161003360Y-80289401D03*
%TO.P,J6,7*%
%TO.N,GND*%
X161003361Y-95529400D03*
%TO.P,J6,2*%
%TO.N,CS*%
X161003360Y-82829401D03*
%TO.P,J6,5*%
%TO.N,DO*%
X161003361Y-90449401D03*
%TO.P,J6,3*%
%TO.N,DI*%
X161003360Y-85369401D03*
%TO.P,J6,4*%
%TO.N,CLK*%
X161003360Y-87909400D03*
%TO.P,J6,6*%
%TO.N,Net-(J6-Pad6)*%
X161003361Y-92989400D03*
%TD*%
D15*
%TO.P,R1,1*%
%TO.N,+5V*%
X153454100Y-85585300D03*
D16*
%TO.P,R1,2*%
%TO.N,D2*%
X145834100Y-85585300D03*
%TD*%
D12*
%TO.P,U1,1*%
%TO.N,GND*%
X147104100Y-90665300D03*
D11*
%TO.P,U1,2*%
%TO.N,D2*%
X149644100Y-90665300D03*
%TO.P,U1,3*%
%TO.N,+5V*%
X152184100Y-90665300D03*
%TD*%
D17*
%TO.N,+5V*%
X132194300Y-105092499D02*
X134835899Y-105092499D01*
X134835899Y-105092499D02*
X137147300Y-107403900D01*
X191503300Y-77330300D02*
X194094100Y-79921100D01*
X194094100Y-92214700D02*
X196850000Y-94970600D01*
X194094100Y-79921100D02*
X194094100Y-92214700D01*
X188963300Y-77330300D02*
X187236100Y-77330300D01*
X184276999Y-80289401D02*
X161003360Y-80289401D01*
X187236100Y-77330300D02*
X184276999Y-80289401D01*
X161003360Y-80289401D02*
X156616399Y-80289401D01*
X153454100Y-83451700D02*
X153454100Y-85585300D01*
X156616399Y-80289401D02*
X153454100Y-83451700D01*
X153454100Y-89395300D02*
X152184100Y-90665300D01*
X153454100Y-85585300D02*
X153454100Y-89395300D01*
X151633300Y-118097300D02*
X147802600Y-118097300D01*
X114401600Y-98272601D02*
X117805199Y-101676200D01*
X128778001Y-101676200D02*
X132194300Y-105092499D01*
X117805199Y-101676200D02*
X128778001Y-101676200D01*
X142709900Y-123190000D02*
X147802600Y-118097300D01*
X147802600Y-118097300D02*
X147802600Y-113665000D01*
X141541500Y-107403900D02*
X137147300Y-107403900D01*
X147802600Y-113665000D02*
X141541500Y-107403900D01*
X141541500Y-104165400D02*
X141541500Y-107403900D01*
X152184100Y-93522800D02*
X141541500Y-104165400D01*
X152184100Y-90665300D02*
X152184100Y-93522800D01*
X137121900Y-116636800D02*
X137147300Y-116611400D01*
X135483600Y-123190000D02*
X133083300Y-125590300D01*
X137147300Y-123177300D02*
X137134600Y-123190000D01*
X137147300Y-116611400D02*
X137147300Y-123177300D01*
X137134600Y-123190000D02*
X135483600Y-123190000D01*
X142709900Y-123190000D02*
X137134600Y-123190000D01*
%TD*%
D18*
%TO.N,GND*%
X216980401Y-127254900D02*
X108774600Y-127254900D01*
X108774600Y-118271425D01*
X113324499Y-118271425D01*
X113463300Y-118722595D01*
X113687453Y-119138017D01*
X113988344Y-119501727D01*
X114354410Y-119799747D01*
X114771583Y-120020625D01*
X115205249Y-120152173D01*
X115580301Y-120035397D01*
X115580301Y-117896373D01*
X115788301Y-117896373D01*
X115788301Y-120035397D01*
X116163353Y-120152173D01*
X116597019Y-120020625D01*
X117014192Y-119799747D01*
X117380258Y-119501727D01*
X117681149Y-119138017D01*
X117905302Y-118722595D01*
X118044103Y-118271425D01*
X128564498Y-118271425D01*
X128703299Y-118722595D01*
X128927452Y-119138017D01*
X129228343Y-119501727D01*
X129594409Y-119799747D01*
X130011582Y-120020625D01*
X130445248Y-120152173D01*
X130820300Y-120035397D01*
X130820300Y-117896373D01*
X131028300Y-117896373D01*
X131028300Y-120035397D01*
X131403352Y-120152173D01*
X131837018Y-120020625D01*
X132254191Y-119799747D01*
X132620257Y-119501727D01*
X132921148Y-119138017D01*
X133145301Y-118722595D01*
X133284102Y-118271425D01*
X133167489Y-117896373D01*
X131028300Y-117896373D01*
X130820300Y-117896373D01*
X128681111Y-117896373D01*
X128564498Y-118271425D01*
X118044103Y-118271425D01*
X117927490Y-117896373D01*
X115788301Y-117896373D01*
X115580301Y-117896373D01*
X113441112Y-117896373D01*
X113324499Y-118271425D01*
X108774600Y-118271425D01*
X108774600Y-117313321D01*
X113324499Y-117313321D01*
X113441112Y-117688373D01*
X115580301Y-117688373D01*
X115580301Y-115549349D01*
X115788301Y-115549349D01*
X115788301Y-117688373D01*
X117927490Y-117688373D01*
X118044103Y-117313321D01*
X128564498Y-117313321D01*
X128681111Y-117688373D01*
X130820300Y-117688373D01*
X130820300Y-115549349D01*
X131028300Y-115549349D01*
X131028300Y-117688373D01*
X133167489Y-117688373D01*
X133284102Y-117313321D01*
X133145301Y-116862151D01*
X132921148Y-116446729D01*
X132620257Y-116083019D01*
X132254191Y-115784999D01*
X131837018Y-115564121D01*
X131403352Y-115432573D01*
X131028300Y-115549349D01*
X130820300Y-115549349D01*
X130445248Y-115432573D01*
X130011582Y-115564121D01*
X129594409Y-115784999D01*
X129228343Y-116083019D01*
X128927452Y-116446729D01*
X128703299Y-116862151D01*
X128564498Y-117313321D01*
X118044103Y-117313321D01*
X117905302Y-116862151D01*
X117681149Y-116446729D01*
X117380258Y-116083019D01*
X117014192Y-115784999D01*
X116597019Y-115564121D01*
X116163353Y-115432573D01*
X115788301Y-115549349D01*
X115580301Y-115549349D01*
X115205249Y-115432573D01*
X114771583Y-115564121D01*
X114354410Y-115784999D01*
X113988344Y-116083019D01*
X113687453Y-116446729D01*
X113463300Y-116862151D01*
X113324499Y-117313321D01*
X108774600Y-117313321D01*
X108774600Y-113122548D01*
X108778712Y-113080800D01*
X108762300Y-112914171D01*
X108713697Y-112753945D01*
X108634768Y-112606281D01*
X108528548Y-112476852D01*
X108399119Y-112370632D01*
X108251455Y-112291703D01*
X108091229Y-112243100D01*
X107966349Y-112230800D01*
X107966348Y-112230800D01*
X107924600Y-112226688D01*
X107882851Y-112230800D01*
X106602900Y-112230800D01*
X106602900Y-104934914D01*
X112814300Y-104934914D01*
X112814300Y-105250086D01*
X112875787Y-105559203D01*
X112996398Y-105850384D01*
X113171499Y-106112441D01*
X113394359Y-106335301D01*
X113656416Y-106510402D01*
X113947597Y-106631013D01*
X114256714Y-106692500D01*
X114571886Y-106692500D01*
X114881003Y-106631013D01*
X115172184Y-106510402D01*
X115434241Y-106335301D01*
X115657101Y-106112441D01*
X115684301Y-106071734D01*
X115711500Y-106112441D01*
X115934360Y-106335301D01*
X116196417Y-106510402D01*
X116487598Y-106631013D01*
X116796715Y-106692500D01*
X117111887Y-106692500D01*
X117421004Y-106631013D01*
X117712185Y-106510402D01*
X117974242Y-106335301D01*
X118197102Y-106112441D01*
X118286445Y-105978730D01*
X118466060Y-106184623D01*
X118698880Y-106364238D01*
X118962268Y-106494981D01*
X119157494Y-106554198D01*
X119390301Y-106425951D01*
X119390301Y-105196500D01*
X119370301Y-105196500D01*
X119370301Y-104988500D01*
X119390301Y-104988500D01*
X119390301Y-103759049D01*
X119598301Y-103759049D01*
X119598301Y-104988500D01*
X119618301Y-104988500D01*
X119618301Y-105196500D01*
X119598301Y-105196500D01*
X119598301Y-106425951D01*
X119831108Y-106554198D01*
X120026334Y-106494981D01*
X120289722Y-106364238D01*
X120522542Y-106184623D01*
X120702157Y-105978731D01*
X120791499Y-106112441D01*
X121014359Y-106335301D01*
X121276416Y-106510402D01*
X121567597Y-106631013D01*
X121876714Y-106692500D01*
X122191886Y-106692500D01*
X122501003Y-106631013D01*
X122792184Y-106510402D01*
X123054241Y-106335301D01*
X123277101Y-106112441D01*
X123304301Y-106071734D01*
X123331500Y-106112440D01*
X123554360Y-106335300D01*
X123816417Y-106510401D01*
X124107598Y-106631012D01*
X124416715Y-106692499D01*
X124731887Y-106692499D01*
X125041004Y-106631012D01*
X125332185Y-106510401D01*
X125594242Y-106335300D01*
X125817102Y-106112440D01*
X125906444Y-105978730D01*
X126086059Y-106184622D01*
X126318879Y-106364237D01*
X126582267Y-106494980D01*
X126777493Y-106554197D01*
X127010300Y-106425950D01*
X127010300Y-105196499D01*
X126990300Y-105196499D01*
X126990300Y-104988499D01*
X127010300Y-104988499D01*
X127010300Y-103759048D01*
X126777493Y-103630801D01*
X126582267Y-103690018D01*
X126318879Y-103820761D01*
X126086059Y-104000376D01*
X125906444Y-104206268D01*
X125817102Y-104072558D01*
X125594242Y-103849698D01*
X125332185Y-103674597D01*
X125041004Y-103553986D01*
X124731887Y-103492499D01*
X124416715Y-103492499D01*
X124107598Y-103553986D01*
X123816417Y-103674597D01*
X123554360Y-103849698D01*
X123331500Y-104072558D01*
X123304300Y-104113265D01*
X123277101Y-104072559D01*
X123054241Y-103849699D01*
X122792184Y-103674598D01*
X122501003Y-103553987D01*
X122191886Y-103492500D01*
X121876714Y-103492500D01*
X121567597Y-103553987D01*
X121276416Y-103674598D01*
X121014359Y-103849699D01*
X120791499Y-104072559D01*
X120702157Y-104206269D01*
X120522542Y-104000377D01*
X120289722Y-103820762D01*
X120026334Y-103690019D01*
X119831108Y-103630802D01*
X119598301Y-103759049D01*
X119390301Y-103759049D01*
X119157494Y-103630802D01*
X118962268Y-103690019D01*
X118698880Y-103820762D01*
X118466060Y-104000377D01*
X118286445Y-104206270D01*
X118197102Y-104072559D01*
X117974242Y-103849699D01*
X117712185Y-103674598D01*
X117421004Y-103553987D01*
X117111887Y-103492500D01*
X116796715Y-103492500D01*
X116487598Y-103553987D01*
X116196417Y-103674598D01*
X115934360Y-103849699D01*
X115711500Y-104072559D01*
X115684301Y-104113266D01*
X115657101Y-104072559D01*
X115434241Y-103849699D01*
X115172184Y-103674598D01*
X114881003Y-103553987D01*
X114571886Y-103492500D01*
X114256714Y-103492500D01*
X113947597Y-103553987D01*
X113656416Y-103674598D01*
X113394359Y-103849699D01*
X113171499Y-104072559D01*
X112996398Y-104334616D01*
X112875787Y-104625797D01*
X112814300Y-104934914D01*
X106602900Y-104934914D01*
X106602900Y-98751652D01*
X108231799Y-98751652D01*
X108370600Y-99202822D01*
X108594753Y-99618244D01*
X108895644Y-99981954D01*
X109261710Y-100279974D01*
X109678883Y-100500852D01*
X110112549Y-100632400D01*
X110487601Y-100515624D01*
X110487601Y-98376600D01*
X108348412Y-98376600D01*
X108231799Y-98751652D01*
X106602900Y-98751652D01*
X106602900Y-97793548D01*
X108231799Y-97793548D01*
X108348412Y-98168600D01*
X110487601Y-98168600D01*
X110487601Y-96029576D01*
X110695601Y-96029576D01*
X110695601Y-98168600D01*
X110715601Y-98168600D01*
X110715601Y-98376600D01*
X110695601Y-98376600D01*
X110695601Y-100515624D01*
X111070653Y-100632400D01*
X111504319Y-100500852D01*
X111921492Y-100279974D01*
X112287558Y-99981954D01*
X112588449Y-99618244D01*
X112812602Y-99202822D01*
X112915944Y-98866912D01*
X112983698Y-99030485D01*
X113158799Y-99292542D01*
X113381659Y-99515402D01*
X113643716Y-99690503D01*
X113934897Y-99811114D01*
X114244014Y-99872601D01*
X114559186Y-99872601D01*
X114582709Y-99867922D01*
X117063354Y-102348568D01*
X117094671Y-102386728D01*
X117246941Y-102511692D01*
X117420664Y-102604549D01*
X117609165Y-102661730D01*
X117805199Y-102681038D01*
X117854319Y-102676200D01*
X128363789Y-102676200D01*
X129232619Y-103545031D01*
X129187597Y-103553986D01*
X128896416Y-103674597D01*
X128634359Y-103849698D01*
X128411499Y-104072558D01*
X128322156Y-104206269D01*
X128142541Y-104000376D01*
X127909721Y-103820761D01*
X127646333Y-103690018D01*
X127451107Y-103630801D01*
X127218300Y-103759048D01*
X127218300Y-104988499D01*
X127238300Y-104988499D01*
X127238300Y-105196499D01*
X127218300Y-105196499D01*
X127218300Y-106425950D01*
X127451107Y-106554197D01*
X127646333Y-106494980D01*
X127909721Y-106364237D01*
X128142541Y-106184622D01*
X128322156Y-105978729D01*
X128411499Y-106112440D01*
X128634359Y-106335300D01*
X128896416Y-106510401D01*
X129187597Y-106631012D01*
X129496714Y-106692499D01*
X129811886Y-106692499D01*
X130121003Y-106631012D01*
X130412184Y-106510401D01*
X130674241Y-106335300D01*
X130897101Y-106112440D01*
X130924300Y-106071734D01*
X130951499Y-106112440D01*
X131174359Y-106335300D01*
X131436416Y-106510401D01*
X131727597Y-106631012D01*
X132036714Y-106692499D01*
X132351886Y-106692499D01*
X132661003Y-106631012D01*
X132952184Y-106510401D01*
X133214241Y-106335300D01*
X133437101Y-106112440D01*
X133450425Y-106092499D01*
X134421687Y-106092499D01*
X136405459Y-108076273D01*
X136436772Y-108114428D01*
X136474926Y-108145740D01*
X136589042Y-108239392D01*
X136762765Y-108332249D01*
X136951266Y-108389430D01*
X137147300Y-108408738D01*
X137196420Y-108403900D01*
X141127288Y-108403900D01*
X146802601Y-114079215D01*
X146802600Y-117683087D01*
X142295688Y-122190000D01*
X138147300Y-122190000D01*
X138147300Y-118199645D01*
X138285701Y-118157661D01*
X138415993Y-118088019D01*
X138530195Y-117994295D01*
X138623919Y-117880093D01*
X138693561Y-117749801D01*
X138698394Y-117733869D01*
X138891879Y-117883138D01*
X139155267Y-118013881D01*
X139350493Y-118073098D01*
X139583300Y-117944851D01*
X139583300Y-116715400D01*
X139563300Y-116715400D01*
X139563300Y-116507400D01*
X139583300Y-116507400D01*
X139583300Y-115277949D01*
X139791300Y-115277949D01*
X139791300Y-116507400D01*
X139811300Y-116507400D01*
X139811300Y-116715400D01*
X139791300Y-116715400D01*
X139791300Y-117944851D01*
X140024107Y-118073098D01*
X140219333Y-118013881D01*
X140482721Y-117883138D01*
X140715541Y-117703523D01*
X140895156Y-117497630D01*
X140984499Y-117631341D01*
X141207359Y-117854201D01*
X141469416Y-118029302D01*
X141760597Y-118149913D01*
X142069714Y-118211400D01*
X142384886Y-118211400D01*
X142694003Y-118149913D01*
X142985184Y-118029302D01*
X143247241Y-117854201D01*
X143470101Y-117631341D01*
X143497300Y-117590636D01*
X143524498Y-117631341D01*
X143747358Y-117854201D01*
X144009415Y-118029302D01*
X144300596Y-118149913D01*
X144609713Y-118211400D01*
X144924885Y-118211400D01*
X145234002Y-118149913D01*
X145525183Y-118029302D01*
X145787240Y-117854201D01*
X146010100Y-117631341D01*
X146185201Y-117369284D01*
X146305812Y-117078103D01*
X146367299Y-116768986D01*
X146367299Y-116453814D01*
X146305812Y-116144697D01*
X146185201Y-115853516D01*
X146010100Y-115591459D01*
X145787240Y-115368599D01*
X145525183Y-115193498D01*
X145234002Y-115072887D01*
X144924885Y-115011400D01*
X144609713Y-115011400D01*
X144300596Y-115072887D01*
X144009415Y-115193498D01*
X143747358Y-115368599D01*
X143524498Y-115591459D01*
X143497300Y-115632164D01*
X143470101Y-115591459D01*
X143247241Y-115368599D01*
X142985184Y-115193498D01*
X142694003Y-115072887D01*
X142384886Y-115011400D01*
X142069714Y-115011400D01*
X141760597Y-115072887D01*
X141469416Y-115193498D01*
X141207359Y-115368599D01*
X140984499Y-115591459D01*
X140895156Y-115725170D01*
X140715541Y-115519277D01*
X140482721Y-115339662D01*
X140219333Y-115208919D01*
X140024107Y-115149702D01*
X139791300Y-115277949D01*
X139583300Y-115277949D01*
X139350493Y-115149702D01*
X139155267Y-115208919D01*
X138891879Y-115339662D01*
X138698394Y-115488931D01*
X138693561Y-115472999D01*
X138623919Y-115342707D01*
X138530195Y-115228505D01*
X138415993Y-115134781D01*
X138285701Y-115065139D01*
X138144326Y-115022253D01*
X137997300Y-115007772D01*
X136297300Y-115007772D01*
X136150274Y-115022253D01*
X136008899Y-115065139D01*
X135878607Y-115134781D01*
X135764405Y-115228505D01*
X135670681Y-115342707D01*
X135601039Y-115472999D01*
X135558153Y-115614374D01*
X135543672Y-115761400D01*
X135543672Y-117461400D01*
X135558153Y-117608426D01*
X135601039Y-117749801D01*
X135670681Y-117880093D01*
X135764405Y-117994295D01*
X135878607Y-118088019D01*
X136008899Y-118157661D01*
X136147300Y-118199645D01*
X136147301Y-122190000D01*
X135532720Y-122190000D01*
X135483600Y-122185162D01*
X135434480Y-122190000D01*
X135287566Y-122204470D01*
X135099065Y-122261651D01*
X134925342Y-122354508D01*
X134773072Y-122479472D01*
X134741755Y-122517632D01*
X133275975Y-123983413D01*
X133242226Y-123976700D01*
X132924374Y-123976700D01*
X132612630Y-124038709D01*
X132318974Y-124160346D01*
X132054690Y-124336935D01*
X131829935Y-124561690D01*
X131813300Y-124586586D01*
X131796665Y-124561690D01*
X131571910Y-124336935D01*
X131307626Y-124160346D01*
X131013970Y-124038709D01*
X130702226Y-123976700D01*
X130384374Y-123976700D01*
X130072630Y-124038709D01*
X129778974Y-124160346D01*
X129514690Y-124336935D01*
X129289935Y-124561690D01*
X129273300Y-124586586D01*
X129256665Y-124561690D01*
X129031910Y-124336935D01*
X128767626Y-124160346D01*
X128473970Y-124038709D01*
X128162226Y-123976700D01*
X127844374Y-123976700D01*
X127532630Y-124038709D01*
X127238974Y-124160346D01*
X126974690Y-124336935D01*
X126749935Y-124561690D01*
X126733300Y-124586586D01*
X126716665Y-124561690D01*
X126491910Y-124336935D01*
X126227626Y-124160346D01*
X125933970Y-124038709D01*
X125622226Y-123976700D01*
X125304374Y-123976700D01*
X124992630Y-124038709D01*
X124698974Y-124160346D01*
X124434690Y-124336935D01*
X124209935Y-124561690D01*
X124193300Y-124586586D01*
X124176665Y-124561690D01*
X123951910Y-124336935D01*
X123687626Y-124160346D01*
X123393970Y-124038709D01*
X123082226Y-123976700D01*
X122764374Y-123976700D01*
X122452630Y-124038709D01*
X122158974Y-124160346D01*
X121894690Y-124336935D01*
X121669935Y-124561690D01*
X121493346Y-124825974D01*
X121371709Y-125119630D01*
X121309700Y-125431374D01*
X121309700Y-125749226D01*
X121371709Y-126060970D01*
X121493346Y-126354626D01*
X121669935Y-126618910D01*
X121894690Y-126843665D01*
X122158974Y-127020254D01*
X122452630Y-127141891D01*
X122764374Y-127203900D01*
X123082226Y-127203900D01*
X123393970Y-127141891D01*
X123687626Y-127020254D01*
X123951910Y-126843665D01*
X124176665Y-126618910D01*
X124193300Y-126594014D01*
X124209935Y-126618910D01*
X124434690Y-126843665D01*
X124698974Y-127020254D01*
X124992630Y-127141891D01*
X125304374Y-127203900D01*
X125622226Y-127203900D01*
X125933970Y-127141891D01*
X126227626Y-127020254D01*
X126491910Y-126843665D01*
X126716665Y-126618910D01*
X126733300Y-126594014D01*
X126749935Y-126618910D01*
X126974690Y-126843665D01*
X127238974Y-127020254D01*
X127532630Y-127141891D01*
X127844374Y-127203900D01*
X128162226Y-127203900D01*
X128473970Y-127141891D01*
X128767626Y-127020254D01*
X129031910Y-126843665D01*
X129256665Y-126618910D01*
X129273300Y-126594014D01*
X129289935Y-126618910D01*
X129514690Y-126843665D01*
X129778974Y-127020254D01*
X130072630Y-127141891D01*
X130384374Y-127203900D01*
X130702226Y-127203900D01*
X131013970Y-127141891D01*
X131307626Y-127020254D01*
X131571910Y-126843665D01*
X131796665Y-126618910D01*
X131813300Y-126594014D01*
X131829935Y-126618910D01*
X132054690Y-126843665D01*
X132318974Y-127020254D01*
X132612630Y-127141891D01*
X132924374Y-127203900D01*
X133242226Y-127203900D01*
X133553970Y-127141891D01*
X133847626Y-127020254D01*
X134111910Y-126843665D01*
X134336665Y-126618910D01*
X134419133Y-126495487D01*
X134521922Y-126628552D01*
X134745638Y-126823470D01*
X135003082Y-126970998D01*
X135284360Y-127065467D01*
X135519300Y-126937827D01*
X135519300Y-125694300D01*
X135727300Y-125694300D01*
X135727300Y-126937827D01*
X135962240Y-127065467D01*
X136243518Y-126970998D01*
X136500962Y-126823470D01*
X136724678Y-126628552D01*
X136893300Y-126410263D01*
X137061922Y-126628552D01*
X137285638Y-126823470D01*
X137543082Y-126970998D01*
X137824360Y-127065467D01*
X138059300Y-126937827D01*
X138059300Y-125694300D01*
X135727300Y-125694300D01*
X135519300Y-125694300D01*
X135499300Y-125694300D01*
X135499300Y-125486300D01*
X135519300Y-125486300D01*
X135519300Y-125466300D01*
X135727300Y-125466300D01*
X135727300Y-125486300D01*
X138059300Y-125486300D01*
X138059300Y-125466300D01*
X138267300Y-125466300D01*
X138267300Y-125486300D01*
X138287300Y-125486300D01*
X138287300Y-125694300D01*
X138267300Y-125694300D01*
X138267300Y-126937827D01*
X138502240Y-127065467D01*
X138783518Y-126970998D01*
X139040962Y-126823470D01*
X139264678Y-126628552D01*
X139367467Y-126495487D01*
X139449935Y-126618910D01*
X139674690Y-126843665D01*
X139938974Y-127020254D01*
X140232630Y-127141891D01*
X140544374Y-127203900D01*
X140862226Y-127203900D01*
X141173970Y-127141891D01*
X141467626Y-127020254D01*
X141731910Y-126843665D01*
X141956665Y-126618910D01*
X142133254Y-126354626D01*
X142254891Y-126060970D01*
X142316900Y-125749226D01*
X142316900Y-125431374D01*
X144169700Y-125431374D01*
X144169700Y-125749226D01*
X144231709Y-126060970D01*
X144353346Y-126354626D01*
X144529935Y-126618910D01*
X144754690Y-126843665D01*
X145018974Y-127020254D01*
X145312630Y-127141891D01*
X145624374Y-127203900D01*
X145942226Y-127203900D01*
X146253970Y-127141891D01*
X146547626Y-127020254D01*
X146811910Y-126843665D01*
X147036665Y-126618910D01*
X147053300Y-126594014D01*
X147069935Y-126618910D01*
X147294690Y-126843665D01*
X147558974Y-127020254D01*
X147852630Y-127141891D01*
X148164374Y-127203900D01*
X148482226Y-127203900D01*
X148793970Y-127141891D01*
X149087626Y-127020254D01*
X149351910Y-126843665D01*
X149576665Y-126618910D01*
X149593300Y-126594014D01*
X149609935Y-126618910D01*
X149834690Y-126843665D01*
X150098974Y-127020254D01*
X150392630Y-127141891D01*
X150704374Y-127203900D01*
X151022226Y-127203900D01*
X151333970Y-127141891D01*
X151627626Y-127020254D01*
X151891910Y-126843665D01*
X152116665Y-126618910D01*
X152133300Y-126594014D01*
X152149935Y-126618910D01*
X152374690Y-126843665D01*
X152638974Y-127020254D01*
X152932630Y-127141891D01*
X153244374Y-127203900D01*
X153562226Y-127203900D01*
X153873970Y-127141891D01*
X154167626Y-127020254D01*
X154431910Y-126843665D01*
X154656665Y-126618910D01*
X154673300Y-126594014D01*
X154689935Y-126618910D01*
X154914690Y-126843665D01*
X155178974Y-127020254D01*
X155472630Y-127141891D01*
X155784374Y-127203900D01*
X156102226Y-127203900D01*
X156413970Y-127141891D01*
X156707626Y-127020254D01*
X156971910Y-126843665D01*
X157196665Y-126618910D01*
X157213300Y-126594014D01*
X157229935Y-126618910D01*
X157454690Y-126843665D01*
X157718974Y-127020254D01*
X158012630Y-127141891D01*
X158324374Y-127203900D01*
X158642226Y-127203900D01*
X158953970Y-127141891D01*
X159247626Y-127020254D01*
X159511910Y-126843665D01*
X159736665Y-126618910D01*
X159753300Y-126594014D01*
X159769935Y-126618910D01*
X159994690Y-126843665D01*
X160258974Y-127020254D01*
X160552630Y-127141891D01*
X160864374Y-127203900D01*
X161182226Y-127203900D01*
X161493970Y-127141891D01*
X161787626Y-127020254D01*
X162051910Y-126843665D01*
X162276665Y-126618910D01*
X162293300Y-126594014D01*
X162309935Y-126618910D01*
X162534690Y-126843665D01*
X162798974Y-127020254D01*
X163092630Y-127141891D01*
X163404374Y-127203900D01*
X163722226Y-127203900D01*
X164033970Y-127141891D01*
X164327626Y-127020254D01*
X164591910Y-126843665D01*
X164816665Y-126618910D01*
X164993254Y-126354626D01*
X165114891Y-126060970D01*
X165176900Y-125749226D01*
X165176900Y-125431374D01*
X167029700Y-125431374D01*
X167029700Y-125749226D01*
X167091709Y-126060970D01*
X167213346Y-126354626D01*
X167389935Y-126618910D01*
X167614690Y-126843665D01*
X167878974Y-127020254D01*
X168172630Y-127141891D01*
X168484374Y-127203900D01*
X168802226Y-127203900D01*
X169113970Y-127141891D01*
X169407626Y-127020254D01*
X169671910Y-126843665D01*
X169896665Y-126618910D01*
X169913300Y-126594014D01*
X169929935Y-126618910D01*
X170154690Y-126843665D01*
X170418974Y-127020254D01*
X170712630Y-127141891D01*
X171024374Y-127203900D01*
X171342226Y-127203900D01*
X171653970Y-127141891D01*
X171947626Y-127020254D01*
X172211910Y-126843665D01*
X172436665Y-126618910D01*
X172453300Y-126594014D01*
X172469935Y-126618910D01*
X172694690Y-126843665D01*
X172958974Y-127020254D01*
X173252630Y-127141891D01*
X173564374Y-127203900D01*
X173882226Y-127203900D01*
X174193970Y-127141891D01*
X174487626Y-127020254D01*
X174751910Y-126843665D01*
X174976665Y-126618910D01*
X174993300Y-126594014D01*
X175009935Y-126618910D01*
X175234690Y-126843665D01*
X175498974Y-127020254D01*
X175792630Y-127141891D01*
X176104374Y-127203900D01*
X176422226Y-127203900D01*
X176733970Y-127141891D01*
X177027626Y-127020254D01*
X177291910Y-126843665D01*
X177516665Y-126618910D01*
X177533300Y-126594014D01*
X177549935Y-126618910D01*
X177774690Y-126843665D01*
X178038974Y-127020254D01*
X178332630Y-127141891D01*
X178644374Y-127203900D01*
X178962226Y-127203900D01*
X179273970Y-127141891D01*
X179567626Y-127020254D01*
X179831910Y-126843665D01*
X180056665Y-126618910D01*
X180073300Y-126594014D01*
X180089935Y-126618910D01*
X180314690Y-126843665D01*
X180578974Y-127020254D01*
X180872630Y-127141891D01*
X181184374Y-127203900D01*
X181502226Y-127203900D01*
X181813970Y-127141891D01*
X182107626Y-127020254D01*
X182371910Y-126843665D01*
X182596665Y-126618910D01*
X182613300Y-126594014D01*
X182629935Y-126618910D01*
X182854690Y-126843665D01*
X183118974Y-127020254D01*
X183412630Y-127141891D01*
X183724374Y-127203900D01*
X184042226Y-127203900D01*
X184353970Y-127141891D01*
X184647626Y-127020254D01*
X184911910Y-126843665D01*
X185136665Y-126618910D01*
X185153300Y-126594014D01*
X185169935Y-126618910D01*
X185394690Y-126843665D01*
X185658974Y-127020254D01*
X185952630Y-127141891D01*
X186264374Y-127203900D01*
X186582226Y-127203900D01*
X186893970Y-127141891D01*
X187187626Y-127020254D01*
X187451910Y-126843665D01*
X187676665Y-126618910D01*
X187853254Y-126354626D01*
X187974891Y-126060970D01*
X188036900Y-125749226D01*
X188036900Y-125431374D01*
X187974891Y-125119630D01*
X187853254Y-124825974D01*
X187676665Y-124561690D01*
X187451910Y-124336935D01*
X187187626Y-124160346D01*
X186893970Y-124038709D01*
X186582226Y-123976700D01*
X186264374Y-123976700D01*
X185952630Y-124038709D01*
X185658974Y-124160346D01*
X185394690Y-124336935D01*
X185169935Y-124561690D01*
X185153300Y-124586586D01*
X185136665Y-124561690D01*
X184911910Y-124336935D01*
X184647626Y-124160346D01*
X184353970Y-124038709D01*
X184042226Y-123976700D01*
X183724374Y-123976700D01*
X183412630Y-124038709D01*
X183118974Y-124160346D01*
X182854690Y-124336935D01*
X182629935Y-124561690D01*
X182613300Y-124586586D01*
X182596665Y-124561690D01*
X182371910Y-124336935D01*
X182107626Y-124160346D01*
X181813970Y-124038709D01*
X181502226Y-123976700D01*
X181184374Y-123976700D01*
X180872630Y-124038709D01*
X180578974Y-124160346D01*
X180314690Y-124336935D01*
X180089935Y-124561690D01*
X180073300Y-124586586D01*
X180056665Y-124561690D01*
X179831910Y-124336935D01*
X179567626Y-124160346D01*
X179273970Y-124038709D01*
X178962226Y-123976700D01*
X178644374Y-123976700D01*
X178332630Y-124038709D01*
X178038974Y-124160346D01*
X177774690Y-124336935D01*
X177549935Y-124561690D01*
X177533300Y-124586586D01*
X177516665Y-124561690D01*
X177291910Y-124336935D01*
X177027626Y-124160346D01*
X176733970Y-124038709D01*
X176422226Y-123976700D01*
X176104374Y-123976700D01*
X175792630Y-124038709D01*
X175498974Y-124160346D01*
X175234690Y-124336935D01*
X175009935Y-124561690D01*
X174993300Y-124586586D01*
X174976665Y-124561690D01*
X174751910Y-124336935D01*
X174487626Y-124160346D01*
X174193970Y-124038709D01*
X173882226Y-123976700D01*
X173564374Y-123976700D01*
X173252630Y-124038709D01*
X172958974Y-124160346D01*
X172694690Y-124336935D01*
X172469935Y-124561690D01*
X172453300Y-124586586D01*
X172436665Y-124561690D01*
X172211910Y-124336935D01*
X171947626Y-124160346D01*
X171653970Y-124038709D01*
X171342226Y-123976700D01*
X171024374Y-123976700D01*
X170712630Y-124038709D01*
X170418974Y-124160346D01*
X170154690Y-124336935D01*
X169929935Y-124561690D01*
X169913300Y-124586586D01*
X169896665Y-124561690D01*
X169671910Y-124336935D01*
X169407626Y-124160346D01*
X169113970Y-124038709D01*
X168802226Y-123976700D01*
X168484374Y-123976700D01*
X168172630Y-124038709D01*
X167878974Y-124160346D01*
X167614690Y-124336935D01*
X167389935Y-124561690D01*
X167213346Y-124825974D01*
X167091709Y-125119630D01*
X167029700Y-125431374D01*
X165176900Y-125431374D01*
X165114891Y-125119630D01*
X164993254Y-124825974D01*
X164816665Y-124561690D01*
X164591910Y-124336935D01*
X164327626Y-124160346D01*
X164033970Y-124038709D01*
X163722226Y-123976700D01*
X163404374Y-123976700D01*
X163092630Y-124038709D01*
X162798974Y-124160346D01*
X162534690Y-124336935D01*
X162309935Y-124561690D01*
X162293300Y-124586586D01*
X162276665Y-124561690D01*
X162051910Y-124336935D01*
X161787626Y-124160346D01*
X161493970Y-124038709D01*
X161182226Y-123976700D01*
X160864374Y-123976700D01*
X160552630Y-124038709D01*
X160258974Y-124160346D01*
X159994690Y-124336935D01*
X159769935Y-124561690D01*
X159753300Y-124586586D01*
X159736665Y-124561690D01*
X159511910Y-124336935D01*
X159247626Y-124160346D01*
X158953970Y-124038709D01*
X158642226Y-123976700D01*
X158324374Y-123976700D01*
X158012630Y-124038709D01*
X157718974Y-124160346D01*
X157454690Y-124336935D01*
X157229935Y-124561690D01*
X157213300Y-124586586D01*
X157196665Y-124561690D01*
X156971910Y-124336935D01*
X156707626Y-124160346D01*
X156413970Y-124038709D01*
X156102226Y-123976700D01*
X155784374Y-123976700D01*
X155472630Y-124038709D01*
X155178974Y-124160346D01*
X154914690Y-124336935D01*
X154689935Y-124561690D01*
X154673300Y-124586586D01*
X154656665Y-124561690D01*
X154431910Y-124336935D01*
X154167626Y-124160346D01*
X153873970Y-124038709D01*
X153562226Y-123976700D01*
X153244374Y-123976700D01*
X152932630Y-124038709D01*
X152638974Y-124160346D01*
X152374690Y-124336935D01*
X152149935Y-124561690D01*
X152133300Y-124586586D01*
X152116665Y-124561690D01*
X151891910Y-124336935D01*
X151627626Y-124160346D01*
X151333970Y-124038709D01*
X151022226Y-123976700D01*
X150704374Y-123976700D01*
X150392630Y-124038709D01*
X150098974Y-124160346D01*
X149834690Y-124336935D01*
X149609935Y-124561690D01*
X149593300Y-124586586D01*
X149576665Y-124561690D01*
X149351910Y-124336935D01*
X149087626Y-124160346D01*
X148793970Y-124038709D01*
X148482226Y-123976700D01*
X148164374Y-123976700D01*
X147852630Y-124038709D01*
X147558974Y-124160346D01*
X147294690Y-124336935D01*
X147069935Y-124561690D01*
X147053300Y-124586586D01*
X147036665Y-124561690D01*
X146811910Y-124336935D01*
X146547626Y-124160346D01*
X146253970Y-124038709D01*
X145942226Y-123976700D01*
X145624374Y-123976700D01*
X145312630Y-124038709D01*
X145018974Y-124160346D01*
X144754690Y-124336935D01*
X144529935Y-124561690D01*
X144353346Y-124825974D01*
X144231709Y-125119630D01*
X144169700Y-125431374D01*
X142316900Y-125431374D01*
X142254891Y-125119630D01*
X142133254Y-124825974D01*
X141956665Y-124561690D01*
X141731910Y-124336935D01*
X141512006Y-124190000D01*
X142660780Y-124190000D01*
X142709900Y-124194838D01*
X142759020Y-124190000D01*
X142905934Y-124175530D01*
X143094435Y-124118349D01*
X143268158Y-124025492D01*
X143420428Y-123900528D01*
X143451749Y-123862363D01*
X148216813Y-119097300D01*
X150377175Y-119097300D01*
X150390499Y-119117241D01*
X150613359Y-119340101D01*
X150654066Y-119367300D01*
X150613359Y-119394500D01*
X150390499Y-119617360D01*
X150215398Y-119879417D01*
X150094787Y-120170598D01*
X150033300Y-120479715D01*
X150033300Y-120794887D01*
X150094787Y-121104004D01*
X150215398Y-121395185D01*
X150390499Y-121657242D01*
X150613359Y-121880102D01*
X150875416Y-122055203D01*
X151166597Y-122175814D01*
X151475714Y-122237301D01*
X151790886Y-122237301D01*
X152100003Y-122175814D01*
X152391184Y-122055203D01*
X152653241Y-121880102D01*
X152876101Y-121657242D01*
X153051202Y-121395185D01*
X153166697Y-121116353D01*
X178989087Y-121116353D01*
X179120635Y-121550019D01*
X179341513Y-121967192D01*
X179639533Y-122333258D01*
X180003243Y-122634149D01*
X180418665Y-122858302D01*
X180869835Y-122997103D01*
X181244887Y-122880490D01*
X181244887Y-120741301D01*
X181452887Y-120741301D01*
X181452887Y-122880490D01*
X181827939Y-122997103D01*
X182279109Y-122858302D01*
X182694531Y-122634149D01*
X183058241Y-122333258D01*
X183356261Y-121967192D01*
X183577139Y-121550019D01*
X183708687Y-121116353D01*
X183625519Y-120849239D01*
X187488137Y-120849239D01*
X187548438Y-121048041D01*
X187680532Y-121313734D01*
X187861922Y-121548552D01*
X188085638Y-121743470D01*
X188343082Y-121890998D01*
X188624360Y-121985467D01*
X188859300Y-121857827D01*
X188859300Y-120614300D01*
X189067300Y-120614300D01*
X189067300Y-121857827D01*
X189302240Y-121985467D01*
X189583518Y-121890998D01*
X189840962Y-121743470D01*
X190064678Y-121548552D01*
X190233300Y-121330263D01*
X190401922Y-121548552D01*
X190625638Y-121743470D01*
X190883082Y-121890998D01*
X191164360Y-121985467D01*
X191399300Y-121857827D01*
X191399300Y-120614300D01*
X191607300Y-120614300D01*
X191607300Y-121857827D01*
X191842240Y-121985467D01*
X192123518Y-121890998D01*
X192380962Y-121743470D01*
X192604678Y-121548552D01*
X192786068Y-121313734D01*
X192918162Y-121048041D01*
X192978463Y-120849239D01*
X192850391Y-120614300D01*
X191607300Y-120614300D01*
X191399300Y-120614300D01*
X189067300Y-120614300D01*
X188859300Y-120614300D01*
X187616209Y-120614300D01*
X187488137Y-120849239D01*
X183625519Y-120849239D01*
X183591911Y-120741301D01*
X181452887Y-120741301D01*
X181244887Y-120741301D01*
X179105863Y-120741301D01*
X178989087Y-121116353D01*
X153166697Y-121116353D01*
X153171813Y-121104004D01*
X153233300Y-120794887D01*
X153233300Y-120479715D01*
X153171813Y-120170598D01*
X153166698Y-120158249D01*
X178989087Y-120158249D01*
X179105863Y-120533301D01*
X181244887Y-120533301D01*
X181244887Y-118394112D01*
X181452887Y-118394112D01*
X181452887Y-120533301D01*
X183591911Y-120533301D01*
X183708687Y-120158249D01*
X183577139Y-119724583D01*
X183356261Y-119307410D01*
X183058241Y-118941344D01*
X182694531Y-118640453D01*
X182279109Y-118416300D01*
X181827939Y-118277499D01*
X181452887Y-118394112D01*
X181244887Y-118394112D01*
X180869835Y-118277499D01*
X180418665Y-118416300D01*
X180003243Y-118640453D01*
X179639533Y-118941344D01*
X179341513Y-119307410D01*
X179120635Y-119724583D01*
X178989087Y-120158249D01*
X153166698Y-120158249D01*
X153051202Y-119879417D01*
X152876101Y-119617360D01*
X152653241Y-119394500D01*
X152612534Y-119367301D01*
X152653241Y-119340101D01*
X152876101Y-119117241D01*
X153051202Y-118855184D01*
X153171813Y-118564003D01*
X153233300Y-118254886D01*
X153233300Y-117939714D01*
X153171813Y-117630597D01*
X153051202Y-117339416D01*
X152876101Y-117077359D01*
X152653241Y-116854499D01*
X152519530Y-116765156D01*
X152725423Y-116585540D01*
X152905038Y-116352720D01*
X153035781Y-116089332D01*
X153094998Y-115894106D01*
X152966751Y-115661299D01*
X151737300Y-115661299D01*
X151737300Y-115681299D01*
X151529300Y-115681299D01*
X151529300Y-115661299D01*
X150299849Y-115661299D01*
X150171602Y-115894106D01*
X150230819Y-116089332D01*
X150361562Y-116352720D01*
X150541177Y-116585540D01*
X150747070Y-116765156D01*
X150613359Y-116854499D01*
X150390499Y-117077359D01*
X150377175Y-117097300D01*
X148802600Y-117097300D01*
X148802600Y-113714120D01*
X148807438Y-113665000D01*
X148788130Y-113468966D01*
X148730949Y-113280465D01*
X148638092Y-113106742D01*
X148544440Y-112992626D01*
X148513128Y-112954472D01*
X148474974Y-112923160D01*
X142541500Y-106989688D01*
X142541500Y-104579612D01*
X146961398Y-100159714D01*
X150033299Y-100159714D01*
X150033299Y-100474886D01*
X150094786Y-100784003D01*
X150215397Y-101075184D01*
X150390498Y-101337241D01*
X150613358Y-101560101D01*
X150654064Y-101587300D01*
X150613358Y-101614499D01*
X150390498Y-101837359D01*
X150215397Y-102099416D01*
X150094786Y-102390597D01*
X150033299Y-102699714D01*
X150033299Y-103014886D01*
X150094786Y-103324003D01*
X150215397Y-103615184D01*
X150390498Y-103877241D01*
X150613358Y-104100101D01*
X150654064Y-104127300D01*
X150613358Y-104154499D01*
X150390498Y-104377359D01*
X150215397Y-104639416D01*
X150094786Y-104930597D01*
X150033299Y-105239714D01*
X150033299Y-105554886D01*
X150094786Y-105864003D01*
X150215397Y-106155184D01*
X150390498Y-106417241D01*
X150613358Y-106640101D01*
X150654063Y-106667299D01*
X150613358Y-106694498D01*
X150390498Y-106917358D01*
X150215397Y-107179415D01*
X150094786Y-107470596D01*
X150033299Y-107779713D01*
X150033299Y-108094885D01*
X150094786Y-108404002D01*
X150215397Y-108695183D01*
X150390498Y-108957240D01*
X150613358Y-109180100D01*
X150654065Y-109207300D01*
X150613359Y-109234499D01*
X150390499Y-109457359D01*
X150215398Y-109719416D01*
X150094787Y-110010597D01*
X150033300Y-110319714D01*
X150033300Y-110634886D01*
X150094787Y-110944003D01*
X150215398Y-111235184D01*
X150390499Y-111497241D01*
X150613359Y-111720101D01*
X150654064Y-111747300D01*
X150613359Y-111774498D01*
X150390499Y-111997358D01*
X150215398Y-112259415D01*
X150094787Y-112550596D01*
X150033300Y-112859713D01*
X150033300Y-113174885D01*
X150094787Y-113484002D01*
X150215398Y-113775183D01*
X150390499Y-114037240D01*
X150613359Y-114260100D01*
X150747070Y-114349443D01*
X150541177Y-114529058D01*
X150361562Y-114761878D01*
X150230819Y-115025266D01*
X150171602Y-115220492D01*
X150299849Y-115453299D01*
X151529300Y-115453299D01*
X151529300Y-115433299D01*
X151737300Y-115433299D01*
X151737300Y-115453299D01*
X152966751Y-115453299D01*
X153094998Y-115220492D01*
X153035781Y-115025266D01*
X152905038Y-114761878D01*
X152725423Y-114529058D01*
X152519530Y-114349443D01*
X152653241Y-114260100D01*
X152876101Y-114037240D01*
X153051202Y-113775183D01*
X153171813Y-113484002D01*
X153233300Y-113174885D01*
X153233300Y-112859713D01*
X153171813Y-112550596D01*
X153051202Y-112259415D01*
X152876101Y-111997358D01*
X152653241Y-111774498D01*
X152612536Y-111747300D01*
X152653241Y-111720101D01*
X152876101Y-111497241D01*
X153051202Y-111235184D01*
X153171813Y-110944003D01*
X153233300Y-110634886D01*
X153233300Y-110319714D01*
X153171813Y-110010597D01*
X153051202Y-109719416D01*
X152876101Y-109457359D01*
X152653241Y-109234499D01*
X152612534Y-109207299D01*
X152653240Y-109180100D01*
X152876100Y-108957240D01*
X153051201Y-108695183D01*
X153171812Y-108404002D01*
X153233299Y-108094885D01*
X153233299Y-107779713D01*
X153171812Y-107470596D01*
X153051201Y-107179415D01*
X152876100Y-106917358D01*
X152653240Y-106694498D01*
X152612535Y-106667300D01*
X152653240Y-106640101D01*
X152876100Y-106417241D01*
X153051201Y-106155184D01*
X153171812Y-105864003D01*
X153233299Y-105554886D01*
X153233299Y-105239714D01*
X153171812Y-104930597D01*
X153051201Y-104639416D01*
X152876100Y-104377359D01*
X152653240Y-104154499D01*
X152612534Y-104127300D01*
X152653240Y-104100101D01*
X152876100Y-103877241D01*
X153051201Y-103615184D01*
X153171812Y-103324003D01*
X153233299Y-103014886D01*
X153233299Y-102699714D01*
X153171812Y-102390597D01*
X153051201Y-102099416D01*
X152876100Y-101837359D01*
X152653240Y-101614499D01*
X152612534Y-101587300D01*
X152653240Y-101560101D01*
X152876100Y-101337241D01*
X153051201Y-101075184D01*
X153166696Y-100796352D01*
X178991500Y-100796352D01*
X179123048Y-101230018D01*
X179343926Y-101647191D01*
X179641946Y-102013257D01*
X180005656Y-102314148D01*
X180421078Y-102538301D01*
X180872248Y-102677102D01*
X181247300Y-102560489D01*
X181247300Y-100421300D01*
X181455300Y-100421300D01*
X181455300Y-102560489D01*
X181830352Y-102677102D01*
X182281522Y-102538301D01*
X182696944Y-102314148D01*
X183060654Y-102013257D01*
X183358674Y-101647191D01*
X183579552Y-101230018D01*
X183711100Y-100796352D01*
X183594324Y-100421300D01*
X181455300Y-100421300D01*
X181247300Y-100421300D01*
X179108276Y-100421300D01*
X178991500Y-100796352D01*
X153166696Y-100796352D01*
X153171812Y-100784003D01*
X153233299Y-100474886D01*
X153233299Y-100159714D01*
X153171812Y-99850597D01*
X153166697Y-99838248D01*
X178991500Y-99838248D01*
X179108276Y-100213300D01*
X181247300Y-100213300D01*
X181247300Y-98074111D01*
X181455300Y-98074111D01*
X181455300Y-100213300D01*
X183594324Y-100213300D01*
X183711100Y-99838248D01*
X183579552Y-99404582D01*
X183358674Y-98987409D01*
X183060654Y-98621343D01*
X182696944Y-98320452D01*
X182281522Y-98096299D01*
X181830352Y-97957498D01*
X181455300Y-98074111D01*
X181247300Y-98074111D01*
X180872248Y-97957498D01*
X180421078Y-98096299D01*
X180005656Y-98320452D01*
X179641946Y-98621343D01*
X179343926Y-98987409D01*
X179123048Y-99404582D01*
X178991500Y-99838248D01*
X153166697Y-99838248D01*
X153051201Y-99559416D01*
X152876100Y-99297359D01*
X152653240Y-99074499D01*
X152391183Y-98899398D01*
X152100002Y-98778787D01*
X151790885Y-98717300D01*
X151475713Y-98717300D01*
X151166596Y-98778787D01*
X150875415Y-98899398D01*
X150613358Y-99074499D01*
X150390498Y-99297359D01*
X150215397Y-99559416D01*
X150094786Y-99850597D01*
X150033299Y-100159714D01*
X146961398Y-100159714D01*
X151254905Y-95866207D01*
X159541663Y-95866207D01*
X159600880Y-96061433D01*
X159731623Y-96324821D01*
X159911238Y-96557641D01*
X160132823Y-96750946D01*
X160387862Y-96897308D01*
X160666554Y-96991102D01*
X160899361Y-96863294D01*
X160899361Y-95633400D01*
X161107361Y-95633400D01*
X161107361Y-96863294D01*
X161340168Y-96991102D01*
X161618860Y-96897308D01*
X161873899Y-96750946D01*
X162095484Y-96557641D01*
X162275099Y-96324821D01*
X162405842Y-96061433D01*
X162465059Y-95866207D01*
X162336812Y-95633400D01*
X161107361Y-95633400D01*
X160899361Y-95633400D01*
X159669910Y-95633400D01*
X159541663Y-95866207D01*
X151254905Y-95866207D01*
X152856468Y-94264645D01*
X152894628Y-94233328D01*
X153019592Y-94081058D01*
X153112449Y-93907335D01*
X153169630Y-93718834D01*
X153184100Y-93571920D01*
X153184100Y-93571919D01*
X153188938Y-93522801D01*
X153184100Y-93473683D01*
X153184100Y-91921425D01*
X153204041Y-91908101D01*
X153426901Y-91685241D01*
X153602002Y-91423184D01*
X153722613Y-91132003D01*
X153784100Y-90822886D01*
X153784100Y-90507714D01*
X153779421Y-90484192D01*
X154126468Y-90137145D01*
X154164628Y-90105828D01*
X154289592Y-89953558D01*
X154382449Y-89779835D01*
X154439630Y-89591334D01*
X154454100Y-89444420D01*
X154454100Y-89444419D01*
X154458938Y-89395301D01*
X154454100Y-89346183D01*
X154454100Y-86777332D01*
X154658064Y-86573368D01*
X154827692Y-86319500D01*
X154944535Y-86037418D01*
X155004100Y-85737962D01*
X155004100Y-85432638D01*
X154944535Y-85133182D01*
X154827692Y-84851100D01*
X154658064Y-84597232D01*
X154454100Y-84393268D01*
X154454100Y-83865912D01*
X157030612Y-81289401D01*
X159747235Y-81289401D01*
X159760559Y-81309342D01*
X159983419Y-81532202D01*
X160024125Y-81559401D01*
X159983419Y-81586600D01*
X159760559Y-81809460D01*
X159585458Y-82071517D01*
X159464847Y-82362698D01*
X159403360Y-82671815D01*
X159403360Y-82986987D01*
X159464847Y-83296104D01*
X159585458Y-83587285D01*
X159760559Y-83849342D01*
X159983419Y-84072202D01*
X160024125Y-84099401D01*
X159983419Y-84126600D01*
X159760559Y-84349460D01*
X159585458Y-84611517D01*
X159464847Y-84902698D01*
X159403360Y-85211815D01*
X159403360Y-85526987D01*
X159464847Y-85836104D01*
X159585458Y-86127285D01*
X159760559Y-86389342D01*
X159983419Y-86612202D01*
X160024124Y-86639401D01*
X159983419Y-86666599D01*
X159760559Y-86889459D01*
X159585458Y-87151516D01*
X159464847Y-87442697D01*
X159403360Y-87751814D01*
X159403360Y-88066986D01*
X159464847Y-88376103D01*
X159585458Y-88667284D01*
X159760559Y-88929341D01*
X159983419Y-89152201D01*
X160024126Y-89179401D01*
X159983420Y-89206600D01*
X159760560Y-89429460D01*
X159585459Y-89691517D01*
X159464848Y-89982698D01*
X159403361Y-90291815D01*
X159403361Y-90606987D01*
X159464848Y-90916104D01*
X159585459Y-91207285D01*
X159760560Y-91469342D01*
X159983420Y-91692202D01*
X160024125Y-91719400D01*
X159983420Y-91746599D01*
X159760560Y-91969459D01*
X159585459Y-92231516D01*
X159464848Y-92522697D01*
X159403361Y-92831814D01*
X159403361Y-93146986D01*
X159464848Y-93456103D01*
X159585459Y-93747284D01*
X159760560Y-94009341D01*
X159983420Y-94232201D01*
X160117131Y-94321544D01*
X159911238Y-94501159D01*
X159731623Y-94733979D01*
X159600880Y-94997367D01*
X159541663Y-95192593D01*
X159669910Y-95425400D01*
X160899361Y-95425400D01*
X160899361Y-95405400D01*
X161107361Y-95405400D01*
X161107361Y-95425400D01*
X162336812Y-95425400D01*
X162465059Y-95192593D01*
X162405842Y-94997367D01*
X162275099Y-94733979D01*
X162095484Y-94501159D01*
X161889591Y-94321544D01*
X162023302Y-94232201D01*
X162246162Y-94009341D01*
X162421263Y-93747284D01*
X162541874Y-93456103D01*
X162603361Y-93146986D01*
X162603361Y-92831814D01*
X162541874Y-92522697D01*
X162421263Y-92231516D01*
X162246162Y-91969459D01*
X162023302Y-91746599D01*
X161982597Y-91719401D01*
X162023302Y-91692202D01*
X162246162Y-91469342D01*
X162421263Y-91207285D01*
X162541874Y-90916104D01*
X162603361Y-90606987D01*
X162603361Y-90291815D01*
X162541874Y-89982698D01*
X162421263Y-89691517D01*
X162246162Y-89429460D01*
X162023302Y-89206600D01*
X161982595Y-89179400D01*
X162023301Y-89152201D01*
X162246161Y-88929341D01*
X162421262Y-88667284D01*
X162541873Y-88376103D01*
X162603360Y-88066986D01*
X162603360Y-87751814D01*
X162541873Y-87442697D01*
X162421262Y-87151516D01*
X162246161Y-86889459D01*
X162023301Y-86666599D01*
X161982596Y-86639401D01*
X162023301Y-86612202D01*
X162246161Y-86389342D01*
X162421262Y-86127285D01*
X162541873Y-85836104D01*
X162603360Y-85526987D01*
X162603360Y-85211815D01*
X162541873Y-84902698D01*
X162421262Y-84611517D01*
X162246161Y-84349460D01*
X162023301Y-84126600D01*
X161982595Y-84099401D01*
X162023301Y-84072202D01*
X162246161Y-83849342D01*
X162421262Y-83587285D01*
X162541873Y-83296104D01*
X162603360Y-82986987D01*
X162603360Y-82671815D01*
X162541873Y-82362698D01*
X162421262Y-82071517D01*
X162246161Y-81809460D01*
X162023301Y-81586600D01*
X161982595Y-81559401D01*
X162023301Y-81532202D01*
X162246161Y-81309342D01*
X162259485Y-81289401D01*
X184227879Y-81289401D01*
X184276999Y-81294239D01*
X184326119Y-81289401D01*
X184473033Y-81274931D01*
X184661534Y-81217750D01*
X184835257Y-81124893D01*
X184987527Y-80999929D01*
X185018848Y-80961764D01*
X187650314Y-78330300D01*
X187690818Y-78330300D01*
X187709935Y-78358910D01*
X187934690Y-78583665D01*
X187959586Y-78600300D01*
X187934690Y-78616935D01*
X187709935Y-78841690D01*
X187533346Y-79105974D01*
X187411709Y-79399630D01*
X187349700Y-79711374D01*
X187349700Y-80029226D01*
X187411709Y-80340970D01*
X187533346Y-80634626D01*
X187709935Y-80898910D01*
X187934690Y-81123665D01*
X187959586Y-81140300D01*
X187934690Y-81156935D01*
X187709935Y-81381690D01*
X187533346Y-81645974D01*
X187411709Y-81939630D01*
X187349700Y-82251374D01*
X187349700Y-82569226D01*
X187411709Y-82880970D01*
X187533346Y-83174626D01*
X187709935Y-83438910D01*
X187934690Y-83663665D01*
X187959586Y-83680300D01*
X187934690Y-83696935D01*
X187709935Y-83921690D01*
X187533346Y-84185974D01*
X187411709Y-84479630D01*
X187349700Y-84791374D01*
X187349700Y-85109226D01*
X187411709Y-85420970D01*
X187533346Y-85714626D01*
X187709935Y-85978910D01*
X187934690Y-86203665D01*
X187959586Y-86220300D01*
X187934690Y-86236935D01*
X187709935Y-86461690D01*
X187533346Y-86725974D01*
X187411709Y-87019630D01*
X187349700Y-87331374D01*
X187349700Y-87649226D01*
X187411709Y-87960970D01*
X187533346Y-88254626D01*
X187709935Y-88518910D01*
X187934690Y-88743665D01*
X187959586Y-88760300D01*
X187934690Y-88776935D01*
X187709935Y-89001690D01*
X187533346Y-89265974D01*
X187411709Y-89559630D01*
X187349700Y-89871374D01*
X187349700Y-90189226D01*
X187411709Y-90500970D01*
X187533346Y-90794626D01*
X187709935Y-91058910D01*
X187934690Y-91283665D01*
X187959586Y-91300300D01*
X187934690Y-91316935D01*
X187709935Y-91541690D01*
X187533346Y-91805974D01*
X187411709Y-92099630D01*
X187349700Y-92411374D01*
X187349700Y-92729226D01*
X187411709Y-93040970D01*
X187533346Y-93334626D01*
X187709935Y-93598910D01*
X187934690Y-93823665D01*
X187959586Y-93840300D01*
X187934690Y-93856935D01*
X187709935Y-94081690D01*
X187533346Y-94345974D01*
X187411709Y-94639630D01*
X187349700Y-94951374D01*
X187349700Y-95269226D01*
X187411709Y-95580970D01*
X187533346Y-95874626D01*
X187709935Y-96138910D01*
X187934690Y-96363665D01*
X187959586Y-96380300D01*
X187934690Y-96396935D01*
X187709935Y-96621690D01*
X187533346Y-96885974D01*
X187411709Y-97179630D01*
X187349700Y-97491374D01*
X187349700Y-97809226D01*
X187411709Y-98120970D01*
X187533346Y-98414626D01*
X187709935Y-98678910D01*
X187934690Y-98903665D01*
X187959586Y-98920300D01*
X187934690Y-98936935D01*
X187709935Y-99161690D01*
X187533346Y-99425974D01*
X187411709Y-99719630D01*
X187349700Y-100031374D01*
X187349700Y-100349226D01*
X187411709Y-100660970D01*
X187533346Y-100954626D01*
X187709935Y-101218910D01*
X187934690Y-101443665D01*
X187959586Y-101460300D01*
X187934690Y-101476935D01*
X187709935Y-101701690D01*
X187533346Y-101965974D01*
X187411709Y-102259630D01*
X187349700Y-102571374D01*
X187349700Y-102889226D01*
X187411709Y-103200970D01*
X187533346Y-103494626D01*
X187709935Y-103758910D01*
X187934690Y-103983665D01*
X187959586Y-104000300D01*
X187934690Y-104016935D01*
X187709935Y-104241690D01*
X187533346Y-104505974D01*
X187411709Y-104799630D01*
X187349700Y-105111374D01*
X187349700Y-105429226D01*
X187411709Y-105740970D01*
X187533346Y-106034626D01*
X187709935Y-106298910D01*
X187934690Y-106523665D01*
X187959586Y-106540300D01*
X187934690Y-106556935D01*
X187709935Y-106781690D01*
X187533346Y-107045974D01*
X187411709Y-107339630D01*
X187349700Y-107651374D01*
X187349700Y-107969226D01*
X187411709Y-108280970D01*
X187533346Y-108574626D01*
X187709935Y-108838910D01*
X187934690Y-109063665D01*
X187959586Y-109080300D01*
X187934690Y-109096935D01*
X187709935Y-109321690D01*
X187533346Y-109585974D01*
X187411709Y-109879630D01*
X187349700Y-110191374D01*
X187349700Y-110509226D01*
X187411709Y-110820970D01*
X187533346Y-111114626D01*
X187709935Y-111378910D01*
X187934690Y-111603665D01*
X187959586Y-111620300D01*
X187934690Y-111636935D01*
X187709935Y-111861690D01*
X187533346Y-112125974D01*
X187411709Y-112419630D01*
X187349700Y-112731374D01*
X187349700Y-113049226D01*
X187411709Y-113360970D01*
X187533346Y-113654626D01*
X187709935Y-113918910D01*
X187934690Y-114143665D01*
X187959586Y-114160300D01*
X187934690Y-114176935D01*
X187709935Y-114401690D01*
X187533346Y-114665974D01*
X187411709Y-114959630D01*
X187349700Y-115271374D01*
X187349700Y-115589226D01*
X187411709Y-115900970D01*
X187533346Y-116194626D01*
X187709935Y-116458910D01*
X187934690Y-116683665D01*
X187959586Y-116700300D01*
X187934690Y-116716935D01*
X187709935Y-116941690D01*
X187533346Y-117205974D01*
X187411709Y-117499630D01*
X187349700Y-117811374D01*
X187349700Y-118129226D01*
X187411709Y-118440970D01*
X187533346Y-118734626D01*
X187709935Y-118998910D01*
X187934690Y-119223665D01*
X188054851Y-119303954D01*
X187861922Y-119472048D01*
X187680532Y-119706866D01*
X187548438Y-119972559D01*
X187488137Y-120171361D01*
X187616209Y-120406300D01*
X188859300Y-120406300D01*
X188859300Y-120386300D01*
X189067300Y-120386300D01*
X189067300Y-120406300D01*
X191399300Y-120406300D01*
X191399300Y-120386300D01*
X191607300Y-120386300D01*
X191607300Y-120406300D01*
X192850391Y-120406300D01*
X192978463Y-120171361D01*
X192918162Y-119972559D01*
X192786068Y-119706866D01*
X192604678Y-119472048D01*
X192411749Y-119303954D01*
X192531910Y-119223665D01*
X192756665Y-118998910D01*
X192933254Y-118734626D01*
X193054891Y-118440970D01*
X193116900Y-118129226D01*
X193116900Y-117811374D01*
X193054891Y-117499630D01*
X192933254Y-117205974D01*
X192756665Y-116941690D01*
X192531910Y-116716935D01*
X192507014Y-116700300D01*
X192531910Y-116683665D01*
X192756665Y-116458910D01*
X192933254Y-116194626D01*
X193008517Y-116012924D01*
X205342554Y-116012924D01*
X205615660Y-116437881D01*
X206161003Y-116733881D01*
X206753614Y-116917802D01*
X207370719Y-116982576D01*
X207988605Y-116925715D01*
X208583524Y-116749403D01*
X209132615Y-116460415D01*
X209166340Y-116437881D01*
X209439446Y-116012924D01*
X207391000Y-113964478D01*
X205342554Y-116012924D01*
X193008517Y-116012924D01*
X193054891Y-115900970D01*
X193116900Y-115589226D01*
X193116900Y-115271374D01*
X193054891Y-114959630D01*
X192933254Y-114665974D01*
X192756665Y-114401690D01*
X192531910Y-114176935D01*
X192507014Y-114160300D01*
X192531910Y-114143665D01*
X192756665Y-113918910D01*
X192838043Y-113797119D01*
X204225824Y-113797119D01*
X204282685Y-114415005D01*
X204458997Y-115009924D01*
X204747985Y-115559015D01*
X204770519Y-115592740D01*
X205195476Y-115865846D01*
X207243922Y-113817400D01*
X207538078Y-113817400D01*
X209586524Y-115865846D01*
X210011481Y-115592740D01*
X210307481Y-115047397D01*
X210491402Y-114454786D01*
X210556176Y-113837681D01*
X210499315Y-113219795D01*
X210323003Y-112624876D01*
X210034015Y-112075785D01*
X210011481Y-112042060D01*
X209586524Y-111768954D01*
X207538078Y-113817400D01*
X207243922Y-113817400D01*
X205195476Y-111768954D01*
X204770519Y-112042060D01*
X204474519Y-112587403D01*
X204290598Y-113180014D01*
X204225824Y-113797119D01*
X192838043Y-113797119D01*
X192933254Y-113654626D01*
X193054891Y-113360970D01*
X193116900Y-113049226D01*
X193116900Y-112731374D01*
X193054891Y-112419630D01*
X192933254Y-112125974D01*
X192756665Y-111861690D01*
X192531910Y-111636935D01*
X192509373Y-111621876D01*
X205342554Y-111621876D01*
X207391000Y-113670322D01*
X209439446Y-111621876D01*
X209166340Y-111196919D01*
X208620997Y-110900919D01*
X208028386Y-110716998D01*
X207411281Y-110652224D01*
X206793395Y-110709085D01*
X206198476Y-110885397D01*
X205649385Y-111174385D01*
X205615660Y-111196919D01*
X205342554Y-111621876D01*
X192509373Y-111621876D01*
X192507014Y-111620300D01*
X192531910Y-111603665D01*
X192756665Y-111378910D01*
X192933254Y-111114626D01*
X193054891Y-110820970D01*
X193116900Y-110509226D01*
X193116900Y-110191374D01*
X193054891Y-109879630D01*
X192933254Y-109585974D01*
X192756665Y-109321690D01*
X192531910Y-109096935D01*
X192507014Y-109080300D01*
X192531910Y-109063665D01*
X192756665Y-108838910D01*
X192933254Y-108574626D01*
X193054891Y-108280970D01*
X193116900Y-107969226D01*
X193116900Y-107651374D01*
X193054891Y-107339630D01*
X192933254Y-107045974D01*
X192756665Y-106781690D01*
X192643965Y-106668990D01*
X203533000Y-106668990D01*
X203533278Y-106671812D01*
X203533322Y-106678120D01*
X203537168Y-106714711D01*
X203537168Y-106751508D01*
X203538350Y-106762756D01*
X203605764Y-107363767D01*
X203621030Y-107435589D01*
X203635287Y-107507593D01*
X203638629Y-107518387D01*
X203638631Y-107518397D01*
X203638635Y-107518406D01*
X203821498Y-108094866D01*
X203850432Y-108162374D01*
X203878396Y-108230219D01*
X203883770Y-108240158D01*
X203883774Y-108240167D01*
X203883779Y-108240174D01*
X204175129Y-108770140D01*
X204216607Y-108830716D01*
X204257233Y-108891864D01*
X204264442Y-108900578D01*
X204653187Y-109363866D01*
X204705625Y-109415218D01*
X204757370Y-109467324D01*
X204766134Y-109474472D01*
X205237463Y-109853429D01*
X205298887Y-109893624D01*
X205359756Y-109934681D01*
X205369738Y-109939989D01*
X205369746Y-109939993D01*
X205905700Y-110220182D01*
X205973759Y-110247680D01*
X206041445Y-110276132D01*
X206052266Y-110279399D01*
X206052273Y-110279402D01*
X206052280Y-110279403D01*
X206632446Y-110450156D01*
X206704567Y-110463914D01*
X206776476Y-110478675D01*
X206787717Y-110479777D01*
X206787730Y-110479779D01*
X206787742Y-110479779D01*
X207390023Y-110534590D01*
X207463435Y-110534078D01*
X207536846Y-110534590D01*
X207548101Y-110533487D01*
X207548105Y-110533487D01*
X208149567Y-110470271D01*
X208221483Y-110455509D01*
X208293597Y-110441752D01*
X208304423Y-110438484D01*
X208882157Y-110259645D01*
X208949818Y-110231203D01*
X209017903Y-110203695D01*
X209027880Y-110198390D01*
X209027889Y-110198386D01*
X209027896Y-110198381D01*
X209559882Y-109910737D01*
X209620724Y-109869699D01*
X209682177Y-109829485D01*
X209690934Y-109822343D01*
X209690941Y-109822338D01*
X209690947Y-109822332D01*
X210156932Y-109436836D01*
X210208662Y-109384743D01*
X210261114Y-109333378D01*
X210268323Y-109324664D01*
X210650561Y-108855994D01*
X210691178Y-108794861D01*
X210732665Y-108734270D01*
X210738044Y-108724322D01*
X211021971Y-108190333D01*
X211049956Y-108122436D01*
X211078867Y-108054981D01*
X211082212Y-108044177D01*
X211257013Y-107465209D01*
X211271273Y-107393191D01*
X211286536Y-107321382D01*
X211287718Y-107310135D01*
X211346734Y-106708242D01*
X211350600Y-106668991D01*
X211350600Y-95649412D01*
X211350606Y-95649355D01*
X211350606Y-95638046D01*
X211350600Y-95637186D01*
X211350600Y-95603909D01*
X211350350Y-95601371D01*
X211350304Y-95594780D01*
X211346458Y-95558189D01*
X211346458Y-95521391D01*
X211345276Y-95510144D01*
X211277861Y-94909128D01*
X211262602Y-94837338D01*
X211248338Y-94765302D01*
X211244996Y-94754508D01*
X211244994Y-94754498D01*
X211244990Y-94754489D01*
X211062124Y-94178023D01*
X211033220Y-94110584D01*
X211005228Y-94042671D01*
X210999849Y-94032723D01*
X210708492Y-93502746D01*
X210667020Y-93442177D01*
X210626388Y-93381022D01*
X210619179Y-93372308D01*
X210230432Y-92909016D01*
X210177993Y-92857664D01*
X210126248Y-92805557D01*
X210117484Y-92798409D01*
X209646152Y-92419449D01*
X209584732Y-92379257D01*
X209523858Y-92338197D01*
X209513880Y-92332892D01*
X209513872Y-92332887D01*
X209513864Y-92332884D01*
X208977911Y-92052694D01*
X208909845Y-92025193D01*
X208842164Y-91996743D01*
X208831347Y-91993478D01*
X208831337Y-91993474D01*
X208831327Y-91993472D01*
X208261629Y-91825801D01*
X208583524Y-91730403D01*
X209132615Y-91441415D01*
X209166340Y-91418881D01*
X209439446Y-90993924D01*
X207391000Y-88945478D01*
X205342554Y-90993924D01*
X205615660Y-91418881D01*
X206161003Y-91714881D01*
X206562603Y-91839520D01*
X206001434Y-92013230D01*
X205933736Y-92041688D01*
X205865687Y-92069181D01*
X205855706Y-92074488D01*
X205855702Y-92074490D01*
X205855701Y-92074491D01*
X205323702Y-92362142D01*
X205262843Y-92403192D01*
X205201408Y-92443394D01*
X205192644Y-92450541D01*
X204726650Y-92836045D01*
X204674867Y-92888190D01*
X204622468Y-92939504D01*
X204615264Y-92948211D01*
X204615258Y-92948217D01*
X204615254Y-92948224D01*
X204233017Y-93416892D01*
X204192390Y-93478040D01*
X204150913Y-93538616D01*
X204145537Y-93548560D01*
X204145534Y-93548564D01*
X204145534Y-93548565D01*
X203861605Y-94082557D01*
X203833617Y-94150461D01*
X203804708Y-94217911D01*
X203801364Y-94228714D01*
X203626562Y-94807687D01*
X203612300Y-94879715D01*
X203597039Y-94951512D01*
X203595858Y-94962749D01*
X203595856Y-94962760D01*
X203595856Y-94962770D01*
X203536840Y-95564657D01*
X203536840Y-95564930D01*
X203533001Y-95603909D01*
X203533000Y-106668990D01*
X192643965Y-106668990D01*
X192531910Y-106556935D01*
X192507014Y-106540300D01*
X192531910Y-106523665D01*
X192756665Y-106298910D01*
X192933254Y-106034626D01*
X193054891Y-105740970D01*
X193116900Y-105429226D01*
X193116900Y-105111374D01*
X193054891Y-104799630D01*
X192933254Y-104505974D01*
X192756665Y-104241690D01*
X192531910Y-104016935D01*
X192507014Y-104000300D01*
X192531910Y-103983665D01*
X192756665Y-103758910D01*
X192933254Y-103494626D01*
X193054891Y-103200970D01*
X193116900Y-102889226D01*
X193116900Y-102571374D01*
X193054891Y-102259630D01*
X192933254Y-101965974D01*
X192756665Y-101701690D01*
X192531910Y-101476935D01*
X192507014Y-101460300D01*
X192531910Y-101443665D01*
X192756665Y-101218910D01*
X192933254Y-100954626D01*
X193054891Y-100660970D01*
X193116900Y-100349226D01*
X193116900Y-100031374D01*
X193054891Y-99719630D01*
X192933254Y-99425974D01*
X192756665Y-99161690D01*
X192531910Y-98936935D01*
X192507014Y-98920300D01*
X192531910Y-98903665D01*
X192756665Y-98678910D01*
X192933254Y-98414626D01*
X193054891Y-98120970D01*
X193116900Y-97809226D01*
X193116900Y-97491374D01*
X193054891Y-97179630D01*
X192933254Y-96885974D01*
X192756665Y-96621690D01*
X192531910Y-96396935D01*
X192507014Y-96380300D01*
X192531910Y-96363665D01*
X192756665Y-96138910D01*
X192933254Y-95874626D01*
X193054891Y-95580970D01*
X193116900Y-95269226D01*
X193116900Y-94951374D01*
X193054891Y-94639630D01*
X192933254Y-94345974D01*
X192756665Y-94081690D01*
X192531910Y-93856935D01*
X192507014Y-93840300D01*
X192531910Y-93823665D01*
X192756665Y-93598910D01*
X192933254Y-93334626D01*
X193054891Y-93040970D01*
X193116900Y-92729226D01*
X193116900Y-92438194D01*
X193165751Y-92599234D01*
X193203812Y-92670441D01*
X193258609Y-92772958D01*
X193383573Y-92925228D01*
X193421732Y-92956544D01*
X195246372Y-94781185D01*
X195246372Y-95820600D01*
X195260853Y-95967626D01*
X195303739Y-96109001D01*
X195373381Y-96239293D01*
X195467105Y-96353495D01*
X195581307Y-96447219D01*
X195711599Y-96516861D01*
X195852974Y-96559747D01*
X196000000Y-96574228D01*
X197700000Y-96574228D01*
X197847026Y-96559747D01*
X197988401Y-96516861D01*
X198118693Y-96447219D01*
X198232895Y-96353495D01*
X198326619Y-96239293D01*
X198396261Y-96109001D01*
X198439147Y-95967626D01*
X198453628Y-95820600D01*
X198453628Y-94120600D01*
X198439147Y-93973574D01*
X198396261Y-93832199D01*
X198326619Y-93701907D01*
X198232895Y-93587705D01*
X198118693Y-93493981D01*
X197988401Y-93424339D01*
X197972469Y-93419506D01*
X198121738Y-93226021D01*
X198252481Y-92962633D01*
X198311698Y-92767407D01*
X198183451Y-92534600D01*
X196954000Y-92534600D01*
X196954000Y-92554600D01*
X196746000Y-92554600D01*
X196746000Y-92534600D01*
X196726000Y-92534600D01*
X196726000Y-92326600D01*
X196746000Y-92326600D01*
X196746000Y-92306600D01*
X196954000Y-92306600D01*
X196954000Y-92326600D01*
X198183451Y-92326600D01*
X198311698Y-92093793D01*
X198252481Y-91898567D01*
X198121738Y-91635179D01*
X197942123Y-91402359D01*
X197736230Y-91222744D01*
X197869941Y-91133401D01*
X198092801Y-90910541D01*
X198267902Y-90648484D01*
X198388513Y-90357303D01*
X198450000Y-90048186D01*
X198450000Y-89733014D01*
X198388513Y-89423897D01*
X198267902Y-89132716D01*
X198092801Y-88870659D01*
X198000261Y-88778119D01*
X204225824Y-88778119D01*
X204282685Y-89396005D01*
X204458997Y-89990924D01*
X204747985Y-90540015D01*
X204770519Y-90573740D01*
X205195476Y-90846846D01*
X207243922Y-88798400D01*
X207538078Y-88798400D01*
X209586524Y-90846846D01*
X210011481Y-90573740D01*
X210307481Y-90028397D01*
X210491402Y-89435786D01*
X210556176Y-88818681D01*
X210499315Y-88200795D01*
X210323003Y-87605876D01*
X210034015Y-87056785D01*
X210011481Y-87023060D01*
X209586524Y-86749954D01*
X207538078Y-88798400D01*
X207243922Y-88798400D01*
X205195476Y-86749954D01*
X204770519Y-87023060D01*
X204474519Y-87568403D01*
X204290598Y-88161014D01*
X204225824Y-88778119D01*
X198000261Y-88778119D01*
X197869941Y-88647799D01*
X197829235Y-88620600D01*
X197869941Y-88593401D01*
X198092801Y-88370541D01*
X198267902Y-88108484D01*
X198388513Y-87817303D01*
X198450000Y-87508186D01*
X198450000Y-87193014D01*
X198388513Y-86883897D01*
X198272111Y-86602876D01*
X205342554Y-86602876D01*
X207391000Y-88651322D01*
X209439446Y-86602876D01*
X209166340Y-86177919D01*
X208620997Y-85881919D01*
X208028386Y-85697998D01*
X207411281Y-85633224D01*
X206793395Y-85690085D01*
X206198476Y-85866397D01*
X205649385Y-86155385D01*
X205615660Y-86177919D01*
X205342554Y-86602876D01*
X198272111Y-86602876D01*
X198267902Y-86592716D01*
X198092801Y-86330659D01*
X197869941Y-86107799D01*
X197607884Y-85932698D01*
X197316703Y-85812087D01*
X197007586Y-85750600D01*
X196692414Y-85750600D01*
X196383297Y-85812087D01*
X196092116Y-85932698D01*
X195830059Y-86107799D01*
X195607199Y-86330659D01*
X195432098Y-86592716D01*
X195311487Y-86883897D01*
X195250000Y-87193014D01*
X195250000Y-87508186D01*
X195311487Y-87817303D01*
X195432098Y-88108484D01*
X195607199Y-88370541D01*
X195830059Y-88593401D01*
X195870765Y-88620600D01*
X195830059Y-88647799D01*
X195607199Y-88870659D01*
X195432098Y-89132716D01*
X195311487Y-89423897D01*
X195250000Y-89733014D01*
X195250000Y-90048186D01*
X195311487Y-90357303D01*
X195432098Y-90648484D01*
X195607199Y-90910541D01*
X195830059Y-91133401D01*
X195963770Y-91222744D01*
X195757877Y-91402359D01*
X195578262Y-91635179D01*
X195447519Y-91898567D01*
X195388302Y-92093793D01*
X195389402Y-92095790D01*
X195094100Y-91800488D01*
X195094100Y-79970209D01*
X195098937Y-79921099D01*
X195094100Y-79871989D01*
X195094100Y-79871980D01*
X195079630Y-79725066D01*
X195022449Y-79536565D01*
X194929592Y-79362842D01*
X194804628Y-79210572D01*
X194766474Y-79179260D01*
X193110187Y-77522974D01*
X193116900Y-77489226D01*
X193116900Y-77171374D01*
X193054891Y-76859630D01*
X192933254Y-76565974D01*
X192756665Y-76301690D01*
X192531910Y-76076935D01*
X192267626Y-75900346D01*
X191973970Y-75778709D01*
X191662226Y-75716700D01*
X191344374Y-75716700D01*
X191032630Y-75778709D01*
X190738974Y-75900346D01*
X190474690Y-76076935D01*
X190249935Y-76301690D01*
X190233300Y-76326586D01*
X190216665Y-76301690D01*
X189991910Y-76076935D01*
X189727626Y-75900346D01*
X189433970Y-75778709D01*
X189122226Y-75716700D01*
X188804374Y-75716700D01*
X188492630Y-75778709D01*
X188198974Y-75900346D01*
X187934690Y-76076935D01*
X187709935Y-76301690D01*
X187690818Y-76330300D01*
X187285220Y-76330300D01*
X187236100Y-76325462D01*
X187186980Y-76330300D01*
X187040066Y-76344770D01*
X186851565Y-76401951D01*
X186677842Y-76494808D01*
X186525572Y-76619772D01*
X186494260Y-76657926D01*
X183862787Y-79289401D01*
X162259485Y-79289401D01*
X162246161Y-79269460D01*
X162023301Y-79046600D01*
X161761244Y-78871499D01*
X161470063Y-78750888D01*
X161160946Y-78689401D01*
X160845774Y-78689401D01*
X160536657Y-78750888D01*
X160245476Y-78871499D01*
X159983419Y-79046600D01*
X159760559Y-79269460D01*
X159747235Y-79289401D01*
X156665516Y-79289401D01*
X156616398Y-79284563D01*
X156567280Y-79289401D01*
X156567279Y-79289401D01*
X156420365Y-79303871D01*
X156231864Y-79361052D01*
X156058141Y-79453909D01*
X155905871Y-79578873D01*
X155874554Y-79617033D01*
X152781737Y-82709851D01*
X152743572Y-82741172D01*
X152618608Y-82893442D01*
X152525752Y-83067165D01*
X152525751Y-83067166D01*
X152468570Y-83255666D01*
X152449262Y-83451700D01*
X152454100Y-83500821D01*
X152454100Y-84393268D01*
X152250136Y-84597232D01*
X152080508Y-84851100D01*
X151963665Y-85133182D01*
X151904100Y-85432638D01*
X151904100Y-85737962D01*
X151963665Y-86037418D01*
X152080508Y-86319500D01*
X152250136Y-86573368D01*
X152454100Y-86777332D01*
X152454101Y-88981086D01*
X152365208Y-89069979D01*
X152341686Y-89065300D01*
X152026514Y-89065300D01*
X151717397Y-89126787D01*
X151426216Y-89247398D01*
X151164159Y-89422499D01*
X150941299Y-89645359D01*
X150914100Y-89686065D01*
X150886901Y-89645359D01*
X150664041Y-89422499D01*
X150401984Y-89247398D01*
X150110803Y-89126787D01*
X149801686Y-89065300D01*
X149486514Y-89065300D01*
X149177397Y-89126787D01*
X148886216Y-89247398D01*
X148624159Y-89422499D01*
X148530977Y-89515681D01*
X148497170Y-89452432D01*
X148415943Y-89353457D01*
X148316968Y-89272230D01*
X148204048Y-89211873D01*
X148081522Y-89174705D01*
X147954100Y-89162155D01*
X147370600Y-89165300D01*
X147208100Y-89327800D01*
X147208100Y-90561300D01*
X147228100Y-90561300D01*
X147228100Y-90769300D01*
X147208100Y-90769300D01*
X147208100Y-92002800D01*
X147370600Y-92165300D01*
X147954100Y-92168445D01*
X148081522Y-92155895D01*
X148204048Y-92118727D01*
X148316968Y-92058370D01*
X148415943Y-91977143D01*
X148497170Y-91878168D01*
X148530977Y-91814919D01*
X148624159Y-91908101D01*
X148886216Y-92083202D01*
X149177397Y-92203813D01*
X149486514Y-92265300D01*
X149801686Y-92265300D01*
X150110803Y-92203813D01*
X150401984Y-92083202D01*
X150664041Y-91908101D01*
X150886901Y-91685241D01*
X150914100Y-91644535D01*
X150941299Y-91685241D01*
X151164159Y-91908101D01*
X151184100Y-91921425D01*
X151184101Y-93108586D01*
X140869137Y-103423551D01*
X140830972Y-103454872D01*
X140706008Y-103607142D01*
X140613152Y-103780865D01*
X140613151Y-103780866D01*
X140555970Y-103969366D01*
X140536662Y-104165400D01*
X140541500Y-104214520D01*
X140541501Y-106403900D01*
X137561514Y-106403900D01*
X135577748Y-104420136D01*
X135546427Y-104381971D01*
X135394157Y-104257007D01*
X135220434Y-104164150D01*
X135031933Y-104106969D01*
X134885019Y-104092499D01*
X134835899Y-104087661D01*
X134786779Y-104092499D01*
X133450425Y-104092499D01*
X133437101Y-104072558D01*
X133214241Y-103849698D01*
X132952184Y-103674597D01*
X132661003Y-103553986D01*
X132351886Y-103492499D01*
X132036714Y-103492499D01*
X132013192Y-103497178D01*
X129519850Y-101003837D01*
X129488529Y-100965672D01*
X129336259Y-100840708D01*
X129162536Y-100747851D01*
X128974035Y-100690670D01*
X128827121Y-100676200D01*
X128778001Y-100671362D01*
X128728881Y-100676200D01*
X118219412Y-100676200D01*
X117363281Y-99820069D01*
X117408303Y-99811114D01*
X117699484Y-99690503D01*
X117961541Y-99515402D01*
X118184401Y-99292542D01*
X118273744Y-99158831D01*
X118453359Y-99364724D01*
X118686179Y-99544339D01*
X118949567Y-99675082D01*
X119144793Y-99734299D01*
X119377600Y-99606052D01*
X119377600Y-98376601D01*
X119357600Y-98376601D01*
X119357600Y-98168601D01*
X119377600Y-98168601D01*
X119377600Y-96939150D01*
X119585600Y-96939150D01*
X119585600Y-98168601D01*
X119605600Y-98168601D01*
X119605600Y-98376601D01*
X119585600Y-98376601D01*
X119585600Y-99606052D01*
X119818407Y-99734299D01*
X120013633Y-99675082D01*
X120277021Y-99544339D01*
X120509841Y-99364724D01*
X120689456Y-99158832D01*
X120778798Y-99292542D01*
X121001658Y-99515402D01*
X121263715Y-99690503D01*
X121554896Y-99811114D01*
X121864013Y-99872601D01*
X122179185Y-99872601D01*
X122488302Y-99811114D01*
X122779483Y-99690503D01*
X123041540Y-99515402D01*
X123264400Y-99292542D01*
X123291600Y-99251835D01*
X123318799Y-99292541D01*
X123541659Y-99515401D01*
X123803716Y-99690502D01*
X124094897Y-99811113D01*
X124404014Y-99872600D01*
X124719186Y-99872600D01*
X125028303Y-99811113D01*
X125319484Y-99690502D01*
X125581541Y-99515401D01*
X125804401Y-99292541D01*
X125831600Y-99251836D01*
X125858798Y-99292541D01*
X126081658Y-99515401D01*
X126343715Y-99690502D01*
X126634896Y-99811113D01*
X126944013Y-99872600D01*
X127259185Y-99872600D01*
X127568302Y-99811113D01*
X127859483Y-99690502D01*
X128121540Y-99515401D01*
X128344400Y-99292541D01*
X128371599Y-99251835D01*
X128398798Y-99292541D01*
X128621658Y-99515401D01*
X128883715Y-99690502D01*
X129174896Y-99811113D01*
X129484013Y-99872600D01*
X129799185Y-99872600D01*
X130108302Y-99811113D01*
X130399483Y-99690502D01*
X130661540Y-99515401D01*
X130884400Y-99292541D01*
X130911600Y-99251834D01*
X130938799Y-99292541D01*
X131161659Y-99515401D01*
X131423716Y-99690502D01*
X131714897Y-99811113D01*
X132024014Y-99872600D01*
X132339186Y-99872600D01*
X132648303Y-99811113D01*
X132939484Y-99690502D01*
X133201541Y-99515401D01*
X133424401Y-99292541D01*
X133451601Y-99251834D01*
X133478800Y-99292541D01*
X133701660Y-99515401D01*
X133963717Y-99690502D01*
X134254898Y-99811113D01*
X134564015Y-99872600D01*
X134879187Y-99872600D01*
X135188304Y-99811113D01*
X135479485Y-99690502D01*
X135741542Y-99515401D01*
X135964402Y-99292541D01*
X136139503Y-99030484D01*
X136207258Y-98866910D01*
X136310600Y-99202822D01*
X136534753Y-99618244D01*
X136835644Y-99981954D01*
X137201710Y-100279974D01*
X137618883Y-100500852D01*
X138052549Y-100632400D01*
X138427601Y-100515624D01*
X138427601Y-98376600D01*
X138635601Y-98376600D01*
X138635601Y-100515624D01*
X139010653Y-100632400D01*
X139444319Y-100500852D01*
X139861492Y-100279974D01*
X140227558Y-99981954D01*
X140528449Y-99618244D01*
X140752602Y-99202822D01*
X140891403Y-98751652D01*
X140774790Y-98376600D01*
X138635601Y-98376600D01*
X138427601Y-98376600D01*
X138407601Y-98376600D01*
X138407601Y-98168600D01*
X138427601Y-98168600D01*
X138427601Y-96029576D01*
X138635601Y-96029576D01*
X138635601Y-98168600D01*
X140774790Y-98168600D01*
X140891403Y-97793548D01*
X140752602Y-97342378D01*
X140528449Y-96926956D01*
X140227558Y-96563246D01*
X139861492Y-96265226D01*
X139444319Y-96044348D01*
X139010653Y-95912800D01*
X138635601Y-96029576D01*
X138427601Y-96029576D01*
X138052549Y-95912800D01*
X137618883Y-96044348D01*
X137201710Y-96265226D01*
X136835644Y-96563246D01*
X136534753Y-96926956D01*
X136310600Y-97342378D01*
X136207258Y-97678290D01*
X136139503Y-97514716D01*
X135964402Y-97252659D01*
X135741542Y-97029799D01*
X135479485Y-96854698D01*
X135188304Y-96734087D01*
X134879187Y-96672600D01*
X134564015Y-96672600D01*
X134254898Y-96734087D01*
X133963717Y-96854698D01*
X133701660Y-97029799D01*
X133478800Y-97252659D01*
X133451601Y-97293366D01*
X133424401Y-97252659D01*
X133201541Y-97029799D01*
X132939484Y-96854698D01*
X132648303Y-96734087D01*
X132339186Y-96672600D01*
X132024014Y-96672600D01*
X131714897Y-96734087D01*
X131423716Y-96854698D01*
X131161659Y-97029799D01*
X130938799Y-97252659D01*
X130911600Y-97293366D01*
X130884400Y-97252659D01*
X130661540Y-97029799D01*
X130399483Y-96854698D01*
X130108302Y-96734087D01*
X129799185Y-96672600D01*
X129484013Y-96672600D01*
X129174896Y-96734087D01*
X128883715Y-96854698D01*
X128621658Y-97029799D01*
X128398798Y-97252659D01*
X128371599Y-97293365D01*
X128344400Y-97252659D01*
X128121540Y-97029799D01*
X127859483Y-96854698D01*
X127568302Y-96734087D01*
X127259185Y-96672600D01*
X126944013Y-96672600D01*
X126634896Y-96734087D01*
X126343715Y-96854698D01*
X126081658Y-97029799D01*
X125858798Y-97252659D01*
X125831600Y-97293364D01*
X125804401Y-97252659D01*
X125581541Y-97029799D01*
X125319484Y-96854698D01*
X125028303Y-96734087D01*
X124719186Y-96672600D01*
X124404014Y-96672600D01*
X124094897Y-96734087D01*
X123803716Y-96854698D01*
X123541659Y-97029799D01*
X123318799Y-97252659D01*
X123291599Y-97293366D01*
X123264400Y-97252660D01*
X123041540Y-97029800D01*
X122779483Y-96854699D01*
X122488302Y-96734088D01*
X122179185Y-96672601D01*
X121864013Y-96672601D01*
X121554896Y-96734088D01*
X121263715Y-96854699D01*
X121001658Y-97029800D01*
X120778798Y-97252660D01*
X120689456Y-97386370D01*
X120509841Y-97180478D01*
X120277021Y-97000863D01*
X120013633Y-96870120D01*
X119818407Y-96810903D01*
X119585600Y-96939150D01*
X119377600Y-96939150D01*
X119144793Y-96810903D01*
X118949567Y-96870120D01*
X118686179Y-97000863D01*
X118453359Y-97180478D01*
X118273744Y-97386371D01*
X118184401Y-97252660D01*
X117961541Y-97029800D01*
X117699484Y-96854699D01*
X117408303Y-96734088D01*
X117099186Y-96672601D01*
X116784014Y-96672601D01*
X116474897Y-96734088D01*
X116183716Y-96854699D01*
X115921659Y-97029800D01*
X115698799Y-97252660D01*
X115671600Y-97293366D01*
X115644401Y-97252660D01*
X115421541Y-97029800D01*
X115159484Y-96854699D01*
X114868303Y-96734088D01*
X114559186Y-96672601D01*
X114244014Y-96672601D01*
X113934897Y-96734088D01*
X113643716Y-96854699D01*
X113381659Y-97029800D01*
X113158799Y-97252660D01*
X112983698Y-97514717D01*
X112915944Y-97678290D01*
X112812602Y-97342378D01*
X112588449Y-96926956D01*
X112287558Y-96563246D01*
X111921492Y-96265226D01*
X111504319Y-96044348D01*
X111070653Y-95912800D01*
X110695601Y-96029576D01*
X110487601Y-96029576D01*
X110112549Y-95912800D01*
X109678883Y-96044348D01*
X109261710Y-96265226D01*
X108895644Y-96563246D01*
X108594753Y-96926956D01*
X108370600Y-97342378D01*
X108231799Y-97793548D01*
X106602900Y-97793548D01*
X106602900Y-91515300D01*
X145600955Y-91515300D01*
X145613505Y-91642722D01*
X145650673Y-91765248D01*
X145711030Y-91878168D01*
X145792257Y-91977143D01*
X145891232Y-92058370D01*
X146004152Y-92118727D01*
X146126678Y-92155895D01*
X146254100Y-92168445D01*
X146837600Y-92165300D01*
X147000100Y-92002800D01*
X147000100Y-90769300D01*
X145766600Y-90769300D01*
X145604100Y-90931800D01*
X145600955Y-91515300D01*
X106602900Y-91515300D01*
X106602900Y-89815300D01*
X145600955Y-89815300D01*
X145604100Y-90398800D01*
X145766600Y-90561300D01*
X147000100Y-90561300D01*
X147000100Y-89327800D01*
X146837600Y-89165300D01*
X146254100Y-89162155D01*
X146126678Y-89174705D01*
X146004152Y-89211873D01*
X145891232Y-89272230D01*
X145792257Y-89353457D01*
X145711030Y-89452432D01*
X145650673Y-89565352D01*
X145613505Y-89687878D01*
X145600955Y-89815300D01*
X106602900Y-89815300D01*
X106602900Y-85432638D01*
X144284100Y-85432638D01*
X144284100Y-85737962D01*
X144343665Y-86037418D01*
X144460508Y-86319500D01*
X144630136Y-86573368D01*
X144846032Y-86789264D01*
X145099900Y-86958892D01*
X145381982Y-87075735D01*
X145681438Y-87135300D01*
X145986762Y-87135300D01*
X146286218Y-87075735D01*
X146568300Y-86958892D01*
X146822168Y-86789264D01*
X147038064Y-86573368D01*
X147207692Y-86319500D01*
X147324535Y-86037418D01*
X147384100Y-85737962D01*
X147384100Y-85432638D01*
X147324535Y-85133182D01*
X147207692Y-84851100D01*
X147038064Y-84597232D01*
X146822168Y-84381336D01*
X146568300Y-84211708D01*
X146286218Y-84094865D01*
X145986762Y-84035300D01*
X145681438Y-84035300D01*
X145381982Y-84094865D01*
X145099900Y-84211708D01*
X144846032Y-84381336D01*
X144630136Y-84597232D01*
X144460508Y-84851100D01*
X144343665Y-85133182D01*
X144284100Y-85432638D01*
X106602900Y-85432638D01*
X106602900Y-83511653D01*
X108231799Y-83511653D01*
X108370600Y-83962823D01*
X108594753Y-84378245D01*
X108895644Y-84741955D01*
X109261710Y-85039975D01*
X109678883Y-85260853D01*
X110112549Y-85392401D01*
X110487601Y-85275625D01*
X110487601Y-83136601D01*
X110695601Y-83136601D01*
X110695601Y-85275625D01*
X111070653Y-85392401D01*
X111504319Y-85260853D01*
X111921492Y-85039975D01*
X112287558Y-84741955D01*
X112588449Y-84378245D01*
X112812602Y-83962823D01*
X112951403Y-83511653D01*
X112834790Y-83136601D01*
X110695601Y-83136601D01*
X110487601Y-83136601D01*
X108348412Y-83136601D01*
X108231799Y-83511653D01*
X106602900Y-83511653D01*
X106602900Y-82553549D01*
X108231799Y-82553549D01*
X108348412Y-82928601D01*
X110487601Y-82928601D01*
X110487601Y-80789577D01*
X110695601Y-80789577D01*
X110695601Y-82928601D01*
X112834790Y-82928601D01*
X112851450Y-82875016D01*
X117881600Y-82875016D01*
X117881600Y-83190188D01*
X117943087Y-83499305D01*
X118063698Y-83790486D01*
X118238799Y-84052543D01*
X118461659Y-84275403D01*
X118723716Y-84450504D01*
X119014897Y-84571115D01*
X119324014Y-84632602D01*
X119639186Y-84632602D01*
X119948303Y-84571115D01*
X120239484Y-84450504D01*
X120501541Y-84275403D01*
X120724401Y-84052543D01*
X120751600Y-84011838D01*
X120778798Y-84052543D01*
X121001658Y-84275403D01*
X121263715Y-84450504D01*
X121554896Y-84571115D01*
X121864013Y-84632602D01*
X122179185Y-84632602D01*
X122488302Y-84571115D01*
X122779483Y-84450504D01*
X123041540Y-84275403D01*
X123264400Y-84052543D01*
X123291600Y-84011836D01*
X123318799Y-84052542D01*
X123541659Y-84275402D01*
X123803716Y-84450503D01*
X124094897Y-84571114D01*
X124404014Y-84632601D01*
X124719186Y-84632601D01*
X125028303Y-84571114D01*
X125319484Y-84450503D01*
X125581541Y-84275402D01*
X125804401Y-84052542D01*
X125831600Y-84011837D01*
X125858798Y-84052542D01*
X126081658Y-84275402D01*
X126343715Y-84450503D01*
X126634896Y-84571114D01*
X126944013Y-84632601D01*
X127259185Y-84632601D01*
X127568302Y-84571114D01*
X127859483Y-84450503D01*
X128121540Y-84275402D01*
X128344400Y-84052542D01*
X128371599Y-84011836D01*
X128398798Y-84052542D01*
X128621658Y-84275402D01*
X128883715Y-84450503D01*
X129174896Y-84571114D01*
X129484013Y-84632601D01*
X129799185Y-84632601D01*
X130108302Y-84571114D01*
X130399483Y-84450503D01*
X130661540Y-84275402D01*
X130884400Y-84052542D01*
X131059501Y-83790485D01*
X131174996Y-83511653D01*
X136171799Y-83511653D01*
X136310600Y-83962823D01*
X136534753Y-84378245D01*
X136835644Y-84741955D01*
X137201710Y-85039975D01*
X137618883Y-85260853D01*
X138052549Y-85392401D01*
X138427601Y-85275625D01*
X138427601Y-83136601D01*
X138635601Y-83136601D01*
X138635601Y-85275625D01*
X139010653Y-85392401D01*
X139444319Y-85260853D01*
X139861492Y-85039975D01*
X140227558Y-84741955D01*
X140528449Y-84378245D01*
X140752602Y-83962823D01*
X140891403Y-83511653D01*
X140774790Y-83136601D01*
X138635601Y-83136601D01*
X138427601Y-83136601D01*
X136288412Y-83136601D01*
X136171799Y-83511653D01*
X131174996Y-83511653D01*
X131180112Y-83499304D01*
X131241599Y-83190187D01*
X131241599Y-82875015D01*
X131180112Y-82565898D01*
X131174997Y-82553549D01*
X136171799Y-82553549D01*
X136288412Y-82928601D01*
X138427601Y-82928601D01*
X138427601Y-80789577D01*
X138635601Y-80789577D01*
X138635601Y-82928601D01*
X140774790Y-82928601D01*
X140891403Y-82553549D01*
X140752602Y-82102379D01*
X140528449Y-81686957D01*
X140227558Y-81323247D01*
X139861492Y-81025227D01*
X139444319Y-80804349D01*
X139010653Y-80672801D01*
X138635601Y-80789577D01*
X138427601Y-80789577D01*
X138052549Y-80672801D01*
X137618883Y-80804349D01*
X137201710Y-81025227D01*
X136835644Y-81323247D01*
X136534753Y-81686957D01*
X136310600Y-82102379D01*
X136171799Y-82553549D01*
X131174997Y-82553549D01*
X131059501Y-82274717D01*
X130884400Y-82012660D01*
X130661540Y-81789800D01*
X130399483Y-81614699D01*
X130108302Y-81494088D01*
X129799185Y-81432601D01*
X129484013Y-81432601D01*
X129174896Y-81494088D01*
X128883715Y-81614699D01*
X128621658Y-81789800D01*
X128398798Y-82012660D01*
X128371599Y-82053366D01*
X128344400Y-82012660D01*
X128121540Y-81789800D01*
X127859483Y-81614699D01*
X127568302Y-81494088D01*
X127259185Y-81432601D01*
X126944013Y-81432601D01*
X126634896Y-81494088D01*
X126343715Y-81614699D01*
X126081658Y-81789800D01*
X125858798Y-82012660D01*
X125831600Y-82053365D01*
X125804401Y-82012660D01*
X125581541Y-81789800D01*
X125319484Y-81614699D01*
X125028303Y-81494088D01*
X124719186Y-81432601D01*
X124404014Y-81432601D01*
X124094897Y-81494088D01*
X123803716Y-81614699D01*
X123541659Y-81789800D01*
X123318799Y-82012660D01*
X123291599Y-82053367D01*
X123264400Y-82012661D01*
X123041540Y-81789801D01*
X122779483Y-81614700D01*
X122488302Y-81494089D01*
X122179185Y-81432602D01*
X121864013Y-81432602D01*
X121554896Y-81494089D01*
X121263715Y-81614700D01*
X121001658Y-81789801D01*
X120778798Y-82012661D01*
X120751600Y-82053366D01*
X120724401Y-82012661D01*
X120501541Y-81789801D01*
X120239484Y-81614700D01*
X119948303Y-81494089D01*
X119639186Y-81432602D01*
X119324014Y-81432602D01*
X119014897Y-81494089D01*
X118723716Y-81614700D01*
X118461659Y-81789801D01*
X118238799Y-82012661D01*
X118063698Y-82274718D01*
X117943087Y-82565899D01*
X117881600Y-82875016D01*
X112851450Y-82875016D01*
X112951403Y-82553549D01*
X112812602Y-82102379D01*
X112588449Y-81686957D01*
X112287558Y-81323247D01*
X111921492Y-81025227D01*
X111504319Y-80804349D01*
X111070653Y-80672801D01*
X110695601Y-80789577D01*
X110487601Y-80789577D01*
X110112549Y-80672801D01*
X109678883Y-80804349D01*
X109261710Y-81025227D01*
X108895644Y-81323247D01*
X108594753Y-81686957D01*
X108370600Y-82102379D01*
X108231799Y-82553549D01*
X106602900Y-82553549D01*
X106602900Y-77171374D01*
X112165700Y-77171374D01*
X112165700Y-77489226D01*
X112227709Y-77800970D01*
X112349346Y-78094626D01*
X112525935Y-78358910D01*
X112750690Y-78583665D01*
X113014974Y-78760254D01*
X113308630Y-78881891D01*
X113620374Y-78943900D01*
X113938226Y-78943900D01*
X114249970Y-78881891D01*
X114543626Y-78760254D01*
X114807910Y-78583665D01*
X115032665Y-78358910D01*
X115049300Y-78334014D01*
X115065935Y-78358910D01*
X115290690Y-78583665D01*
X115554974Y-78760254D01*
X115848630Y-78881891D01*
X116160374Y-78943900D01*
X116478226Y-78943900D01*
X116789970Y-78881891D01*
X117083626Y-78760254D01*
X117347910Y-78583665D01*
X117572665Y-78358910D01*
X117589300Y-78334014D01*
X117605935Y-78358910D01*
X117830690Y-78583665D01*
X118094974Y-78760254D01*
X118388630Y-78881891D01*
X118700374Y-78943900D01*
X119018226Y-78943900D01*
X119329970Y-78881891D01*
X119623626Y-78760254D01*
X119887910Y-78583665D01*
X120112665Y-78358910D01*
X120195133Y-78235487D01*
X120297922Y-78368552D01*
X120521638Y-78563470D01*
X120779082Y-78710998D01*
X121060360Y-78805467D01*
X121295300Y-78677827D01*
X121295300Y-77434300D01*
X121275300Y-77434300D01*
X121275300Y-77226300D01*
X121295300Y-77226300D01*
X121295300Y-75982773D01*
X121503300Y-75982773D01*
X121503300Y-77226300D01*
X121523300Y-77226300D01*
X121523300Y-77434300D01*
X121503300Y-77434300D01*
X121503300Y-78677827D01*
X121738240Y-78805467D01*
X122019518Y-78710998D01*
X122276962Y-78563470D01*
X122500678Y-78368552D01*
X122603467Y-78235487D01*
X122685935Y-78358910D01*
X122910690Y-78583665D01*
X123174974Y-78760254D01*
X123468630Y-78881891D01*
X123780374Y-78943900D01*
X124098226Y-78943900D01*
X124409970Y-78881891D01*
X124703626Y-78760254D01*
X124967910Y-78583665D01*
X125192665Y-78358910D01*
X125209300Y-78334014D01*
X125225935Y-78358910D01*
X125450690Y-78583665D01*
X125714974Y-78760254D01*
X126008630Y-78881891D01*
X126320374Y-78943900D01*
X126638226Y-78943900D01*
X126949970Y-78881891D01*
X127243626Y-78760254D01*
X127507910Y-78583665D01*
X127732665Y-78358910D01*
X127749300Y-78334014D01*
X127765935Y-78358910D01*
X127990690Y-78583665D01*
X128254974Y-78760254D01*
X128548630Y-78881891D01*
X128860374Y-78943900D01*
X129178226Y-78943900D01*
X129489970Y-78881891D01*
X129783626Y-78760254D01*
X130047910Y-78583665D01*
X130272665Y-78358910D01*
X130289300Y-78334014D01*
X130305935Y-78358910D01*
X130530690Y-78583665D01*
X130794974Y-78760254D01*
X131088630Y-78881891D01*
X131400374Y-78943900D01*
X131718226Y-78943900D01*
X132029970Y-78881891D01*
X132323626Y-78760254D01*
X132587910Y-78583665D01*
X132812665Y-78358910D01*
X132829300Y-78334014D01*
X132845935Y-78358910D01*
X133070690Y-78583665D01*
X133334974Y-78760254D01*
X133628630Y-78881891D01*
X133940374Y-78943900D01*
X134258226Y-78943900D01*
X134569970Y-78881891D01*
X134863626Y-78760254D01*
X135127910Y-78583665D01*
X135352665Y-78358910D01*
X135369300Y-78334014D01*
X135385935Y-78358910D01*
X135610690Y-78583665D01*
X135874974Y-78760254D01*
X136168630Y-78881891D01*
X136480374Y-78943900D01*
X136798226Y-78943900D01*
X137109970Y-78881891D01*
X137403626Y-78760254D01*
X137667910Y-78583665D01*
X137892665Y-78358910D01*
X138069254Y-78094626D01*
X138190891Y-77800970D01*
X138252900Y-77489226D01*
X138252900Y-77171374D01*
X139089700Y-77171374D01*
X139089700Y-77489226D01*
X139151709Y-77800970D01*
X139273346Y-78094626D01*
X139449935Y-78358910D01*
X139674690Y-78583665D01*
X139938974Y-78760254D01*
X140232630Y-78881891D01*
X140544374Y-78943900D01*
X140862226Y-78943900D01*
X141173970Y-78881891D01*
X141467626Y-78760254D01*
X141731910Y-78583665D01*
X141956665Y-78358910D01*
X141973300Y-78334014D01*
X141989935Y-78358910D01*
X142214690Y-78583665D01*
X142478974Y-78760254D01*
X142772630Y-78881891D01*
X143084374Y-78943900D01*
X143402226Y-78943900D01*
X143713970Y-78881891D01*
X144007626Y-78760254D01*
X144271910Y-78583665D01*
X144496665Y-78358910D01*
X144513300Y-78334014D01*
X144529935Y-78358910D01*
X144754690Y-78583665D01*
X145018974Y-78760254D01*
X145312630Y-78881891D01*
X145624374Y-78943900D01*
X145942226Y-78943900D01*
X146253970Y-78881891D01*
X146547626Y-78760254D01*
X146811910Y-78583665D01*
X147036665Y-78358910D01*
X147053300Y-78334014D01*
X147069935Y-78358910D01*
X147294690Y-78583665D01*
X147558974Y-78760254D01*
X147852630Y-78881891D01*
X148164374Y-78943900D01*
X148482226Y-78943900D01*
X148793970Y-78881891D01*
X149087626Y-78760254D01*
X149351910Y-78583665D01*
X149576665Y-78358910D01*
X149593300Y-78334014D01*
X149609935Y-78358910D01*
X149834690Y-78583665D01*
X150098974Y-78760254D01*
X150392630Y-78881891D01*
X150704374Y-78943900D01*
X151022226Y-78943900D01*
X151333970Y-78881891D01*
X151627626Y-78760254D01*
X151891910Y-78583665D01*
X152116665Y-78358910D01*
X152133300Y-78334014D01*
X152149935Y-78358910D01*
X152374690Y-78583665D01*
X152638974Y-78760254D01*
X152932630Y-78881891D01*
X153244374Y-78943900D01*
X153562226Y-78943900D01*
X153873970Y-78881891D01*
X154167626Y-78760254D01*
X154431910Y-78583665D01*
X154656665Y-78358910D01*
X154673300Y-78334014D01*
X154689935Y-78358910D01*
X154914690Y-78583665D01*
X155178974Y-78760254D01*
X155472630Y-78881891D01*
X155784374Y-78943900D01*
X156102226Y-78943900D01*
X156413970Y-78881891D01*
X156707626Y-78760254D01*
X156971910Y-78583665D01*
X157196665Y-78358910D01*
X157213300Y-78334014D01*
X157229935Y-78358910D01*
X157454690Y-78583665D01*
X157718974Y-78760254D01*
X158012630Y-78881891D01*
X158324374Y-78943900D01*
X158642226Y-78943900D01*
X158953970Y-78881891D01*
X159247626Y-78760254D01*
X159511910Y-78583665D01*
X159736665Y-78358910D01*
X159913254Y-78094626D01*
X160034891Y-77800970D01*
X160096900Y-77489226D01*
X160096900Y-77171374D01*
X161949700Y-77171374D01*
X161949700Y-77489226D01*
X162011709Y-77800970D01*
X162133346Y-78094626D01*
X162309935Y-78358910D01*
X162534690Y-78583665D01*
X162798974Y-78760254D01*
X163092630Y-78881891D01*
X163404374Y-78943900D01*
X163722226Y-78943900D01*
X164033970Y-78881891D01*
X164327626Y-78760254D01*
X164591910Y-78583665D01*
X164816665Y-78358910D01*
X164833300Y-78334014D01*
X164849935Y-78358910D01*
X165074690Y-78583665D01*
X165338974Y-78760254D01*
X165632630Y-78881891D01*
X165944374Y-78943900D01*
X166262226Y-78943900D01*
X166573970Y-78881891D01*
X166867626Y-78760254D01*
X167131910Y-78583665D01*
X167356665Y-78358910D01*
X167373300Y-78334014D01*
X167389935Y-78358910D01*
X167614690Y-78583665D01*
X167878974Y-78760254D01*
X168172630Y-78881891D01*
X168484374Y-78943900D01*
X168802226Y-78943900D01*
X169113970Y-78881891D01*
X169407626Y-78760254D01*
X169671910Y-78583665D01*
X169896665Y-78358910D01*
X169913300Y-78334014D01*
X169929935Y-78358910D01*
X170154690Y-78583665D01*
X170418974Y-78760254D01*
X170712630Y-78881891D01*
X171024374Y-78943900D01*
X171342226Y-78943900D01*
X171653970Y-78881891D01*
X171947626Y-78760254D01*
X172211910Y-78583665D01*
X172436665Y-78358910D01*
X172453300Y-78334014D01*
X172469935Y-78358910D01*
X172694690Y-78583665D01*
X172958974Y-78760254D01*
X173252630Y-78881891D01*
X173564374Y-78943900D01*
X173882226Y-78943900D01*
X174193970Y-78881891D01*
X174487626Y-78760254D01*
X174751910Y-78583665D01*
X174976665Y-78358910D01*
X174993300Y-78334014D01*
X175009935Y-78358910D01*
X175234690Y-78583665D01*
X175498974Y-78760254D01*
X175792630Y-78881891D01*
X176104374Y-78943900D01*
X176422226Y-78943900D01*
X176733970Y-78881891D01*
X177027626Y-78760254D01*
X177291910Y-78583665D01*
X177516665Y-78358910D01*
X177533300Y-78334014D01*
X177549935Y-78358910D01*
X177774690Y-78583665D01*
X178038974Y-78760254D01*
X178332630Y-78881891D01*
X178644374Y-78943900D01*
X178962226Y-78943900D01*
X179273970Y-78881891D01*
X179567626Y-78760254D01*
X179831910Y-78583665D01*
X180056665Y-78358910D01*
X180073300Y-78334014D01*
X180089935Y-78358910D01*
X180314690Y-78583665D01*
X180578974Y-78760254D01*
X180872630Y-78881891D01*
X181184374Y-78943900D01*
X181502226Y-78943900D01*
X181813970Y-78881891D01*
X182107626Y-78760254D01*
X182371910Y-78583665D01*
X182596665Y-78358910D01*
X182773254Y-78094626D01*
X182894891Y-77800970D01*
X182956900Y-77489226D01*
X182956900Y-77171374D01*
X182894891Y-76859630D01*
X182773254Y-76565974D01*
X182596665Y-76301690D01*
X182371910Y-76076935D01*
X182107626Y-75900346D01*
X181813970Y-75778709D01*
X181502226Y-75716700D01*
X181184374Y-75716700D01*
X180872630Y-75778709D01*
X180578974Y-75900346D01*
X180314690Y-76076935D01*
X180089935Y-76301690D01*
X180073300Y-76326586D01*
X180056665Y-76301690D01*
X179831910Y-76076935D01*
X179567626Y-75900346D01*
X179273970Y-75778709D01*
X178962226Y-75716700D01*
X178644374Y-75716700D01*
X178332630Y-75778709D01*
X178038974Y-75900346D01*
X177774690Y-76076935D01*
X177549935Y-76301690D01*
X177533300Y-76326586D01*
X177516665Y-76301690D01*
X177291910Y-76076935D01*
X177027626Y-75900346D01*
X176733970Y-75778709D01*
X176422226Y-75716700D01*
X176104374Y-75716700D01*
X175792630Y-75778709D01*
X175498974Y-75900346D01*
X175234690Y-76076935D01*
X175009935Y-76301690D01*
X174993300Y-76326586D01*
X174976665Y-76301690D01*
X174751910Y-76076935D01*
X174487626Y-75900346D01*
X174193970Y-75778709D01*
X173882226Y-75716700D01*
X173564374Y-75716700D01*
X173252630Y-75778709D01*
X172958974Y-75900346D01*
X172694690Y-76076935D01*
X172469935Y-76301690D01*
X172453300Y-76326586D01*
X172436665Y-76301690D01*
X172211910Y-76076935D01*
X171947626Y-75900346D01*
X171653970Y-75778709D01*
X171342226Y-75716700D01*
X171024374Y-75716700D01*
X170712630Y-75778709D01*
X170418974Y-75900346D01*
X170154690Y-76076935D01*
X169929935Y-76301690D01*
X169913300Y-76326586D01*
X169896665Y-76301690D01*
X169671910Y-76076935D01*
X169407626Y-75900346D01*
X169113970Y-75778709D01*
X168802226Y-75716700D01*
X168484374Y-75716700D01*
X168172630Y-75778709D01*
X167878974Y-75900346D01*
X167614690Y-76076935D01*
X167389935Y-76301690D01*
X167373300Y-76326586D01*
X167356665Y-76301690D01*
X167131910Y-76076935D01*
X166867626Y-75900346D01*
X166573970Y-75778709D01*
X166262226Y-75716700D01*
X165944374Y-75716700D01*
X165632630Y-75778709D01*
X165338974Y-75900346D01*
X165074690Y-76076935D01*
X164849935Y-76301690D01*
X164833300Y-76326586D01*
X164816665Y-76301690D01*
X164591910Y-76076935D01*
X164327626Y-75900346D01*
X164033970Y-75778709D01*
X163722226Y-75716700D01*
X163404374Y-75716700D01*
X163092630Y-75778709D01*
X162798974Y-75900346D01*
X162534690Y-76076935D01*
X162309935Y-76301690D01*
X162133346Y-76565974D01*
X162011709Y-76859630D01*
X161949700Y-77171374D01*
X160096900Y-77171374D01*
X160034891Y-76859630D01*
X159913254Y-76565974D01*
X159736665Y-76301690D01*
X159511910Y-76076935D01*
X159247626Y-75900346D01*
X158953970Y-75778709D01*
X158642226Y-75716700D01*
X158324374Y-75716700D01*
X158012630Y-75778709D01*
X157718974Y-75900346D01*
X157454690Y-76076935D01*
X157229935Y-76301690D01*
X157213300Y-76326586D01*
X157196665Y-76301690D01*
X156971910Y-76076935D01*
X156707626Y-75900346D01*
X156413970Y-75778709D01*
X156102226Y-75716700D01*
X155784374Y-75716700D01*
X155472630Y-75778709D01*
X155178974Y-75900346D01*
X154914690Y-76076935D01*
X154689935Y-76301690D01*
X154673300Y-76326586D01*
X154656665Y-76301690D01*
X154431910Y-76076935D01*
X154167626Y-75900346D01*
X153873970Y-75778709D01*
X153562226Y-75716700D01*
X153244374Y-75716700D01*
X152932630Y-75778709D01*
X152638974Y-75900346D01*
X152374690Y-76076935D01*
X152149935Y-76301690D01*
X152133300Y-76326586D01*
X152116665Y-76301690D01*
X151891910Y-76076935D01*
X151627626Y-75900346D01*
X151333970Y-75778709D01*
X151022226Y-75716700D01*
X150704374Y-75716700D01*
X150392630Y-75778709D01*
X150098974Y-75900346D01*
X149834690Y-76076935D01*
X149609935Y-76301690D01*
X149593300Y-76326586D01*
X149576665Y-76301690D01*
X149351910Y-76076935D01*
X149087626Y-75900346D01*
X148793970Y-75778709D01*
X148482226Y-75716700D01*
X148164374Y-75716700D01*
X147852630Y-75778709D01*
X147558974Y-75900346D01*
X147294690Y-76076935D01*
X147069935Y-76301690D01*
X147053300Y-76326586D01*
X147036665Y-76301690D01*
X146811910Y-76076935D01*
X146547626Y-75900346D01*
X146253970Y-75778709D01*
X145942226Y-75716700D01*
X145624374Y-75716700D01*
X145312630Y-75778709D01*
X145018974Y-75900346D01*
X144754690Y-76076935D01*
X144529935Y-76301690D01*
X144513300Y-76326586D01*
X144496665Y-76301690D01*
X144271910Y-76076935D01*
X144007626Y-75900346D01*
X143713970Y-75778709D01*
X143402226Y-75716700D01*
X143084374Y-75716700D01*
X142772630Y-75778709D01*
X142478974Y-75900346D01*
X142214690Y-76076935D01*
X141989935Y-76301690D01*
X141973300Y-76326586D01*
X141956665Y-76301690D01*
X141731910Y-76076935D01*
X141467626Y-75900346D01*
X141173970Y-75778709D01*
X140862226Y-75716700D01*
X140544374Y-75716700D01*
X140232630Y-75778709D01*
X139938974Y-75900346D01*
X139674690Y-76076935D01*
X139449935Y-76301690D01*
X139273346Y-76565974D01*
X139151709Y-76859630D01*
X139089700Y-77171374D01*
X138252900Y-77171374D01*
X138190891Y-76859630D01*
X138069254Y-76565974D01*
X137892665Y-76301690D01*
X137667910Y-76076935D01*
X137403626Y-75900346D01*
X137109970Y-75778709D01*
X136798226Y-75716700D01*
X136480374Y-75716700D01*
X136168630Y-75778709D01*
X135874974Y-75900346D01*
X135610690Y-76076935D01*
X135385935Y-76301690D01*
X135369300Y-76326586D01*
X135352665Y-76301690D01*
X135127910Y-76076935D01*
X134863626Y-75900346D01*
X134569970Y-75778709D01*
X134258226Y-75716700D01*
X133940374Y-75716700D01*
X133628630Y-75778709D01*
X133334974Y-75900346D01*
X133070690Y-76076935D01*
X132845935Y-76301690D01*
X132829300Y-76326586D01*
X132812665Y-76301690D01*
X132587910Y-76076935D01*
X132323626Y-75900346D01*
X132029970Y-75778709D01*
X131718226Y-75716700D01*
X131400374Y-75716700D01*
X131088630Y-75778709D01*
X130794974Y-75900346D01*
X130530690Y-76076935D01*
X130305935Y-76301690D01*
X130289300Y-76326586D01*
X130272665Y-76301690D01*
X130047910Y-76076935D01*
X129783626Y-75900346D01*
X129489970Y-75778709D01*
X129178226Y-75716700D01*
X128860374Y-75716700D01*
X128548630Y-75778709D01*
X128254974Y-75900346D01*
X127990690Y-76076935D01*
X127765935Y-76301690D01*
X127749300Y-76326586D01*
X127732665Y-76301690D01*
X127507910Y-76076935D01*
X127243626Y-75900346D01*
X126949970Y-75778709D01*
X126638226Y-75716700D01*
X126320374Y-75716700D01*
X126008630Y-75778709D01*
X125714974Y-75900346D01*
X125450690Y-76076935D01*
X125225935Y-76301690D01*
X125209300Y-76326586D01*
X125192665Y-76301690D01*
X124967910Y-76076935D01*
X124703626Y-75900346D01*
X124409970Y-75778709D01*
X124098226Y-75716700D01*
X123780374Y-75716700D01*
X123468630Y-75778709D01*
X123174974Y-75900346D01*
X122910690Y-76076935D01*
X122685935Y-76301690D01*
X122603467Y-76425113D01*
X122500678Y-76292048D01*
X122276962Y-76097130D01*
X122019518Y-75949602D01*
X121738240Y-75855133D01*
X121503300Y-75982773D01*
X121295300Y-75982773D01*
X121060360Y-75855133D01*
X120779082Y-75949602D01*
X120521638Y-76097130D01*
X120297922Y-76292048D01*
X120195133Y-76425113D01*
X120112665Y-76301690D01*
X119887910Y-76076935D01*
X119623626Y-75900346D01*
X119329970Y-75778709D01*
X119018226Y-75716700D01*
X118700374Y-75716700D01*
X118388630Y-75778709D01*
X118094974Y-75900346D01*
X117830690Y-76076935D01*
X117605935Y-76301690D01*
X117589300Y-76326586D01*
X117572665Y-76301690D01*
X117347910Y-76076935D01*
X117083626Y-75900346D01*
X116789970Y-75778709D01*
X116478226Y-75716700D01*
X116160374Y-75716700D01*
X115848630Y-75778709D01*
X115554974Y-75900346D01*
X115290690Y-76076935D01*
X115065935Y-76301690D01*
X115049300Y-76326586D01*
X115032665Y-76301690D01*
X114807910Y-76076935D01*
X114543626Y-75900346D01*
X114249970Y-75778709D01*
X113938226Y-75716700D01*
X113620374Y-75716700D01*
X113308630Y-75778709D01*
X113014974Y-75900346D01*
X112750690Y-76076935D01*
X112525935Y-76301690D01*
X112349346Y-76565974D01*
X112227709Y-76859630D01*
X112165700Y-77171374D01*
X106602900Y-77171374D01*
X106602900Y-75665700D01*
X216980400Y-75665700D01*
X216980401Y-127254900D01*
%TA.AperFunction,Conductor*%
D19*
G36*
X216980401Y-127254900D02*
G01*
X108774600Y-127254900D01*
X108774600Y-118271425D01*
X113324499Y-118271425D01*
X113463300Y-118722595D01*
X113687453Y-119138017D01*
X113988344Y-119501727D01*
X114354410Y-119799747D01*
X114771583Y-120020625D01*
X115205249Y-120152173D01*
X115580301Y-120035397D01*
X115580301Y-117896373D01*
X115788301Y-117896373D01*
X115788301Y-120035397D01*
X116163353Y-120152173D01*
X116597019Y-120020625D01*
X117014192Y-119799747D01*
X117380258Y-119501727D01*
X117681149Y-119138017D01*
X117905302Y-118722595D01*
X118044103Y-118271425D01*
X128564498Y-118271425D01*
X128703299Y-118722595D01*
X128927452Y-119138017D01*
X129228343Y-119501727D01*
X129594409Y-119799747D01*
X130011582Y-120020625D01*
X130445248Y-120152173D01*
X130820300Y-120035397D01*
X130820300Y-117896373D01*
X131028300Y-117896373D01*
X131028300Y-120035397D01*
X131403352Y-120152173D01*
X131837018Y-120020625D01*
X132254191Y-119799747D01*
X132620257Y-119501727D01*
X132921148Y-119138017D01*
X133145301Y-118722595D01*
X133284102Y-118271425D01*
X133167489Y-117896373D01*
X131028300Y-117896373D01*
X130820300Y-117896373D01*
X128681111Y-117896373D01*
X128564498Y-118271425D01*
X118044103Y-118271425D01*
X117927490Y-117896373D01*
X115788301Y-117896373D01*
X115580301Y-117896373D01*
X113441112Y-117896373D01*
X113324499Y-118271425D01*
X108774600Y-118271425D01*
X108774600Y-117313321D01*
X113324499Y-117313321D01*
X113441112Y-117688373D01*
X115580301Y-117688373D01*
X115580301Y-115549349D01*
X115788301Y-115549349D01*
X115788301Y-117688373D01*
X117927490Y-117688373D01*
X118044103Y-117313321D01*
X128564498Y-117313321D01*
X128681111Y-117688373D01*
X130820300Y-117688373D01*
X130820300Y-115549349D01*
X131028300Y-115549349D01*
X131028300Y-117688373D01*
X133167489Y-117688373D01*
X133284102Y-117313321D01*
X133145301Y-116862151D01*
X132921148Y-116446729D01*
X132620257Y-116083019D01*
X132254191Y-115784999D01*
X131837018Y-115564121D01*
X131403352Y-115432573D01*
X131028300Y-115549349D01*
X130820300Y-115549349D01*
X130445248Y-115432573D01*
X130011582Y-115564121D01*
X129594409Y-115784999D01*
X129228343Y-116083019D01*
X128927452Y-116446729D01*
X128703299Y-116862151D01*
X128564498Y-117313321D01*
X118044103Y-117313321D01*
X117905302Y-116862151D01*
X117681149Y-116446729D01*
X117380258Y-116083019D01*
X117014192Y-115784999D01*
X116597019Y-115564121D01*
X116163353Y-115432573D01*
X115788301Y-115549349D01*
X115580301Y-115549349D01*
X115205249Y-115432573D01*
X114771583Y-115564121D01*
X114354410Y-115784999D01*
X113988344Y-116083019D01*
X113687453Y-116446729D01*
X113463300Y-116862151D01*
X113324499Y-117313321D01*
X108774600Y-117313321D01*
X108774600Y-113122548D01*
X108778712Y-113080800D01*
X108762300Y-112914171D01*
X108713697Y-112753945D01*
X108634768Y-112606281D01*
X108528548Y-112476852D01*
X108399119Y-112370632D01*
X108251455Y-112291703D01*
X108091229Y-112243100D01*
X107966349Y-112230800D01*
X107966348Y-112230800D01*
X107924600Y-112226688D01*
X107882851Y-112230800D01*
X106602900Y-112230800D01*
X106602900Y-104934914D01*
X112814300Y-104934914D01*
X112814300Y-105250086D01*
X112875787Y-105559203D01*
X112996398Y-105850384D01*
X113171499Y-106112441D01*
X113394359Y-106335301D01*
X113656416Y-106510402D01*
X113947597Y-106631013D01*
X114256714Y-106692500D01*
X114571886Y-106692500D01*
X114881003Y-106631013D01*
X115172184Y-106510402D01*
X115434241Y-106335301D01*
X115657101Y-106112441D01*
X115684301Y-106071734D01*
X115711500Y-106112441D01*
X115934360Y-106335301D01*
X116196417Y-106510402D01*
X116487598Y-106631013D01*
X116796715Y-106692500D01*
X117111887Y-106692500D01*
X117421004Y-106631013D01*
X117712185Y-106510402D01*
X117974242Y-106335301D01*
X118197102Y-106112441D01*
X118286445Y-105978730D01*
X118466060Y-106184623D01*
X118698880Y-106364238D01*
X118962268Y-106494981D01*
X119157494Y-106554198D01*
X119390301Y-106425951D01*
X119390301Y-105196500D01*
X119370301Y-105196500D01*
X119370301Y-104988500D01*
X119390301Y-104988500D01*
X119390301Y-103759049D01*
X119598301Y-103759049D01*
X119598301Y-104988500D01*
X119618301Y-104988500D01*
X119618301Y-105196500D01*
X119598301Y-105196500D01*
X119598301Y-106425951D01*
X119831108Y-106554198D01*
X120026334Y-106494981D01*
X120289722Y-106364238D01*
X120522542Y-106184623D01*
X120702157Y-105978731D01*
X120791499Y-106112441D01*
X121014359Y-106335301D01*
X121276416Y-106510402D01*
X121567597Y-106631013D01*
X121876714Y-106692500D01*
X122191886Y-106692500D01*
X122501003Y-106631013D01*
X122792184Y-106510402D01*
X123054241Y-106335301D01*
X123277101Y-106112441D01*
X123304301Y-106071734D01*
X123331500Y-106112440D01*
X123554360Y-106335300D01*
X123816417Y-106510401D01*
X124107598Y-106631012D01*
X124416715Y-106692499D01*
X124731887Y-106692499D01*
X125041004Y-106631012D01*
X125332185Y-106510401D01*
X125594242Y-106335300D01*
X125817102Y-106112440D01*
X125906444Y-105978730D01*
X126086059Y-106184622D01*
X126318879Y-106364237D01*
X126582267Y-106494980D01*
X126777493Y-106554197D01*
X127010300Y-106425950D01*
X127010300Y-105196499D01*
X126990300Y-105196499D01*
X126990300Y-104988499D01*
X127010300Y-104988499D01*
X127010300Y-103759048D01*
X126777493Y-103630801D01*
X126582267Y-103690018D01*
X126318879Y-103820761D01*
X126086059Y-104000376D01*
X125906444Y-104206268D01*
X125817102Y-104072558D01*
X125594242Y-103849698D01*
X125332185Y-103674597D01*
X125041004Y-103553986D01*
X124731887Y-103492499D01*
X124416715Y-103492499D01*
X124107598Y-103553986D01*
X123816417Y-103674597D01*
X123554360Y-103849698D01*
X123331500Y-104072558D01*
X123304300Y-104113265D01*
X123277101Y-104072559D01*
X123054241Y-103849699D01*
X122792184Y-103674598D01*
X122501003Y-103553987D01*
X122191886Y-103492500D01*
X121876714Y-103492500D01*
X121567597Y-103553987D01*
X121276416Y-103674598D01*
X121014359Y-103849699D01*
X120791499Y-104072559D01*
X120702157Y-104206269D01*
X120522542Y-104000377D01*
X120289722Y-103820762D01*
X120026334Y-103690019D01*
X119831108Y-103630802D01*
X119598301Y-103759049D01*
X119390301Y-103759049D01*
X119157494Y-103630802D01*
X118962268Y-103690019D01*
X118698880Y-103820762D01*
X118466060Y-104000377D01*
X118286445Y-104206270D01*
X118197102Y-104072559D01*
X117974242Y-103849699D01*
X117712185Y-103674598D01*
X117421004Y-103553987D01*
X117111887Y-103492500D01*
X116796715Y-103492500D01*
X116487598Y-103553987D01*
X116196417Y-103674598D01*
X115934360Y-103849699D01*
X115711500Y-104072559D01*
X115684301Y-104113266D01*
X115657101Y-104072559D01*
X115434241Y-103849699D01*
X115172184Y-103674598D01*
X114881003Y-103553987D01*
X114571886Y-103492500D01*
X114256714Y-103492500D01*
X113947597Y-103553987D01*
X113656416Y-103674598D01*
X113394359Y-103849699D01*
X113171499Y-104072559D01*
X112996398Y-104334616D01*
X112875787Y-104625797D01*
X112814300Y-104934914D01*
X106602900Y-104934914D01*
X106602900Y-98751652D01*
X108231799Y-98751652D01*
X108370600Y-99202822D01*
X108594753Y-99618244D01*
X108895644Y-99981954D01*
X109261710Y-100279974D01*
X109678883Y-100500852D01*
X110112549Y-100632400D01*
X110487601Y-100515624D01*
X110487601Y-98376600D01*
X108348412Y-98376600D01*
X108231799Y-98751652D01*
X106602900Y-98751652D01*
X106602900Y-97793548D01*
X108231799Y-97793548D01*
X108348412Y-98168600D01*
X110487601Y-98168600D01*
X110487601Y-96029576D01*
X110695601Y-96029576D01*
X110695601Y-98168600D01*
X110715601Y-98168600D01*
X110715601Y-98376600D01*
X110695601Y-98376600D01*
X110695601Y-100515624D01*
X111070653Y-100632400D01*
X111504319Y-100500852D01*
X111921492Y-100279974D01*
X112287558Y-99981954D01*
X112588449Y-99618244D01*
X112812602Y-99202822D01*
X112915944Y-98866912D01*
X112983698Y-99030485D01*
X113158799Y-99292542D01*
X113381659Y-99515402D01*
X113643716Y-99690503D01*
X113934897Y-99811114D01*
X114244014Y-99872601D01*
X114559186Y-99872601D01*
X114582709Y-99867922D01*
X117063354Y-102348568D01*
X117094671Y-102386728D01*
X117246941Y-102511692D01*
X117420664Y-102604549D01*
X117609165Y-102661730D01*
X117805199Y-102681038D01*
X117854319Y-102676200D01*
X128363789Y-102676200D01*
X129232619Y-103545031D01*
X129187597Y-103553986D01*
X128896416Y-103674597D01*
X128634359Y-103849698D01*
X128411499Y-104072558D01*
X128322156Y-104206269D01*
X128142541Y-104000376D01*
X127909721Y-103820761D01*
X127646333Y-103690018D01*
X127451107Y-103630801D01*
X127218300Y-103759048D01*
X127218300Y-104988499D01*
X127238300Y-104988499D01*
X127238300Y-105196499D01*
X127218300Y-105196499D01*
X127218300Y-106425950D01*
X127451107Y-106554197D01*
X127646333Y-106494980D01*
X127909721Y-106364237D01*
X128142541Y-106184622D01*
X128322156Y-105978729D01*
X128411499Y-106112440D01*
X128634359Y-106335300D01*
X128896416Y-106510401D01*
X129187597Y-106631012D01*
X129496714Y-106692499D01*
X129811886Y-106692499D01*
X130121003Y-106631012D01*
X130412184Y-106510401D01*
X130674241Y-106335300D01*
X130897101Y-106112440D01*
X130924300Y-106071734D01*
X130951499Y-106112440D01*
X131174359Y-106335300D01*
X131436416Y-106510401D01*
X131727597Y-106631012D01*
X132036714Y-106692499D01*
X132351886Y-106692499D01*
X132661003Y-106631012D01*
X132952184Y-106510401D01*
X133214241Y-106335300D01*
X133437101Y-106112440D01*
X133450425Y-106092499D01*
X134421687Y-106092499D01*
X136405459Y-108076273D01*
X136436772Y-108114428D01*
X136474926Y-108145740D01*
X136589042Y-108239392D01*
X136762765Y-108332249D01*
X136951266Y-108389430D01*
X137147300Y-108408738D01*
X137196420Y-108403900D01*
X141127288Y-108403900D01*
X146802601Y-114079215D01*
X146802600Y-117683087D01*
X142295688Y-122190000D01*
X138147300Y-122190000D01*
X138147300Y-118199645D01*
X138285701Y-118157661D01*
X138415993Y-118088019D01*
X138530195Y-117994295D01*
X138623919Y-117880093D01*
X138693561Y-117749801D01*
X138698394Y-117733869D01*
X138891879Y-117883138D01*
X139155267Y-118013881D01*
X139350493Y-118073098D01*
X139583300Y-117944851D01*
X139583300Y-116715400D01*
X139563300Y-116715400D01*
X139563300Y-116507400D01*
X139583300Y-116507400D01*
X139583300Y-115277949D01*
X139791300Y-115277949D01*
X139791300Y-116507400D01*
X139811300Y-116507400D01*
X139811300Y-116715400D01*
X139791300Y-116715400D01*
X139791300Y-117944851D01*
X140024107Y-118073098D01*
X140219333Y-118013881D01*
X140482721Y-117883138D01*
X140715541Y-117703523D01*
X140895156Y-117497630D01*
X140984499Y-117631341D01*
X141207359Y-117854201D01*
X141469416Y-118029302D01*
X141760597Y-118149913D01*
X142069714Y-118211400D01*
X142384886Y-118211400D01*
X142694003Y-118149913D01*
X142985184Y-118029302D01*
X143247241Y-117854201D01*
X143470101Y-117631341D01*
X143497300Y-117590636D01*
X143524498Y-117631341D01*
X143747358Y-117854201D01*
X144009415Y-118029302D01*
X144300596Y-118149913D01*
X144609713Y-118211400D01*
X144924885Y-118211400D01*
X145234002Y-118149913D01*
X145525183Y-118029302D01*
X145787240Y-117854201D01*
X146010100Y-117631341D01*
X146185201Y-117369284D01*
X146305812Y-117078103D01*
X146367299Y-116768986D01*
X146367299Y-116453814D01*
X146305812Y-116144697D01*
X146185201Y-115853516D01*
X146010100Y-115591459D01*
X145787240Y-115368599D01*
X145525183Y-115193498D01*
X145234002Y-115072887D01*
X144924885Y-115011400D01*
X144609713Y-115011400D01*
X144300596Y-115072887D01*
X144009415Y-115193498D01*
X143747358Y-115368599D01*
X143524498Y-115591459D01*
X143497300Y-115632164D01*
X143470101Y-115591459D01*
X143247241Y-115368599D01*
X142985184Y-115193498D01*
X142694003Y-115072887D01*
X142384886Y-115011400D01*
X142069714Y-115011400D01*
X141760597Y-115072887D01*
X141469416Y-115193498D01*
X141207359Y-115368599D01*
X140984499Y-115591459D01*
X140895156Y-115725170D01*
X140715541Y-115519277D01*
X140482721Y-115339662D01*
X140219333Y-115208919D01*
X140024107Y-115149702D01*
X139791300Y-115277949D01*
X139583300Y-115277949D01*
X139350493Y-115149702D01*
X139155267Y-115208919D01*
X138891879Y-115339662D01*
X138698394Y-115488931D01*
X138693561Y-115472999D01*
X138623919Y-115342707D01*
X138530195Y-115228505D01*
X138415993Y-115134781D01*
X138285701Y-115065139D01*
X138144326Y-115022253D01*
X137997300Y-115007772D01*
X136297300Y-115007772D01*
X136150274Y-115022253D01*
X136008899Y-115065139D01*
X135878607Y-115134781D01*
X135764405Y-115228505D01*
X135670681Y-115342707D01*
X135601039Y-115472999D01*
X135558153Y-115614374D01*
X135543672Y-115761400D01*
X135543672Y-117461400D01*
X135558153Y-117608426D01*
X135601039Y-117749801D01*
X135670681Y-117880093D01*
X135764405Y-117994295D01*
X135878607Y-118088019D01*
X136008899Y-118157661D01*
X136147300Y-118199645D01*
X136147301Y-122190000D01*
X135532720Y-122190000D01*
X135483600Y-122185162D01*
X135434480Y-122190000D01*
X135287566Y-122204470D01*
X135099065Y-122261651D01*
X134925342Y-122354508D01*
X134773072Y-122479472D01*
X134741755Y-122517632D01*
X133275975Y-123983413D01*
X133242226Y-123976700D01*
X132924374Y-123976700D01*
X132612630Y-124038709D01*
X132318974Y-124160346D01*
X132054690Y-124336935D01*
X131829935Y-124561690D01*
X131813300Y-124586586D01*
X131796665Y-124561690D01*
X131571910Y-124336935D01*
X131307626Y-124160346D01*
X131013970Y-124038709D01*
X130702226Y-123976700D01*
X130384374Y-123976700D01*
X130072630Y-124038709D01*
X129778974Y-124160346D01*
X129514690Y-124336935D01*
X129289935Y-124561690D01*
X129273300Y-124586586D01*
X129256665Y-124561690D01*
X129031910Y-124336935D01*
X128767626Y-124160346D01*
X128473970Y-124038709D01*
X128162226Y-123976700D01*
X127844374Y-123976700D01*
X127532630Y-124038709D01*
X127238974Y-124160346D01*
X126974690Y-124336935D01*
X126749935Y-124561690D01*
X126733300Y-124586586D01*
X126716665Y-124561690D01*
X126491910Y-124336935D01*
X126227626Y-124160346D01*
X125933970Y-124038709D01*
X125622226Y-123976700D01*
X125304374Y-123976700D01*
X124992630Y-124038709D01*
X124698974Y-124160346D01*
X124434690Y-124336935D01*
X124209935Y-124561690D01*
X124193300Y-124586586D01*
X124176665Y-124561690D01*
X123951910Y-124336935D01*
X123687626Y-124160346D01*
X123393970Y-124038709D01*
X123082226Y-123976700D01*
X122764374Y-123976700D01*
X122452630Y-124038709D01*
X122158974Y-124160346D01*
X121894690Y-124336935D01*
X121669935Y-124561690D01*
X121493346Y-124825974D01*
X121371709Y-125119630D01*
X121309700Y-125431374D01*
X121309700Y-125749226D01*
X121371709Y-126060970D01*
X121493346Y-126354626D01*
X121669935Y-126618910D01*
X121894690Y-126843665D01*
X122158974Y-127020254D01*
X122452630Y-127141891D01*
X122764374Y-127203900D01*
X123082226Y-127203900D01*
X123393970Y-127141891D01*
X123687626Y-127020254D01*
X123951910Y-126843665D01*
X124176665Y-126618910D01*
X124193300Y-126594014D01*
X124209935Y-126618910D01*
X124434690Y-126843665D01*
X124698974Y-127020254D01*
X124992630Y-127141891D01*
X125304374Y-127203900D01*
X125622226Y-127203900D01*
X125933970Y-127141891D01*
X126227626Y-127020254D01*
X126491910Y-126843665D01*
X126716665Y-126618910D01*
X126733300Y-126594014D01*
X126749935Y-126618910D01*
X126974690Y-126843665D01*
X127238974Y-127020254D01*
X127532630Y-127141891D01*
X127844374Y-127203900D01*
X128162226Y-127203900D01*
X128473970Y-127141891D01*
X128767626Y-127020254D01*
X129031910Y-126843665D01*
X129256665Y-126618910D01*
X129273300Y-126594014D01*
X129289935Y-126618910D01*
X129514690Y-126843665D01*
X129778974Y-127020254D01*
X130072630Y-127141891D01*
X130384374Y-127203900D01*
X130702226Y-127203900D01*
X131013970Y-127141891D01*
X131307626Y-127020254D01*
X131571910Y-126843665D01*
X131796665Y-126618910D01*
X131813300Y-126594014D01*
X131829935Y-126618910D01*
X132054690Y-126843665D01*
X132318974Y-127020254D01*
X132612630Y-127141891D01*
X132924374Y-127203900D01*
X133242226Y-127203900D01*
X133553970Y-127141891D01*
X133847626Y-127020254D01*
X134111910Y-126843665D01*
X134336665Y-126618910D01*
X134419133Y-126495487D01*
X134521922Y-126628552D01*
X134745638Y-126823470D01*
X135003082Y-126970998D01*
X135284360Y-127065467D01*
X135519300Y-126937827D01*
X135519300Y-125694300D01*
X135727300Y-125694300D01*
X135727300Y-126937827D01*
X135962240Y-127065467D01*
X136243518Y-126970998D01*
X136500962Y-126823470D01*
X136724678Y-126628552D01*
X136893300Y-126410263D01*
X137061922Y-126628552D01*
X137285638Y-126823470D01*
X137543082Y-126970998D01*
X137824360Y-127065467D01*
X138059300Y-126937827D01*
X138059300Y-125694300D01*
X135727300Y-125694300D01*
X135519300Y-125694300D01*
X135499300Y-125694300D01*
X135499300Y-125486300D01*
X135519300Y-125486300D01*
X135519300Y-125466300D01*
X135727300Y-125466300D01*
X135727300Y-125486300D01*
X138059300Y-125486300D01*
X138059300Y-125466300D01*
X138267300Y-125466300D01*
X138267300Y-125486300D01*
X138287300Y-125486300D01*
X138287300Y-125694300D01*
X138267300Y-125694300D01*
X138267300Y-126937827D01*
X138502240Y-127065467D01*
X138783518Y-126970998D01*
X139040962Y-126823470D01*
X139264678Y-126628552D01*
X139367467Y-126495487D01*
X139449935Y-126618910D01*
X139674690Y-126843665D01*
X139938974Y-127020254D01*
X140232630Y-127141891D01*
X140544374Y-127203900D01*
X140862226Y-127203900D01*
X141173970Y-127141891D01*
X141467626Y-127020254D01*
X141731910Y-126843665D01*
X141956665Y-126618910D01*
X142133254Y-126354626D01*
X142254891Y-126060970D01*
X142316900Y-125749226D01*
X142316900Y-125431374D01*
X144169700Y-125431374D01*
X144169700Y-125749226D01*
X144231709Y-126060970D01*
X144353346Y-126354626D01*
X144529935Y-126618910D01*
X144754690Y-126843665D01*
X145018974Y-127020254D01*
X145312630Y-127141891D01*
X145624374Y-127203900D01*
X145942226Y-127203900D01*
X146253970Y-127141891D01*
X146547626Y-127020254D01*
X146811910Y-126843665D01*
X147036665Y-126618910D01*
X147053300Y-126594014D01*
X147069935Y-126618910D01*
X147294690Y-126843665D01*
X147558974Y-127020254D01*
X147852630Y-127141891D01*
X148164374Y-127203900D01*
X148482226Y-127203900D01*
X148793970Y-127141891D01*
X149087626Y-127020254D01*
X149351910Y-126843665D01*
X149576665Y-126618910D01*
X149593300Y-126594014D01*
X149609935Y-126618910D01*
X149834690Y-126843665D01*
X150098974Y-127020254D01*
X150392630Y-127141891D01*
X150704374Y-127203900D01*
X151022226Y-127203900D01*
X151333970Y-127141891D01*
X151627626Y-127020254D01*
X151891910Y-126843665D01*
X152116665Y-126618910D01*
X152133300Y-126594014D01*
X152149935Y-126618910D01*
X152374690Y-126843665D01*
X152638974Y-127020254D01*
X152932630Y-127141891D01*
X153244374Y-127203900D01*
X153562226Y-127203900D01*
X153873970Y-127141891D01*
X154167626Y-127020254D01*
X154431910Y-126843665D01*
X154656665Y-126618910D01*
X154673300Y-126594014D01*
X154689935Y-126618910D01*
X154914690Y-126843665D01*
X155178974Y-127020254D01*
X155472630Y-127141891D01*
X155784374Y-127203900D01*
X156102226Y-127203900D01*
X156413970Y-127141891D01*
X156707626Y-127020254D01*
X156971910Y-126843665D01*
X157196665Y-126618910D01*
X157213300Y-126594014D01*
X157229935Y-126618910D01*
X157454690Y-126843665D01*
X157718974Y-127020254D01*
X158012630Y-127141891D01*
X158324374Y-127203900D01*
X158642226Y-127203900D01*
X158953970Y-127141891D01*
X159247626Y-127020254D01*
X159511910Y-126843665D01*
X159736665Y-126618910D01*
X159753300Y-126594014D01*
X159769935Y-126618910D01*
X159994690Y-126843665D01*
X160258974Y-127020254D01*
X160552630Y-127141891D01*
X160864374Y-127203900D01*
X161182226Y-127203900D01*
X161493970Y-127141891D01*
X161787626Y-127020254D01*
X162051910Y-126843665D01*
X162276665Y-126618910D01*
X162293300Y-126594014D01*
X162309935Y-126618910D01*
X162534690Y-126843665D01*
X162798974Y-127020254D01*
X163092630Y-127141891D01*
X163404374Y-127203900D01*
X163722226Y-127203900D01*
X164033970Y-127141891D01*
X164327626Y-127020254D01*
X164591910Y-126843665D01*
X164816665Y-126618910D01*
X164993254Y-126354626D01*
X165114891Y-126060970D01*
X165176900Y-125749226D01*
X165176900Y-125431374D01*
X167029700Y-125431374D01*
X167029700Y-125749226D01*
X167091709Y-126060970D01*
X167213346Y-126354626D01*
X167389935Y-126618910D01*
X167614690Y-126843665D01*
X167878974Y-127020254D01*
X168172630Y-127141891D01*
X168484374Y-127203900D01*
X168802226Y-127203900D01*
X169113970Y-127141891D01*
X169407626Y-127020254D01*
X169671910Y-126843665D01*
X169896665Y-126618910D01*
X169913300Y-126594014D01*
X169929935Y-126618910D01*
X170154690Y-126843665D01*
X170418974Y-127020254D01*
X170712630Y-127141891D01*
X171024374Y-127203900D01*
X171342226Y-127203900D01*
X171653970Y-127141891D01*
X171947626Y-127020254D01*
X172211910Y-126843665D01*
X172436665Y-126618910D01*
X172453300Y-126594014D01*
X172469935Y-126618910D01*
X172694690Y-126843665D01*
X172958974Y-127020254D01*
X173252630Y-127141891D01*
X173564374Y-127203900D01*
X173882226Y-127203900D01*
X174193970Y-127141891D01*
X174487626Y-127020254D01*
X174751910Y-126843665D01*
X174976665Y-126618910D01*
X174993300Y-126594014D01*
X175009935Y-126618910D01*
X175234690Y-126843665D01*
X175498974Y-127020254D01*
X175792630Y-127141891D01*
X176104374Y-127203900D01*
X176422226Y-127203900D01*
X176733970Y-127141891D01*
X177027626Y-127020254D01*
X177291910Y-126843665D01*
X177516665Y-126618910D01*
X177533300Y-126594014D01*
X177549935Y-126618910D01*
X177774690Y-126843665D01*
X178038974Y-127020254D01*
X178332630Y-127141891D01*
X178644374Y-127203900D01*
X178962226Y-127203900D01*
X179273970Y-127141891D01*
X179567626Y-127020254D01*
X179831910Y-126843665D01*
X180056665Y-126618910D01*
X180073300Y-126594014D01*
X180089935Y-126618910D01*
X180314690Y-126843665D01*
X180578974Y-127020254D01*
X180872630Y-127141891D01*
X181184374Y-127203900D01*
X181502226Y-127203900D01*
X181813970Y-127141891D01*
X182107626Y-127020254D01*
X182371910Y-126843665D01*
X182596665Y-126618910D01*
X182613300Y-126594014D01*
X182629935Y-126618910D01*
X182854690Y-126843665D01*
X183118974Y-127020254D01*
X183412630Y-127141891D01*
X183724374Y-127203900D01*
X184042226Y-127203900D01*
X184353970Y-127141891D01*
X184647626Y-127020254D01*
X184911910Y-126843665D01*
X185136665Y-126618910D01*
X185153300Y-126594014D01*
X185169935Y-126618910D01*
X185394690Y-126843665D01*
X185658974Y-127020254D01*
X185952630Y-127141891D01*
X186264374Y-127203900D01*
X186582226Y-127203900D01*
X186893970Y-127141891D01*
X187187626Y-127020254D01*
X187451910Y-126843665D01*
X187676665Y-126618910D01*
X187853254Y-126354626D01*
X187974891Y-126060970D01*
X188036900Y-125749226D01*
X188036900Y-125431374D01*
X187974891Y-125119630D01*
X187853254Y-124825974D01*
X187676665Y-124561690D01*
X187451910Y-124336935D01*
X187187626Y-124160346D01*
X186893970Y-124038709D01*
X186582226Y-123976700D01*
X186264374Y-123976700D01*
X185952630Y-124038709D01*
X185658974Y-124160346D01*
X185394690Y-124336935D01*
X185169935Y-124561690D01*
X185153300Y-124586586D01*
X185136665Y-124561690D01*
X184911910Y-124336935D01*
X184647626Y-124160346D01*
X184353970Y-124038709D01*
X184042226Y-123976700D01*
X183724374Y-123976700D01*
X183412630Y-124038709D01*
X183118974Y-124160346D01*
X182854690Y-124336935D01*
X182629935Y-124561690D01*
X182613300Y-124586586D01*
X182596665Y-124561690D01*
X182371910Y-124336935D01*
X182107626Y-124160346D01*
X181813970Y-124038709D01*
X181502226Y-123976700D01*
X181184374Y-123976700D01*
X180872630Y-124038709D01*
X180578974Y-124160346D01*
X180314690Y-124336935D01*
X180089935Y-124561690D01*
X180073300Y-124586586D01*
X180056665Y-124561690D01*
X179831910Y-124336935D01*
X179567626Y-124160346D01*
X179273970Y-124038709D01*
X178962226Y-123976700D01*
X178644374Y-123976700D01*
X178332630Y-124038709D01*
X178038974Y-124160346D01*
X177774690Y-124336935D01*
X177549935Y-124561690D01*
X177533300Y-124586586D01*
X177516665Y-124561690D01*
X177291910Y-124336935D01*
X177027626Y-124160346D01*
X176733970Y-124038709D01*
X176422226Y-123976700D01*
X176104374Y-123976700D01*
X175792630Y-124038709D01*
X175498974Y-124160346D01*
X175234690Y-124336935D01*
X175009935Y-124561690D01*
X174993300Y-124586586D01*
X174976665Y-124561690D01*
X174751910Y-124336935D01*
X174487626Y-124160346D01*
X174193970Y-124038709D01*
X173882226Y-123976700D01*
X173564374Y-123976700D01*
X173252630Y-124038709D01*
X172958974Y-124160346D01*
X172694690Y-124336935D01*
X172469935Y-124561690D01*
X172453300Y-124586586D01*
X172436665Y-124561690D01*
X172211910Y-124336935D01*
X171947626Y-124160346D01*
X171653970Y-124038709D01*
X171342226Y-123976700D01*
X171024374Y-123976700D01*
X170712630Y-124038709D01*
X170418974Y-124160346D01*
X170154690Y-124336935D01*
X169929935Y-124561690D01*
X169913300Y-124586586D01*
X169896665Y-124561690D01*
X169671910Y-124336935D01*
X169407626Y-124160346D01*
X169113970Y-124038709D01*
X168802226Y-123976700D01*
X168484374Y-123976700D01*
X168172630Y-124038709D01*
X167878974Y-124160346D01*
X167614690Y-124336935D01*
X167389935Y-124561690D01*
X167213346Y-124825974D01*
X167091709Y-125119630D01*
X167029700Y-125431374D01*
X165176900Y-125431374D01*
X165114891Y-125119630D01*
X164993254Y-124825974D01*
X164816665Y-124561690D01*
X164591910Y-124336935D01*
X164327626Y-124160346D01*
X164033970Y-124038709D01*
X163722226Y-123976700D01*
X163404374Y-123976700D01*
X163092630Y-124038709D01*
X162798974Y-124160346D01*
X162534690Y-124336935D01*
X162309935Y-124561690D01*
X162293300Y-124586586D01*
X162276665Y-124561690D01*
X162051910Y-124336935D01*
X161787626Y-124160346D01*
X161493970Y-124038709D01*
X161182226Y-123976700D01*
X160864374Y-123976700D01*
X160552630Y-124038709D01*
X160258974Y-124160346D01*
X159994690Y-124336935D01*
X159769935Y-124561690D01*
X159753300Y-124586586D01*
X159736665Y-124561690D01*
X159511910Y-124336935D01*
X159247626Y-124160346D01*
X158953970Y-124038709D01*
X158642226Y-123976700D01*
X158324374Y-123976700D01*
X158012630Y-124038709D01*
X157718974Y-124160346D01*
X157454690Y-124336935D01*
X157229935Y-124561690D01*
X157213300Y-124586586D01*
X157196665Y-124561690D01*
X156971910Y-124336935D01*
X156707626Y-124160346D01*
X156413970Y-124038709D01*
X156102226Y-123976700D01*
X155784374Y-123976700D01*
X155472630Y-124038709D01*
X155178974Y-124160346D01*
X154914690Y-124336935D01*
X154689935Y-124561690D01*
X154673300Y-124586586D01*
X154656665Y-124561690D01*
X154431910Y-124336935D01*
X154167626Y-124160346D01*
X153873970Y-124038709D01*
X153562226Y-123976700D01*
X153244374Y-123976700D01*
X152932630Y-124038709D01*
X152638974Y-124160346D01*
X152374690Y-124336935D01*
X152149935Y-124561690D01*
X152133300Y-124586586D01*
X152116665Y-124561690D01*
X151891910Y-124336935D01*
X151627626Y-124160346D01*
X151333970Y-124038709D01*
X151022226Y-123976700D01*
X150704374Y-123976700D01*
X150392630Y-124038709D01*
X150098974Y-124160346D01*
X149834690Y-124336935D01*
X149609935Y-124561690D01*
X149593300Y-124586586D01*
X149576665Y-124561690D01*
X149351910Y-124336935D01*
X149087626Y-124160346D01*
X148793970Y-124038709D01*
X148482226Y-123976700D01*
X148164374Y-123976700D01*
X147852630Y-124038709D01*
X147558974Y-124160346D01*
X147294690Y-124336935D01*
X147069935Y-124561690D01*
X147053300Y-124586586D01*
X147036665Y-124561690D01*
X146811910Y-124336935D01*
X146547626Y-124160346D01*
X146253970Y-124038709D01*
X145942226Y-123976700D01*
X145624374Y-123976700D01*
X145312630Y-124038709D01*
X145018974Y-124160346D01*
X144754690Y-124336935D01*
X144529935Y-124561690D01*
X144353346Y-124825974D01*
X144231709Y-125119630D01*
X144169700Y-125431374D01*
X142316900Y-125431374D01*
X142254891Y-125119630D01*
X142133254Y-124825974D01*
X141956665Y-124561690D01*
X141731910Y-124336935D01*
X141512006Y-124190000D01*
X142660780Y-124190000D01*
X142709900Y-124194838D01*
X142759020Y-124190000D01*
X142905934Y-124175530D01*
X143094435Y-124118349D01*
X143268158Y-124025492D01*
X143420428Y-123900528D01*
X143451749Y-123862363D01*
X148216813Y-119097300D01*
X150377175Y-119097300D01*
X150390499Y-119117241D01*
X150613359Y-119340101D01*
X150654066Y-119367300D01*
X150613359Y-119394500D01*
X150390499Y-119617360D01*
X150215398Y-119879417D01*
X150094787Y-120170598D01*
X150033300Y-120479715D01*
X150033300Y-120794887D01*
X150094787Y-121104004D01*
X150215398Y-121395185D01*
X150390499Y-121657242D01*
X150613359Y-121880102D01*
X150875416Y-122055203D01*
X151166597Y-122175814D01*
X151475714Y-122237301D01*
X151790886Y-122237301D01*
X152100003Y-122175814D01*
X152391184Y-122055203D01*
X152653241Y-121880102D01*
X152876101Y-121657242D01*
X153051202Y-121395185D01*
X153166697Y-121116353D01*
X178989087Y-121116353D01*
X179120635Y-121550019D01*
X179341513Y-121967192D01*
X179639533Y-122333258D01*
X180003243Y-122634149D01*
X180418665Y-122858302D01*
X180869835Y-122997103D01*
X181244887Y-122880490D01*
X181244887Y-120741301D01*
X181452887Y-120741301D01*
X181452887Y-122880490D01*
X181827939Y-122997103D01*
X182279109Y-122858302D01*
X182694531Y-122634149D01*
X183058241Y-122333258D01*
X183356261Y-121967192D01*
X183577139Y-121550019D01*
X183708687Y-121116353D01*
X183625519Y-120849239D01*
X187488137Y-120849239D01*
X187548438Y-121048041D01*
X187680532Y-121313734D01*
X187861922Y-121548552D01*
X188085638Y-121743470D01*
X188343082Y-121890998D01*
X188624360Y-121985467D01*
X188859300Y-121857827D01*
X188859300Y-120614300D01*
X189067300Y-120614300D01*
X189067300Y-121857827D01*
X189302240Y-121985467D01*
X189583518Y-121890998D01*
X189840962Y-121743470D01*
X190064678Y-121548552D01*
X190233300Y-121330263D01*
X190401922Y-121548552D01*
X190625638Y-121743470D01*
X190883082Y-121890998D01*
X191164360Y-121985467D01*
X191399300Y-121857827D01*
X191399300Y-120614300D01*
X191607300Y-120614300D01*
X191607300Y-121857827D01*
X191842240Y-121985467D01*
X192123518Y-121890998D01*
X192380962Y-121743470D01*
X192604678Y-121548552D01*
X192786068Y-121313734D01*
X192918162Y-121048041D01*
X192978463Y-120849239D01*
X192850391Y-120614300D01*
X191607300Y-120614300D01*
X191399300Y-120614300D01*
X189067300Y-120614300D01*
X188859300Y-120614300D01*
X187616209Y-120614300D01*
X187488137Y-120849239D01*
X183625519Y-120849239D01*
X183591911Y-120741301D01*
X181452887Y-120741301D01*
X181244887Y-120741301D01*
X179105863Y-120741301D01*
X178989087Y-121116353D01*
X153166697Y-121116353D01*
X153171813Y-121104004D01*
X153233300Y-120794887D01*
X153233300Y-120479715D01*
X153171813Y-120170598D01*
X153166698Y-120158249D01*
X178989087Y-120158249D01*
X179105863Y-120533301D01*
X181244887Y-120533301D01*
X181244887Y-118394112D01*
X181452887Y-118394112D01*
X181452887Y-120533301D01*
X183591911Y-120533301D01*
X183708687Y-120158249D01*
X183577139Y-119724583D01*
X183356261Y-119307410D01*
X183058241Y-118941344D01*
X182694531Y-118640453D01*
X182279109Y-118416300D01*
X181827939Y-118277499D01*
X181452887Y-118394112D01*
X181244887Y-118394112D01*
X180869835Y-118277499D01*
X180418665Y-118416300D01*
X180003243Y-118640453D01*
X179639533Y-118941344D01*
X179341513Y-119307410D01*
X179120635Y-119724583D01*
X178989087Y-120158249D01*
X153166698Y-120158249D01*
X153051202Y-119879417D01*
X152876101Y-119617360D01*
X152653241Y-119394500D01*
X152612534Y-119367301D01*
X152653241Y-119340101D01*
X152876101Y-119117241D01*
X153051202Y-118855184D01*
X153171813Y-118564003D01*
X153233300Y-118254886D01*
X153233300Y-117939714D01*
X153171813Y-117630597D01*
X153051202Y-117339416D01*
X152876101Y-117077359D01*
X152653241Y-116854499D01*
X152519530Y-116765156D01*
X152725423Y-116585540D01*
X152905038Y-116352720D01*
X153035781Y-116089332D01*
X153094998Y-115894106D01*
X152966751Y-115661299D01*
X151737300Y-115661299D01*
X151737300Y-115681299D01*
X151529300Y-115681299D01*
X151529300Y-115661299D01*
X150299849Y-115661299D01*
X150171602Y-115894106D01*
X150230819Y-116089332D01*
X150361562Y-116352720D01*
X150541177Y-116585540D01*
X150747070Y-116765156D01*
X150613359Y-116854499D01*
X150390499Y-117077359D01*
X150377175Y-117097300D01*
X148802600Y-117097300D01*
X148802600Y-113714120D01*
X148807438Y-113665000D01*
X148788130Y-113468966D01*
X148730949Y-113280465D01*
X148638092Y-113106742D01*
X148544440Y-112992626D01*
X148513128Y-112954472D01*
X148474974Y-112923160D01*
X142541500Y-106989688D01*
X142541500Y-104579612D01*
X146961398Y-100159714D01*
X150033299Y-100159714D01*
X150033299Y-100474886D01*
X150094786Y-100784003D01*
X150215397Y-101075184D01*
X150390498Y-101337241D01*
X150613358Y-101560101D01*
X150654064Y-101587300D01*
X150613358Y-101614499D01*
X150390498Y-101837359D01*
X150215397Y-102099416D01*
X150094786Y-102390597D01*
X150033299Y-102699714D01*
X150033299Y-103014886D01*
X150094786Y-103324003D01*
X150215397Y-103615184D01*
X150390498Y-103877241D01*
X150613358Y-104100101D01*
X150654064Y-104127300D01*
X150613358Y-104154499D01*
X150390498Y-104377359D01*
X150215397Y-104639416D01*
X150094786Y-104930597D01*
X150033299Y-105239714D01*
X150033299Y-105554886D01*
X150094786Y-105864003D01*
X150215397Y-106155184D01*
X150390498Y-106417241D01*
X150613358Y-106640101D01*
X150654063Y-106667299D01*
X150613358Y-106694498D01*
X150390498Y-106917358D01*
X150215397Y-107179415D01*
X150094786Y-107470596D01*
X150033299Y-107779713D01*
X150033299Y-108094885D01*
X150094786Y-108404002D01*
X150215397Y-108695183D01*
X150390498Y-108957240D01*
X150613358Y-109180100D01*
X150654065Y-109207300D01*
X150613359Y-109234499D01*
X150390499Y-109457359D01*
X150215398Y-109719416D01*
X150094787Y-110010597D01*
X150033300Y-110319714D01*
X150033300Y-110634886D01*
X150094787Y-110944003D01*
X150215398Y-111235184D01*
X150390499Y-111497241D01*
X150613359Y-111720101D01*
X150654064Y-111747300D01*
X150613359Y-111774498D01*
X150390499Y-111997358D01*
X150215398Y-112259415D01*
X150094787Y-112550596D01*
X150033300Y-112859713D01*
X150033300Y-113174885D01*
X150094787Y-113484002D01*
X150215398Y-113775183D01*
X150390499Y-114037240D01*
X150613359Y-114260100D01*
X150747070Y-114349443D01*
X150541177Y-114529058D01*
X150361562Y-114761878D01*
X150230819Y-115025266D01*
X150171602Y-115220492D01*
X150299849Y-115453299D01*
X151529300Y-115453299D01*
X151529300Y-115433299D01*
X151737300Y-115433299D01*
X151737300Y-115453299D01*
X152966751Y-115453299D01*
X153094998Y-115220492D01*
X153035781Y-115025266D01*
X152905038Y-114761878D01*
X152725423Y-114529058D01*
X152519530Y-114349443D01*
X152653241Y-114260100D01*
X152876101Y-114037240D01*
X153051202Y-113775183D01*
X153171813Y-113484002D01*
X153233300Y-113174885D01*
X153233300Y-112859713D01*
X153171813Y-112550596D01*
X153051202Y-112259415D01*
X152876101Y-111997358D01*
X152653241Y-111774498D01*
X152612536Y-111747300D01*
X152653241Y-111720101D01*
X152876101Y-111497241D01*
X153051202Y-111235184D01*
X153171813Y-110944003D01*
X153233300Y-110634886D01*
X153233300Y-110319714D01*
X153171813Y-110010597D01*
X153051202Y-109719416D01*
X152876101Y-109457359D01*
X152653241Y-109234499D01*
X152612534Y-109207299D01*
X152653240Y-109180100D01*
X152876100Y-108957240D01*
X153051201Y-108695183D01*
X153171812Y-108404002D01*
X153233299Y-108094885D01*
X153233299Y-107779713D01*
X153171812Y-107470596D01*
X153051201Y-107179415D01*
X152876100Y-106917358D01*
X152653240Y-106694498D01*
X152612535Y-106667300D01*
X152653240Y-106640101D01*
X152876100Y-106417241D01*
X153051201Y-106155184D01*
X153171812Y-105864003D01*
X153233299Y-105554886D01*
X153233299Y-105239714D01*
X153171812Y-104930597D01*
X153051201Y-104639416D01*
X152876100Y-104377359D01*
X152653240Y-104154499D01*
X152612534Y-104127300D01*
X152653240Y-104100101D01*
X152876100Y-103877241D01*
X153051201Y-103615184D01*
X153171812Y-103324003D01*
X153233299Y-103014886D01*
X153233299Y-102699714D01*
X153171812Y-102390597D01*
X153051201Y-102099416D01*
X152876100Y-101837359D01*
X152653240Y-101614499D01*
X152612534Y-101587300D01*
X152653240Y-101560101D01*
X152876100Y-101337241D01*
X153051201Y-101075184D01*
X153166696Y-100796352D01*
X178991500Y-100796352D01*
X179123048Y-101230018D01*
X179343926Y-101647191D01*
X179641946Y-102013257D01*
X180005656Y-102314148D01*
X180421078Y-102538301D01*
X180872248Y-102677102D01*
X181247300Y-102560489D01*
X181247300Y-100421300D01*
X181455300Y-100421300D01*
X181455300Y-102560489D01*
X181830352Y-102677102D01*
X182281522Y-102538301D01*
X182696944Y-102314148D01*
X183060654Y-102013257D01*
X183358674Y-101647191D01*
X183579552Y-101230018D01*
X183711100Y-100796352D01*
X183594324Y-100421300D01*
X181455300Y-100421300D01*
X181247300Y-100421300D01*
X179108276Y-100421300D01*
X178991500Y-100796352D01*
X153166696Y-100796352D01*
X153171812Y-100784003D01*
X153233299Y-100474886D01*
X153233299Y-100159714D01*
X153171812Y-99850597D01*
X153166697Y-99838248D01*
X178991500Y-99838248D01*
X179108276Y-100213300D01*
X181247300Y-100213300D01*
X181247300Y-98074111D01*
X181455300Y-98074111D01*
X181455300Y-100213300D01*
X183594324Y-100213300D01*
X183711100Y-99838248D01*
X183579552Y-99404582D01*
X183358674Y-98987409D01*
X183060654Y-98621343D01*
X182696944Y-98320452D01*
X182281522Y-98096299D01*
X181830352Y-97957498D01*
X181455300Y-98074111D01*
X181247300Y-98074111D01*
X180872248Y-97957498D01*
X180421078Y-98096299D01*
X180005656Y-98320452D01*
X179641946Y-98621343D01*
X179343926Y-98987409D01*
X179123048Y-99404582D01*
X178991500Y-99838248D01*
X153166697Y-99838248D01*
X153051201Y-99559416D01*
X152876100Y-99297359D01*
X152653240Y-99074499D01*
X152391183Y-98899398D01*
X152100002Y-98778787D01*
X151790885Y-98717300D01*
X151475713Y-98717300D01*
X151166596Y-98778787D01*
X150875415Y-98899398D01*
X150613358Y-99074499D01*
X150390498Y-99297359D01*
X150215397Y-99559416D01*
X150094786Y-99850597D01*
X150033299Y-100159714D01*
X146961398Y-100159714D01*
X151254905Y-95866207D01*
X159541663Y-95866207D01*
X159600880Y-96061433D01*
X159731623Y-96324821D01*
X159911238Y-96557641D01*
X160132823Y-96750946D01*
X160387862Y-96897308D01*
X160666554Y-96991102D01*
X160899361Y-96863294D01*
X160899361Y-95633400D01*
X161107361Y-95633400D01*
X161107361Y-96863294D01*
X161340168Y-96991102D01*
X161618860Y-96897308D01*
X161873899Y-96750946D01*
X162095484Y-96557641D01*
X162275099Y-96324821D01*
X162405842Y-96061433D01*
X162465059Y-95866207D01*
X162336812Y-95633400D01*
X161107361Y-95633400D01*
X160899361Y-95633400D01*
X159669910Y-95633400D01*
X159541663Y-95866207D01*
X151254905Y-95866207D01*
X152856468Y-94264645D01*
X152894628Y-94233328D01*
X153019592Y-94081058D01*
X153112449Y-93907335D01*
X153169630Y-93718834D01*
X153184100Y-93571920D01*
X153184100Y-93571919D01*
X153188938Y-93522801D01*
X153184100Y-93473683D01*
X153184100Y-91921425D01*
X153204041Y-91908101D01*
X153426901Y-91685241D01*
X153602002Y-91423184D01*
X153722613Y-91132003D01*
X153784100Y-90822886D01*
X153784100Y-90507714D01*
X153779421Y-90484192D01*
X154126468Y-90137145D01*
X154164628Y-90105828D01*
X154289592Y-89953558D01*
X154382449Y-89779835D01*
X154439630Y-89591334D01*
X154454100Y-89444420D01*
X154454100Y-89444419D01*
X154458938Y-89395301D01*
X154454100Y-89346183D01*
X154454100Y-86777332D01*
X154658064Y-86573368D01*
X154827692Y-86319500D01*
X154944535Y-86037418D01*
X155004100Y-85737962D01*
X155004100Y-85432638D01*
X154944535Y-85133182D01*
X154827692Y-84851100D01*
X154658064Y-84597232D01*
X154454100Y-84393268D01*
X154454100Y-83865912D01*
X157030612Y-81289401D01*
X159747235Y-81289401D01*
X159760559Y-81309342D01*
X159983419Y-81532202D01*
X160024125Y-81559401D01*
X159983419Y-81586600D01*
X159760559Y-81809460D01*
X159585458Y-82071517D01*
X159464847Y-82362698D01*
X159403360Y-82671815D01*
X159403360Y-82986987D01*
X159464847Y-83296104D01*
X159585458Y-83587285D01*
X159760559Y-83849342D01*
X159983419Y-84072202D01*
X160024125Y-84099401D01*
X159983419Y-84126600D01*
X159760559Y-84349460D01*
X159585458Y-84611517D01*
X159464847Y-84902698D01*
X159403360Y-85211815D01*
X159403360Y-85526987D01*
X159464847Y-85836104D01*
X159585458Y-86127285D01*
X159760559Y-86389342D01*
X159983419Y-86612202D01*
X160024124Y-86639401D01*
X159983419Y-86666599D01*
X159760559Y-86889459D01*
X159585458Y-87151516D01*
X159464847Y-87442697D01*
X159403360Y-87751814D01*
X159403360Y-88066986D01*
X159464847Y-88376103D01*
X159585458Y-88667284D01*
X159760559Y-88929341D01*
X159983419Y-89152201D01*
X160024126Y-89179401D01*
X159983420Y-89206600D01*
X159760560Y-89429460D01*
X159585459Y-89691517D01*
X159464848Y-89982698D01*
X159403361Y-90291815D01*
X159403361Y-90606987D01*
X159464848Y-90916104D01*
X159585459Y-91207285D01*
X159760560Y-91469342D01*
X159983420Y-91692202D01*
X160024125Y-91719400D01*
X159983420Y-91746599D01*
X159760560Y-91969459D01*
X159585459Y-92231516D01*
X159464848Y-92522697D01*
X159403361Y-92831814D01*
X159403361Y-93146986D01*
X159464848Y-93456103D01*
X159585459Y-93747284D01*
X159760560Y-94009341D01*
X159983420Y-94232201D01*
X160117131Y-94321544D01*
X159911238Y-94501159D01*
X159731623Y-94733979D01*
X159600880Y-94997367D01*
X159541663Y-95192593D01*
X159669910Y-95425400D01*
X160899361Y-95425400D01*
X160899361Y-95405400D01*
X161107361Y-95405400D01*
X161107361Y-95425400D01*
X162336812Y-95425400D01*
X162465059Y-95192593D01*
X162405842Y-94997367D01*
X162275099Y-94733979D01*
X162095484Y-94501159D01*
X161889591Y-94321544D01*
X162023302Y-94232201D01*
X162246162Y-94009341D01*
X162421263Y-93747284D01*
X162541874Y-93456103D01*
X162603361Y-93146986D01*
X162603361Y-92831814D01*
X162541874Y-92522697D01*
X162421263Y-92231516D01*
X162246162Y-91969459D01*
X162023302Y-91746599D01*
X161982597Y-91719401D01*
X162023302Y-91692202D01*
X162246162Y-91469342D01*
X162421263Y-91207285D01*
X162541874Y-90916104D01*
X162603361Y-90606987D01*
X162603361Y-90291815D01*
X162541874Y-89982698D01*
X162421263Y-89691517D01*
X162246162Y-89429460D01*
X162023302Y-89206600D01*
X161982595Y-89179400D01*
X162023301Y-89152201D01*
X162246161Y-88929341D01*
X162421262Y-88667284D01*
X162541873Y-88376103D01*
X162603360Y-88066986D01*
X162603360Y-87751814D01*
X162541873Y-87442697D01*
X162421262Y-87151516D01*
X162246161Y-86889459D01*
X162023301Y-86666599D01*
X161982596Y-86639401D01*
X162023301Y-86612202D01*
X162246161Y-86389342D01*
X162421262Y-86127285D01*
X162541873Y-85836104D01*
X162603360Y-85526987D01*
X162603360Y-85211815D01*
X162541873Y-84902698D01*
X162421262Y-84611517D01*
X162246161Y-84349460D01*
X162023301Y-84126600D01*
X161982595Y-84099401D01*
X162023301Y-84072202D01*
X162246161Y-83849342D01*
X162421262Y-83587285D01*
X162541873Y-83296104D01*
X162603360Y-82986987D01*
X162603360Y-82671815D01*
X162541873Y-82362698D01*
X162421262Y-82071517D01*
X162246161Y-81809460D01*
X162023301Y-81586600D01*
X161982595Y-81559401D01*
X162023301Y-81532202D01*
X162246161Y-81309342D01*
X162259485Y-81289401D01*
X184227879Y-81289401D01*
X184276999Y-81294239D01*
X184326119Y-81289401D01*
X184473033Y-81274931D01*
X184661534Y-81217750D01*
X184835257Y-81124893D01*
X184987527Y-80999929D01*
X185018848Y-80961764D01*
X187650314Y-78330300D01*
X187690818Y-78330300D01*
X187709935Y-78358910D01*
X187934690Y-78583665D01*
X187959586Y-78600300D01*
X187934690Y-78616935D01*
X187709935Y-78841690D01*
X187533346Y-79105974D01*
X187411709Y-79399630D01*
X187349700Y-79711374D01*
X187349700Y-80029226D01*
X187411709Y-80340970D01*
X187533346Y-80634626D01*
X187709935Y-80898910D01*
X187934690Y-81123665D01*
X187959586Y-81140300D01*
X187934690Y-81156935D01*
X187709935Y-81381690D01*
X187533346Y-81645974D01*
X187411709Y-81939630D01*
X187349700Y-82251374D01*
X187349700Y-82569226D01*
X187411709Y-82880970D01*
X187533346Y-83174626D01*
X187709935Y-83438910D01*
X187934690Y-83663665D01*
X187959586Y-83680300D01*
X187934690Y-83696935D01*
X187709935Y-83921690D01*
X187533346Y-84185974D01*
X187411709Y-84479630D01*
X187349700Y-84791374D01*
X187349700Y-85109226D01*
X187411709Y-85420970D01*
X187533346Y-85714626D01*
X187709935Y-85978910D01*
X187934690Y-86203665D01*
X187959586Y-86220300D01*
X187934690Y-86236935D01*
X187709935Y-86461690D01*
X187533346Y-86725974D01*
X187411709Y-87019630D01*
X187349700Y-87331374D01*
X187349700Y-87649226D01*
X187411709Y-87960970D01*
X187533346Y-88254626D01*
X187709935Y-88518910D01*
X187934690Y-88743665D01*
X187959586Y-88760300D01*
X187934690Y-88776935D01*
X187709935Y-89001690D01*
X187533346Y-89265974D01*
X187411709Y-89559630D01*
X187349700Y-89871374D01*
X187349700Y-90189226D01*
X187411709Y-90500970D01*
X187533346Y-90794626D01*
X187709935Y-91058910D01*
X187934690Y-91283665D01*
X187959586Y-91300300D01*
X187934690Y-91316935D01*
X187709935Y-91541690D01*
X187533346Y-91805974D01*
X187411709Y-92099630D01*
X187349700Y-92411374D01*
X187349700Y-92729226D01*
X187411709Y-93040970D01*
X187533346Y-93334626D01*
X187709935Y-93598910D01*
X187934690Y-93823665D01*
X187959586Y-93840300D01*
X187934690Y-93856935D01*
X187709935Y-94081690D01*
X187533346Y-94345974D01*
X187411709Y-94639630D01*
X187349700Y-94951374D01*
X187349700Y-95269226D01*
X187411709Y-95580970D01*
X187533346Y-95874626D01*
X187709935Y-96138910D01*
X187934690Y-96363665D01*
X187959586Y-96380300D01*
X187934690Y-96396935D01*
X187709935Y-96621690D01*
X187533346Y-96885974D01*
X187411709Y-97179630D01*
X187349700Y-97491374D01*
X187349700Y-97809226D01*
X187411709Y-98120970D01*
X187533346Y-98414626D01*
X187709935Y-98678910D01*
X187934690Y-98903665D01*
X187959586Y-98920300D01*
X187934690Y-98936935D01*
X187709935Y-99161690D01*
X187533346Y-99425974D01*
X187411709Y-99719630D01*
X187349700Y-100031374D01*
X187349700Y-100349226D01*
X187411709Y-100660970D01*
X187533346Y-100954626D01*
X187709935Y-101218910D01*
X187934690Y-101443665D01*
X187959586Y-101460300D01*
X187934690Y-101476935D01*
X187709935Y-101701690D01*
X187533346Y-101965974D01*
X187411709Y-102259630D01*
X187349700Y-102571374D01*
X187349700Y-102889226D01*
X187411709Y-103200970D01*
X187533346Y-103494626D01*
X187709935Y-103758910D01*
X187934690Y-103983665D01*
X187959586Y-104000300D01*
X187934690Y-104016935D01*
X187709935Y-104241690D01*
X187533346Y-104505974D01*
X187411709Y-104799630D01*
X187349700Y-105111374D01*
X187349700Y-105429226D01*
X187411709Y-105740970D01*
X187533346Y-106034626D01*
X187709935Y-106298910D01*
X187934690Y-106523665D01*
X187959586Y-106540300D01*
X187934690Y-106556935D01*
X187709935Y-106781690D01*
X187533346Y-107045974D01*
X187411709Y-107339630D01*
X187349700Y-107651374D01*
X187349700Y-107969226D01*
X187411709Y-108280970D01*
X187533346Y-108574626D01*
X187709935Y-108838910D01*
X187934690Y-109063665D01*
X187959586Y-109080300D01*
X187934690Y-109096935D01*
X187709935Y-109321690D01*
X187533346Y-109585974D01*
X187411709Y-109879630D01*
X187349700Y-110191374D01*
X187349700Y-110509226D01*
X187411709Y-110820970D01*
X187533346Y-111114626D01*
X187709935Y-111378910D01*
X187934690Y-111603665D01*
X187959586Y-111620300D01*
X187934690Y-111636935D01*
X187709935Y-111861690D01*
X187533346Y-112125974D01*
X187411709Y-112419630D01*
X187349700Y-112731374D01*
X187349700Y-113049226D01*
X187411709Y-113360970D01*
X187533346Y-113654626D01*
X187709935Y-113918910D01*
X187934690Y-114143665D01*
X187959586Y-114160300D01*
X187934690Y-114176935D01*
X187709935Y-114401690D01*
X187533346Y-114665974D01*
X187411709Y-114959630D01*
X187349700Y-115271374D01*
X187349700Y-115589226D01*
X187411709Y-115900970D01*
X187533346Y-116194626D01*
X187709935Y-116458910D01*
X187934690Y-116683665D01*
X187959586Y-116700300D01*
X187934690Y-116716935D01*
X187709935Y-116941690D01*
X187533346Y-117205974D01*
X187411709Y-117499630D01*
X187349700Y-117811374D01*
X187349700Y-118129226D01*
X187411709Y-118440970D01*
X187533346Y-118734626D01*
X187709935Y-118998910D01*
X187934690Y-119223665D01*
X188054851Y-119303954D01*
X187861922Y-119472048D01*
X187680532Y-119706866D01*
X187548438Y-119972559D01*
X187488137Y-120171361D01*
X187616209Y-120406300D01*
X188859300Y-120406300D01*
X188859300Y-120386300D01*
X189067300Y-120386300D01*
X189067300Y-120406300D01*
X191399300Y-120406300D01*
X191399300Y-120386300D01*
X191607300Y-120386300D01*
X191607300Y-120406300D01*
X192850391Y-120406300D01*
X192978463Y-120171361D01*
X192918162Y-119972559D01*
X192786068Y-119706866D01*
X192604678Y-119472048D01*
X192411749Y-119303954D01*
X192531910Y-119223665D01*
X192756665Y-118998910D01*
X192933254Y-118734626D01*
X193054891Y-118440970D01*
X193116900Y-118129226D01*
X193116900Y-117811374D01*
X193054891Y-117499630D01*
X192933254Y-117205974D01*
X192756665Y-116941690D01*
X192531910Y-116716935D01*
X192507014Y-116700300D01*
X192531910Y-116683665D01*
X192756665Y-116458910D01*
X192933254Y-116194626D01*
X193008517Y-116012924D01*
X205342554Y-116012924D01*
X205615660Y-116437881D01*
X206161003Y-116733881D01*
X206753614Y-116917802D01*
X207370719Y-116982576D01*
X207988605Y-116925715D01*
X208583524Y-116749403D01*
X209132615Y-116460415D01*
X209166340Y-116437881D01*
X209439446Y-116012924D01*
X207391000Y-113964478D01*
X205342554Y-116012924D01*
X193008517Y-116012924D01*
X193054891Y-115900970D01*
X193116900Y-115589226D01*
X193116900Y-115271374D01*
X193054891Y-114959630D01*
X192933254Y-114665974D01*
X192756665Y-114401690D01*
X192531910Y-114176935D01*
X192507014Y-114160300D01*
X192531910Y-114143665D01*
X192756665Y-113918910D01*
X192838043Y-113797119D01*
X204225824Y-113797119D01*
X204282685Y-114415005D01*
X204458997Y-115009924D01*
X204747985Y-115559015D01*
X204770519Y-115592740D01*
X205195476Y-115865846D01*
X207243922Y-113817400D01*
X207538078Y-113817400D01*
X209586524Y-115865846D01*
X210011481Y-115592740D01*
X210307481Y-115047397D01*
X210491402Y-114454786D01*
X210556176Y-113837681D01*
X210499315Y-113219795D01*
X210323003Y-112624876D01*
X210034015Y-112075785D01*
X210011481Y-112042060D01*
X209586524Y-111768954D01*
X207538078Y-113817400D01*
X207243922Y-113817400D01*
X205195476Y-111768954D01*
X204770519Y-112042060D01*
X204474519Y-112587403D01*
X204290598Y-113180014D01*
X204225824Y-113797119D01*
X192838043Y-113797119D01*
X192933254Y-113654626D01*
X193054891Y-113360970D01*
X193116900Y-113049226D01*
X193116900Y-112731374D01*
X193054891Y-112419630D01*
X192933254Y-112125974D01*
X192756665Y-111861690D01*
X192531910Y-111636935D01*
X192509373Y-111621876D01*
X205342554Y-111621876D01*
X207391000Y-113670322D01*
X209439446Y-111621876D01*
X209166340Y-111196919D01*
X208620997Y-110900919D01*
X208028386Y-110716998D01*
X207411281Y-110652224D01*
X206793395Y-110709085D01*
X206198476Y-110885397D01*
X205649385Y-111174385D01*
X205615660Y-111196919D01*
X205342554Y-111621876D01*
X192509373Y-111621876D01*
X192507014Y-111620300D01*
X192531910Y-111603665D01*
X192756665Y-111378910D01*
X192933254Y-111114626D01*
X193054891Y-110820970D01*
X193116900Y-110509226D01*
X193116900Y-110191374D01*
X193054891Y-109879630D01*
X192933254Y-109585974D01*
X192756665Y-109321690D01*
X192531910Y-109096935D01*
X192507014Y-109080300D01*
X192531910Y-109063665D01*
X192756665Y-108838910D01*
X192933254Y-108574626D01*
X193054891Y-108280970D01*
X193116900Y-107969226D01*
X193116900Y-107651374D01*
X193054891Y-107339630D01*
X192933254Y-107045974D01*
X192756665Y-106781690D01*
X192643965Y-106668990D01*
X203533000Y-106668990D01*
X203533278Y-106671812D01*
X203533322Y-106678120D01*
X203537168Y-106714711D01*
X203537168Y-106751508D01*
X203538350Y-106762756D01*
X203605764Y-107363767D01*
X203621030Y-107435589D01*
X203635287Y-107507593D01*
X203638629Y-107518387D01*
X203638631Y-107518397D01*
X203638635Y-107518406D01*
X203821498Y-108094866D01*
X203850432Y-108162374D01*
X203878396Y-108230219D01*
X203883770Y-108240158D01*
X203883774Y-108240167D01*
X203883779Y-108240174D01*
X204175129Y-108770140D01*
X204216607Y-108830716D01*
X204257233Y-108891864D01*
X204264442Y-108900578D01*
X204653187Y-109363866D01*
X204705625Y-109415218D01*
X204757370Y-109467324D01*
X204766134Y-109474472D01*
X205237463Y-109853429D01*
X205298887Y-109893624D01*
X205359756Y-109934681D01*
X205369738Y-109939989D01*
X205369746Y-109939993D01*
X205905700Y-110220182D01*
X205973759Y-110247680D01*
X206041445Y-110276132D01*
X206052266Y-110279399D01*
X206052273Y-110279402D01*
X206052280Y-110279403D01*
X206632446Y-110450156D01*
X206704567Y-110463914D01*
X206776476Y-110478675D01*
X206787717Y-110479777D01*
X206787730Y-110479779D01*
X206787742Y-110479779D01*
X207390023Y-110534590D01*
X207463435Y-110534078D01*
X207536846Y-110534590D01*
X207548101Y-110533487D01*
X207548105Y-110533487D01*
X208149567Y-110470271D01*
X208221483Y-110455509D01*
X208293597Y-110441752D01*
X208304423Y-110438484D01*
X208882157Y-110259645D01*
X208949818Y-110231203D01*
X209017903Y-110203695D01*
X209027880Y-110198390D01*
X209027889Y-110198386D01*
X209027896Y-110198381D01*
X209559882Y-109910737D01*
X209620724Y-109869699D01*
X209682177Y-109829485D01*
X209690934Y-109822343D01*
X209690941Y-109822338D01*
X209690947Y-109822332D01*
X210156932Y-109436836D01*
X210208662Y-109384743D01*
X210261114Y-109333378D01*
X210268323Y-109324664D01*
X210650561Y-108855994D01*
X210691178Y-108794861D01*
X210732665Y-108734270D01*
X210738044Y-108724322D01*
X211021971Y-108190333D01*
X211049956Y-108122436D01*
X211078867Y-108054981D01*
X211082212Y-108044177D01*
X211257013Y-107465209D01*
X211271273Y-107393191D01*
X211286536Y-107321382D01*
X211287718Y-107310135D01*
X211346734Y-106708242D01*
X211350600Y-106668991D01*
X211350600Y-95649412D01*
X211350606Y-95649355D01*
X211350606Y-95638046D01*
X211350600Y-95637186D01*
X211350600Y-95603909D01*
X211350350Y-95601371D01*
X211350304Y-95594780D01*
X211346458Y-95558189D01*
X211346458Y-95521391D01*
X211345276Y-95510144D01*
X211277861Y-94909128D01*
X211262602Y-94837338D01*
X211248338Y-94765302D01*
X211244996Y-94754508D01*
X211244994Y-94754498D01*
X211244990Y-94754489D01*
X211062124Y-94178023D01*
X211033220Y-94110584D01*
X211005228Y-94042671D01*
X210999849Y-94032723D01*
X210708492Y-93502746D01*
X210667020Y-93442177D01*
X210626388Y-93381022D01*
X210619179Y-93372308D01*
X210230432Y-92909016D01*
X210177993Y-92857664D01*
X210126248Y-92805557D01*
X210117484Y-92798409D01*
X209646152Y-92419449D01*
X209584732Y-92379257D01*
X209523858Y-92338197D01*
X209513880Y-92332892D01*
X209513872Y-92332887D01*
X209513864Y-92332884D01*
X208977911Y-92052694D01*
X208909845Y-92025193D01*
X208842164Y-91996743D01*
X208831347Y-91993478D01*
X208831337Y-91993474D01*
X208831327Y-91993472D01*
X208261629Y-91825801D01*
X208583524Y-91730403D01*
X209132615Y-91441415D01*
X209166340Y-91418881D01*
X209439446Y-90993924D01*
X207391000Y-88945478D01*
X205342554Y-90993924D01*
X205615660Y-91418881D01*
X206161003Y-91714881D01*
X206562603Y-91839520D01*
X206001434Y-92013230D01*
X205933736Y-92041688D01*
X205865687Y-92069181D01*
X205855706Y-92074488D01*
X205855702Y-92074490D01*
X205855701Y-92074491D01*
X205323702Y-92362142D01*
X205262843Y-92403192D01*
X205201408Y-92443394D01*
X205192644Y-92450541D01*
X204726650Y-92836045D01*
X204674867Y-92888190D01*
X204622468Y-92939504D01*
X204615264Y-92948211D01*
X204615258Y-92948217D01*
X204615254Y-92948224D01*
X204233017Y-93416892D01*
X204192390Y-93478040D01*
X204150913Y-93538616D01*
X204145537Y-93548560D01*
X204145534Y-93548564D01*
X204145534Y-93548565D01*
X203861605Y-94082557D01*
X203833617Y-94150461D01*
X203804708Y-94217911D01*
X203801364Y-94228714D01*
X203626562Y-94807687D01*
X203612300Y-94879715D01*
X203597039Y-94951512D01*
X203595858Y-94962749D01*
X203595856Y-94962760D01*
X203595856Y-94962770D01*
X203536840Y-95564657D01*
X203536840Y-95564930D01*
X203533001Y-95603909D01*
X203533000Y-106668990D01*
X192643965Y-106668990D01*
X192531910Y-106556935D01*
X192507014Y-106540300D01*
X192531910Y-106523665D01*
X192756665Y-106298910D01*
X192933254Y-106034626D01*
X193054891Y-105740970D01*
X193116900Y-105429226D01*
X193116900Y-105111374D01*
X193054891Y-104799630D01*
X192933254Y-104505974D01*
X192756665Y-104241690D01*
X192531910Y-104016935D01*
X192507014Y-104000300D01*
X192531910Y-103983665D01*
X192756665Y-103758910D01*
X192933254Y-103494626D01*
X193054891Y-103200970D01*
X193116900Y-102889226D01*
X193116900Y-102571374D01*
X193054891Y-102259630D01*
X192933254Y-101965974D01*
X192756665Y-101701690D01*
X192531910Y-101476935D01*
X192507014Y-101460300D01*
X192531910Y-101443665D01*
X192756665Y-101218910D01*
X192933254Y-100954626D01*
X193054891Y-100660970D01*
X193116900Y-100349226D01*
X193116900Y-100031374D01*
X193054891Y-99719630D01*
X192933254Y-99425974D01*
X192756665Y-99161690D01*
X192531910Y-98936935D01*
X192507014Y-98920300D01*
X192531910Y-98903665D01*
X192756665Y-98678910D01*
X192933254Y-98414626D01*
X193054891Y-98120970D01*
X193116900Y-97809226D01*
X193116900Y-97491374D01*
X193054891Y-97179630D01*
X192933254Y-96885974D01*
X192756665Y-96621690D01*
X192531910Y-96396935D01*
X192507014Y-96380300D01*
X192531910Y-96363665D01*
X192756665Y-96138910D01*
X192933254Y-95874626D01*
X193054891Y-95580970D01*
X193116900Y-95269226D01*
X193116900Y-94951374D01*
X193054891Y-94639630D01*
X192933254Y-94345974D01*
X192756665Y-94081690D01*
X192531910Y-93856935D01*
X192507014Y-93840300D01*
X192531910Y-93823665D01*
X192756665Y-93598910D01*
X192933254Y-93334626D01*
X193054891Y-93040970D01*
X193116900Y-92729226D01*
X193116900Y-92438194D01*
X193165751Y-92599234D01*
X193203812Y-92670441D01*
X193258609Y-92772958D01*
X193383573Y-92925228D01*
X193421732Y-92956544D01*
X195246372Y-94781185D01*
X195246372Y-95820600D01*
X195260853Y-95967626D01*
X195303739Y-96109001D01*
X195373381Y-96239293D01*
X195467105Y-96353495D01*
X195581307Y-96447219D01*
X195711599Y-96516861D01*
X195852974Y-96559747D01*
X196000000Y-96574228D01*
X197700000Y-96574228D01*
X197847026Y-96559747D01*
X197988401Y-96516861D01*
X198118693Y-96447219D01*
X198232895Y-96353495D01*
X198326619Y-96239293D01*
X198396261Y-96109001D01*
X198439147Y-95967626D01*
X198453628Y-95820600D01*
X198453628Y-94120600D01*
X198439147Y-93973574D01*
X198396261Y-93832199D01*
X198326619Y-93701907D01*
X198232895Y-93587705D01*
X198118693Y-93493981D01*
X197988401Y-93424339D01*
X197972469Y-93419506D01*
X198121738Y-93226021D01*
X198252481Y-92962633D01*
X198311698Y-92767407D01*
X198183451Y-92534600D01*
X196954000Y-92534600D01*
X196954000Y-92554600D01*
X196746000Y-92554600D01*
X196746000Y-92534600D01*
X196726000Y-92534600D01*
X196726000Y-92326600D01*
X196746000Y-92326600D01*
X196746000Y-92306600D01*
X196954000Y-92306600D01*
X196954000Y-92326600D01*
X198183451Y-92326600D01*
X198311698Y-92093793D01*
X198252481Y-91898567D01*
X198121738Y-91635179D01*
X197942123Y-91402359D01*
X197736230Y-91222744D01*
X197869941Y-91133401D01*
X198092801Y-90910541D01*
X198267902Y-90648484D01*
X198388513Y-90357303D01*
X198450000Y-90048186D01*
X198450000Y-89733014D01*
X198388513Y-89423897D01*
X198267902Y-89132716D01*
X198092801Y-88870659D01*
X198000261Y-88778119D01*
X204225824Y-88778119D01*
X204282685Y-89396005D01*
X204458997Y-89990924D01*
X204747985Y-90540015D01*
X204770519Y-90573740D01*
X205195476Y-90846846D01*
X207243922Y-88798400D01*
X207538078Y-88798400D01*
X209586524Y-90846846D01*
X210011481Y-90573740D01*
X210307481Y-90028397D01*
X210491402Y-89435786D01*
X210556176Y-88818681D01*
X210499315Y-88200795D01*
X210323003Y-87605876D01*
X210034015Y-87056785D01*
X210011481Y-87023060D01*
X209586524Y-86749954D01*
X207538078Y-88798400D01*
X207243922Y-88798400D01*
X205195476Y-86749954D01*
X204770519Y-87023060D01*
X204474519Y-87568403D01*
X204290598Y-88161014D01*
X204225824Y-88778119D01*
X198000261Y-88778119D01*
X197869941Y-88647799D01*
X197829235Y-88620600D01*
X197869941Y-88593401D01*
X198092801Y-88370541D01*
X198267902Y-88108484D01*
X198388513Y-87817303D01*
X198450000Y-87508186D01*
X198450000Y-87193014D01*
X198388513Y-86883897D01*
X198272111Y-86602876D01*
X205342554Y-86602876D01*
X207391000Y-88651322D01*
X209439446Y-86602876D01*
X209166340Y-86177919D01*
X208620997Y-85881919D01*
X208028386Y-85697998D01*
X207411281Y-85633224D01*
X206793395Y-85690085D01*
X206198476Y-85866397D01*
X205649385Y-86155385D01*
X205615660Y-86177919D01*
X205342554Y-86602876D01*
X198272111Y-86602876D01*
X198267902Y-86592716D01*
X198092801Y-86330659D01*
X197869941Y-86107799D01*
X197607884Y-85932698D01*
X197316703Y-85812087D01*
X197007586Y-85750600D01*
X196692414Y-85750600D01*
X196383297Y-85812087D01*
X196092116Y-85932698D01*
X195830059Y-86107799D01*
X195607199Y-86330659D01*
X195432098Y-86592716D01*
X195311487Y-86883897D01*
X195250000Y-87193014D01*
X195250000Y-87508186D01*
X195311487Y-87817303D01*
X195432098Y-88108484D01*
X195607199Y-88370541D01*
X195830059Y-88593401D01*
X195870765Y-88620600D01*
X195830059Y-88647799D01*
X195607199Y-88870659D01*
X195432098Y-89132716D01*
X195311487Y-89423897D01*
X195250000Y-89733014D01*
X195250000Y-90048186D01*
X195311487Y-90357303D01*
X195432098Y-90648484D01*
X195607199Y-90910541D01*
X195830059Y-91133401D01*
X195963770Y-91222744D01*
X195757877Y-91402359D01*
X195578262Y-91635179D01*
X195447519Y-91898567D01*
X195388302Y-92093793D01*
X195389402Y-92095790D01*
X195094100Y-91800488D01*
X195094100Y-79970209D01*
X195098937Y-79921099D01*
X195094100Y-79871989D01*
X195094100Y-79871980D01*
X195079630Y-79725066D01*
X195022449Y-79536565D01*
X194929592Y-79362842D01*
X194804628Y-79210572D01*
X194766474Y-79179260D01*
X193110187Y-77522974D01*
X193116900Y-77489226D01*
X193116900Y-77171374D01*
X193054891Y-76859630D01*
X192933254Y-76565974D01*
X192756665Y-76301690D01*
X192531910Y-76076935D01*
X192267626Y-75900346D01*
X191973970Y-75778709D01*
X191662226Y-75716700D01*
X191344374Y-75716700D01*
X191032630Y-75778709D01*
X190738974Y-75900346D01*
X190474690Y-76076935D01*
X190249935Y-76301690D01*
X190233300Y-76326586D01*
X190216665Y-76301690D01*
X189991910Y-76076935D01*
X189727626Y-75900346D01*
X189433970Y-75778709D01*
X189122226Y-75716700D01*
X188804374Y-75716700D01*
X188492630Y-75778709D01*
X188198974Y-75900346D01*
X187934690Y-76076935D01*
X187709935Y-76301690D01*
X187690818Y-76330300D01*
X187285220Y-76330300D01*
X187236100Y-76325462D01*
X187186980Y-76330300D01*
X187040066Y-76344770D01*
X186851565Y-76401951D01*
X186677842Y-76494808D01*
X186525572Y-76619772D01*
X186494260Y-76657926D01*
X183862787Y-79289401D01*
X162259485Y-79289401D01*
X162246161Y-79269460D01*
X162023301Y-79046600D01*
X161761244Y-78871499D01*
X161470063Y-78750888D01*
X161160946Y-78689401D01*
X160845774Y-78689401D01*
X160536657Y-78750888D01*
X160245476Y-78871499D01*
X159983419Y-79046600D01*
X159760559Y-79269460D01*
X159747235Y-79289401D01*
X156665516Y-79289401D01*
X156616398Y-79284563D01*
X156567280Y-79289401D01*
X156567279Y-79289401D01*
X156420365Y-79303871D01*
X156231864Y-79361052D01*
X156058141Y-79453909D01*
X155905871Y-79578873D01*
X155874554Y-79617033D01*
X152781737Y-82709851D01*
X152743572Y-82741172D01*
X152618608Y-82893442D01*
X152525752Y-83067165D01*
X152525751Y-83067166D01*
X152468570Y-83255666D01*
X152449262Y-83451700D01*
X152454100Y-83500821D01*
X152454100Y-84393268D01*
X152250136Y-84597232D01*
X152080508Y-84851100D01*
X151963665Y-85133182D01*
X151904100Y-85432638D01*
X151904100Y-85737962D01*
X151963665Y-86037418D01*
X152080508Y-86319500D01*
X152250136Y-86573368D01*
X152454100Y-86777332D01*
X152454101Y-88981086D01*
X152365208Y-89069979D01*
X152341686Y-89065300D01*
X152026514Y-89065300D01*
X151717397Y-89126787D01*
X151426216Y-89247398D01*
X151164159Y-89422499D01*
X150941299Y-89645359D01*
X150914100Y-89686065D01*
X150886901Y-89645359D01*
X150664041Y-89422499D01*
X150401984Y-89247398D01*
X150110803Y-89126787D01*
X149801686Y-89065300D01*
X149486514Y-89065300D01*
X149177397Y-89126787D01*
X148886216Y-89247398D01*
X148624159Y-89422499D01*
X148530977Y-89515681D01*
X148497170Y-89452432D01*
X148415943Y-89353457D01*
X148316968Y-89272230D01*
X148204048Y-89211873D01*
X148081522Y-89174705D01*
X147954100Y-89162155D01*
X147370600Y-89165300D01*
X147208100Y-89327800D01*
X147208100Y-90561300D01*
X147228100Y-90561300D01*
X147228100Y-90769300D01*
X147208100Y-90769300D01*
X147208100Y-92002800D01*
X147370600Y-92165300D01*
X147954100Y-92168445D01*
X148081522Y-92155895D01*
X148204048Y-92118727D01*
X148316968Y-92058370D01*
X148415943Y-91977143D01*
X148497170Y-91878168D01*
X148530977Y-91814919D01*
X148624159Y-91908101D01*
X148886216Y-92083202D01*
X149177397Y-92203813D01*
X149486514Y-92265300D01*
X149801686Y-92265300D01*
X150110803Y-92203813D01*
X150401984Y-92083202D01*
X150664041Y-91908101D01*
X150886901Y-91685241D01*
X150914100Y-91644535D01*
X150941299Y-91685241D01*
X151164159Y-91908101D01*
X151184100Y-91921425D01*
X151184101Y-93108586D01*
X140869137Y-103423551D01*
X140830972Y-103454872D01*
X140706008Y-103607142D01*
X140613152Y-103780865D01*
X140613151Y-103780866D01*
X140555970Y-103969366D01*
X140536662Y-104165400D01*
X140541500Y-104214520D01*
X140541501Y-106403900D01*
X137561514Y-106403900D01*
X135577748Y-104420136D01*
X135546427Y-104381971D01*
X135394157Y-104257007D01*
X135220434Y-104164150D01*
X135031933Y-104106969D01*
X134885019Y-104092499D01*
X134835899Y-104087661D01*
X134786779Y-104092499D01*
X133450425Y-104092499D01*
X133437101Y-104072558D01*
X133214241Y-103849698D01*
X132952184Y-103674597D01*
X132661003Y-103553986D01*
X132351886Y-103492499D01*
X132036714Y-103492499D01*
X132013192Y-103497178D01*
X129519850Y-101003837D01*
X129488529Y-100965672D01*
X129336259Y-100840708D01*
X129162536Y-100747851D01*
X128974035Y-100690670D01*
X128827121Y-100676200D01*
X128778001Y-100671362D01*
X128728881Y-100676200D01*
X118219412Y-100676200D01*
X117363281Y-99820069D01*
X117408303Y-99811114D01*
X117699484Y-99690503D01*
X117961541Y-99515402D01*
X118184401Y-99292542D01*
X118273744Y-99158831D01*
X118453359Y-99364724D01*
X118686179Y-99544339D01*
X118949567Y-99675082D01*
X119144793Y-99734299D01*
X119377600Y-99606052D01*
X119377600Y-98376601D01*
X119357600Y-98376601D01*
X119357600Y-98168601D01*
X119377600Y-98168601D01*
X119377600Y-96939150D01*
X119585600Y-96939150D01*
X119585600Y-98168601D01*
X119605600Y-98168601D01*
X119605600Y-98376601D01*
X119585600Y-98376601D01*
X119585600Y-99606052D01*
X119818407Y-99734299D01*
X120013633Y-99675082D01*
X120277021Y-99544339D01*
X120509841Y-99364724D01*
X120689456Y-99158832D01*
X120778798Y-99292542D01*
X121001658Y-99515402D01*
X121263715Y-99690503D01*
X121554896Y-99811114D01*
X121864013Y-99872601D01*
X122179185Y-99872601D01*
X122488302Y-99811114D01*
X122779483Y-99690503D01*
X123041540Y-99515402D01*
X123264400Y-99292542D01*
X123291600Y-99251835D01*
X123318799Y-99292541D01*
X123541659Y-99515401D01*
X123803716Y-99690502D01*
X124094897Y-99811113D01*
X124404014Y-99872600D01*
X124719186Y-99872600D01*
X125028303Y-99811113D01*
X125319484Y-99690502D01*
X125581541Y-99515401D01*
X125804401Y-99292541D01*
X125831600Y-99251836D01*
X125858798Y-99292541D01*
X126081658Y-99515401D01*
X126343715Y-99690502D01*
X126634896Y-99811113D01*
X126944013Y-99872600D01*
X127259185Y-99872600D01*
X127568302Y-99811113D01*
X127859483Y-99690502D01*
X128121540Y-99515401D01*
X128344400Y-99292541D01*
X128371599Y-99251835D01*
X128398798Y-99292541D01*
X128621658Y-99515401D01*
X128883715Y-99690502D01*
X129174896Y-99811113D01*
X129484013Y-99872600D01*
X129799185Y-99872600D01*
X130108302Y-99811113D01*
X130399483Y-99690502D01*
X130661540Y-99515401D01*
X130884400Y-99292541D01*
X130911600Y-99251834D01*
X130938799Y-99292541D01*
X131161659Y-99515401D01*
X131423716Y-99690502D01*
X131714897Y-99811113D01*
X132024014Y-99872600D01*
X132339186Y-99872600D01*
X132648303Y-99811113D01*
X132939484Y-99690502D01*
X133201541Y-99515401D01*
X133424401Y-99292541D01*
X133451601Y-99251834D01*
X133478800Y-99292541D01*
X133701660Y-99515401D01*
X133963717Y-99690502D01*
X134254898Y-99811113D01*
X134564015Y-99872600D01*
X134879187Y-99872600D01*
X135188304Y-99811113D01*
X135479485Y-99690502D01*
X135741542Y-99515401D01*
X135964402Y-99292541D01*
X136139503Y-99030484D01*
X136207258Y-98866910D01*
X136310600Y-99202822D01*
X136534753Y-99618244D01*
X136835644Y-99981954D01*
X137201710Y-100279974D01*
X137618883Y-100500852D01*
X138052549Y-100632400D01*
X138427601Y-100515624D01*
X138427601Y-98376600D01*
X138635601Y-98376600D01*
X138635601Y-100515624D01*
X139010653Y-100632400D01*
X139444319Y-100500852D01*
X139861492Y-100279974D01*
X140227558Y-99981954D01*
X140528449Y-99618244D01*
X140752602Y-99202822D01*
X140891403Y-98751652D01*
X140774790Y-98376600D01*
X138635601Y-98376600D01*
X138427601Y-98376600D01*
X138407601Y-98376600D01*
X138407601Y-98168600D01*
X138427601Y-98168600D01*
X138427601Y-96029576D01*
X138635601Y-96029576D01*
X138635601Y-98168600D01*
X140774790Y-98168600D01*
X140891403Y-97793548D01*
X140752602Y-97342378D01*
X140528449Y-96926956D01*
X140227558Y-96563246D01*
X139861492Y-96265226D01*
X139444319Y-96044348D01*
X139010653Y-95912800D01*
X138635601Y-96029576D01*
X138427601Y-96029576D01*
X138052549Y-95912800D01*
X137618883Y-96044348D01*
X137201710Y-96265226D01*
X136835644Y-96563246D01*
X136534753Y-96926956D01*
X136310600Y-97342378D01*
X136207258Y-97678290D01*
X136139503Y-97514716D01*
X135964402Y-97252659D01*
X135741542Y-97029799D01*
X135479485Y-96854698D01*
X135188304Y-96734087D01*
X134879187Y-96672600D01*
X134564015Y-96672600D01*
X134254898Y-96734087D01*
X133963717Y-96854698D01*
X133701660Y-97029799D01*
X133478800Y-97252659D01*
X133451601Y-97293366D01*
X133424401Y-97252659D01*
X133201541Y-97029799D01*
X132939484Y-96854698D01*
X132648303Y-96734087D01*
X132339186Y-96672600D01*
X132024014Y-96672600D01*
X131714897Y-96734087D01*
X131423716Y-96854698D01*
X131161659Y-97029799D01*
X130938799Y-97252659D01*
X130911600Y-97293366D01*
X130884400Y-97252659D01*
X130661540Y-97029799D01*
X130399483Y-96854698D01*
X130108302Y-96734087D01*
X129799185Y-96672600D01*
X129484013Y-96672600D01*
X129174896Y-96734087D01*
X128883715Y-96854698D01*
X128621658Y-97029799D01*
X128398798Y-97252659D01*
X128371599Y-97293365D01*
X128344400Y-97252659D01*
X128121540Y-97029799D01*
X127859483Y-96854698D01*
X127568302Y-96734087D01*
X127259185Y-96672600D01*
X126944013Y-96672600D01*
X126634896Y-96734087D01*
X126343715Y-96854698D01*
X126081658Y-97029799D01*
X125858798Y-97252659D01*
X125831600Y-97293364D01*
X125804401Y-97252659D01*
X125581541Y-97029799D01*
X125319484Y-96854698D01*
X125028303Y-96734087D01*
X124719186Y-96672600D01*
X124404014Y-96672600D01*
X124094897Y-96734087D01*
X123803716Y-96854698D01*
X123541659Y-97029799D01*
X123318799Y-97252659D01*
X123291599Y-97293366D01*
X123264400Y-97252660D01*
X123041540Y-97029800D01*
X122779483Y-96854699D01*
X122488302Y-96734088D01*
X122179185Y-96672601D01*
X121864013Y-96672601D01*
X121554896Y-96734088D01*
X121263715Y-96854699D01*
X121001658Y-97029800D01*
X120778798Y-97252660D01*
X120689456Y-97386370D01*
X120509841Y-97180478D01*
X120277021Y-97000863D01*
X120013633Y-96870120D01*
X119818407Y-96810903D01*
X119585600Y-96939150D01*
X119377600Y-96939150D01*
X119144793Y-96810903D01*
X118949567Y-96870120D01*
X118686179Y-97000863D01*
X118453359Y-97180478D01*
X118273744Y-97386371D01*
X118184401Y-97252660D01*
X117961541Y-97029800D01*
X117699484Y-96854699D01*
X117408303Y-96734088D01*
X117099186Y-96672601D01*
X116784014Y-96672601D01*
X116474897Y-96734088D01*
X116183716Y-96854699D01*
X115921659Y-97029800D01*
X115698799Y-97252660D01*
X115671600Y-97293366D01*
X115644401Y-97252660D01*
X115421541Y-97029800D01*
X115159484Y-96854699D01*
X114868303Y-96734088D01*
X114559186Y-96672601D01*
X114244014Y-96672601D01*
X113934897Y-96734088D01*
X113643716Y-96854699D01*
X113381659Y-97029800D01*
X113158799Y-97252660D01*
X112983698Y-97514717D01*
X112915944Y-97678290D01*
X112812602Y-97342378D01*
X112588449Y-96926956D01*
X112287558Y-96563246D01*
X111921492Y-96265226D01*
X111504319Y-96044348D01*
X111070653Y-95912800D01*
X110695601Y-96029576D01*
X110487601Y-96029576D01*
X110112549Y-95912800D01*
X109678883Y-96044348D01*
X109261710Y-96265226D01*
X108895644Y-96563246D01*
X108594753Y-96926956D01*
X108370600Y-97342378D01*
X108231799Y-97793548D01*
X106602900Y-97793548D01*
X106602900Y-91515300D01*
X145600955Y-91515300D01*
X145613505Y-91642722D01*
X145650673Y-91765248D01*
X145711030Y-91878168D01*
X145792257Y-91977143D01*
X145891232Y-92058370D01*
X146004152Y-92118727D01*
X146126678Y-92155895D01*
X146254100Y-92168445D01*
X146837600Y-92165300D01*
X147000100Y-92002800D01*
X147000100Y-90769300D01*
X145766600Y-90769300D01*
X145604100Y-90931800D01*
X145600955Y-91515300D01*
X106602900Y-91515300D01*
X106602900Y-89815300D01*
X145600955Y-89815300D01*
X145604100Y-90398800D01*
X145766600Y-90561300D01*
X147000100Y-90561300D01*
X147000100Y-89327800D01*
X146837600Y-89165300D01*
X146254100Y-89162155D01*
X146126678Y-89174705D01*
X146004152Y-89211873D01*
X145891232Y-89272230D01*
X145792257Y-89353457D01*
X145711030Y-89452432D01*
X145650673Y-89565352D01*
X145613505Y-89687878D01*
X145600955Y-89815300D01*
X106602900Y-89815300D01*
X106602900Y-85432638D01*
X144284100Y-85432638D01*
X144284100Y-85737962D01*
X144343665Y-86037418D01*
X144460508Y-86319500D01*
X144630136Y-86573368D01*
X144846032Y-86789264D01*
X145099900Y-86958892D01*
X145381982Y-87075735D01*
X145681438Y-87135300D01*
X145986762Y-87135300D01*
X146286218Y-87075735D01*
X146568300Y-86958892D01*
X146822168Y-86789264D01*
X147038064Y-86573368D01*
X147207692Y-86319500D01*
X147324535Y-86037418D01*
X147384100Y-85737962D01*
X147384100Y-85432638D01*
X147324535Y-85133182D01*
X147207692Y-84851100D01*
X147038064Y-84597232D01*
X146822168Y-84381336D01*
X146568300Y-84211708D01*
X146286218Y-84094865D01*
X145986762Y-84035300D01*
X145681438Y-84035300D01*
X145381982Y-84094865D01*
X145099900Y-84211708D01*
X144846032Y-84381336D01*
X144630136Y-84597232D01*
X144460508Y-84851100D01*
X144343665Y-85133182D01*
X144284100Y-85432638D01*
X106602900Y-85432638D01*
X106602900Y-83511653D01*
X108231799Y-83511653D01*
X108370600Y-83962823D01*
X108594753Y-84378245D01*
X108895644Y-84741955D01*
X109261710Y-85039975D01*
X109678883Y-85260853D01*
X110112549Y-85392401D01*
X110487601Y-85275625D01*
X110487601Y-83136601D01*
X110695601Y-83136601D01*
X110695601Y-85275625D01*
X111070653Y-85392401D01*
X111504319Y-85260853D01*
X111921492Y-85039975D01*
X112287558Y-84741955D01*
X112588449Y-84378245D01*
X112812602Y-83962823D01*
X112951403Y-83511653D01*
X112834790Y-83136601D01*
X110695601Y-83136601D01*
X110487601Y-83136601D01*
X108348412Y-83136601D01*
X108231799Y-83511653D01*
X106602900Y-83511653D01*
X106602900Y-82553549D01*
X108231799Y-82553549D01*
X108348412Y-82928601D01*
X110487601Y-82928601D01*
X110487601Y-80789577D01*
X110695601Y-80789577D01*
X110695601Y-82928601D01*
X112834790Y-82928601D01*
X112851450Y-82875016D01*
X117881600Y-82875016D01*
X117881600Y-83190188D01*
X117943087Y-83499305D01*
X118063698Y-83790486D01*
X118238799Y-84052543D01*
X118461659Y-84275403D01*
X118723716Y-84450504D01*
X119014897Y-84571115D01*
X119324014Y-84632602D01*
X119639186Y-84632602D01*
X119948303Y-84571115D01*
X120239484Y-84450504D01*
X120501541Y-84275403D01*
X120724401Y-84052543D01*
X120751600Y-84011838D01*
X120778798Y-84052543D01*
X121001658Y-84275403D01*
X121263715Y-84450504D01*
X121554896Y-84571115D01*
X121864013Y-84632602D01*
X122179185Y-84632602D01*
X122488302Y-84571115D01*
X122779483Y-84450504D01*
X123041540Y-84275403D01*
X123264400Y-84052543D01*
X123291600Y-84011836D01*
X123318799Y-84052542D01*
X123541659Y-84275402D01*
X123803716Y-84450503D01*
X124094897Y-84571114D01*
X124404014Y-84632601D01*
X124719186Y-84632601D01*
X125028303Y-84571114D01*
X125319484Y-84450503D01*
X125581541Y-84275402D01*
X125804401Y-84052542D01*
X125831600Y-84011837D01*
X125858798Y-84052542D01*
X126081658Y-84275402D01*
X126343715Y-84450503D01*
X126634896Y-84571114D01*
X126944013Y-84632601D01*
X127259185Y-84632601D01*
X127568302Y-84571114D01*
X127859483Y-84450503D01*
X128121540Y-84275402D01*
X128344400Y-84052542D01*
X128371599Y-84011836D01*
X128398798Y-84052542D01*
X128621658Y-84275402D01*
X128883715Y-84450503D01*
X129174896Y-84571114D01*
X129484013Y-84632601D01*
X129799185Y-84632601D01*
X130108302Y-84571114D01*
X130399483Y-84450503D01*
X130661540Y-84275402D01*
X130884400Y-84052542D01*
X131059501Y-83790485D01*
X131174996Y-83511653D01*
X136171799Y-83511653D01*
X136310600Y-83962823D01*
X136534753Y-84378245D01*
X136835644Y-84741955D01*
X137201710Y-85039975D01*
X137618883Y-85260853D01*
X138052549Y-85392401D01*
X138427601Y-85275625D01*
X138427601Y-83136601D01*
X138635601Y-83136601D01*
X138635601Y-85275625D01*
X139010653Y-85392401D01*
X139444319Y-85260853D01*
X139861492Y-85039975D01*
X140227558Y-84741955D01*
X140528449Y-84378245D01*
X140752602Y-83962823D01*
X140891403Y-83511653D01*
X140774790Y-83136601D01*
X138635601Y-83136601D01*
X138427601Y-83136601D01*
X136288412Y-83136601D01*
X136171799Y-83511653D01*
X131174996Y-83511653D01*
X131180112Y-83499304D01*
X131241599Y-83190187D01*
X131241599Y-82875015D01*
X131180112Y-82565898D01*
X131174997Y-82553549D01*
X136171799Y-82553549D01*
X136288412Y-82928601D01*
X138427601Y-82928601D01*
X138427601Y-80789577D01*
X138635601Y-80789577D01*
X138635601Y-82928601D01*
X140774790Y-82928601D01*
X140891403Y-82553549D01*
X140752602Y-82102379D01*
X140528449Y-81686957D01*
X140227558Y-81323247D01*
X139861492Y-81025227D01*
X139444319Y-80804349D01*
X139010653Y-80672801D01*
X138635601Y-80789577D01*
X138427601Y-80789577D01*
X138052549Y-80672801D01*
X137618883Y-80804349D01*
X137201710Y-81025227D01*
X136835644Y-81323247D01*
X136534753Y-81686957D01*
X136310600Y-82102379D01*
X136171799Y-82553549D01*
X131174997Y-82553549D01*
X131059501Y-82274717D01*
X130884400Y-82012660D01*
X130661540Y-81789800D01*
X130399483Y-81614699D01*
X130108302Y-81494088D01*
X129799185Y-81432601D01*
X129484013Y-81432601D01*
X129174896Y-81494088D01*
X128883715Y-81614699D01*
X128621658Y-81789800D01*
X128398798Y-82012660D01*
X128371599Y-82053366D01*
X128344400Y-82012660D01*
X128121540Y-81789800D01*
X127859483Y-81614699D01*
X127568302Y-81494088D01*
X127259185Y-81432601D01*
X126944013Y-81432601D01*
X126634896Y-81494088D01*
X126343715Y-81614699D01*
X126081658Y-81789800D01*
X125858798Y-82012660D01*
X125831600Y-82053365D01*
X125804401Y-82012660D01*
X125581541Y-81789800D01*
X125319484Y-81614699D01*
X125028303Y-81494088D01*
X124719186Y-81432601D01*
X124404014Y-81432601D01*
X124094897Y-81494088D01*
X123803716Y-81614699D01*
X123541659Y-81789800D01*
X123318799Y-82012660D01*
X123291599Y-82053367D01*
X123264400Y-82012661D01*
X123041540Y-81789801D01*
X122779483Y-81614700D01*
X122488302Y-81494089D01*
X122179185Y-81432602D01*
X121864013Y-81432602D01*
X121554896Y-81494089D01*
X121263715Y-81614700D01*
X121001658Y-81789801D01*
X120778798Y-82012661D01*
X120751600Y-82053366D01*
X120724401Y-82012661D01*
X120501541Y-81789801D01*
X120239484Y-81614700D01*
X119948303Y-81494089D01*
X119639186Y-81432602D01*
X119324014Y-81432602D01*
X119014897Y-81494089D01*
X118723716Y-81614700D01*
X118461659Y-81789801D01*
X118238799Y-82012661D01*
X118063698Y-82274718D01*
X117943087Y-82565899D01*
X117881600Y-82875016D01*
X112851450Y-82875016D01*
X112951403Y-82553549D01*
X112812602Y-82102379D01*
X112588449Y-81686957D01*
X112287558Y-81323247D01*
X111921492Y-81025227D01*
X111504319Y-80804349D01*
X111070653Y-80672801D01*
X110695601Y-80789577D01*
X110487601Y-80789577D01*
X110112549Y-80672801D01*
X109678883Y-80804349D01*
X109261710Y-81025227D01*
X108895644Y-81323247D01*
X108594753Y-81686957D01*
X108370600Y-82102379D01*
X108231799Y-82553549D01*
X106602900Y-82553549D01*
X106602900Y-77171374D01*
X112165700Y-77171374D01*
X112165700Y-77489226D01*
X112227709Y-77800970D01*
X112349346Y-78094626D01*
X112525935Y-78358910D01*
X112750690Y-78583665D01*
X113014974Y-78760254D01*
X113308630Y-78881891D01*
X113620374Y-78943900D01*
X113938226Y-78943900D01*
X114249970Y-78881891D01*
X114543626Y-78760254D01*
X114807910Y-78583665D01*
X115032665Y-78358910D01*
X115049300Y-78334014D01*
X115065935Y-78358910D01*
X115290690Y-78583665D01*
X115554974Y-78760254D01*
X115848630Y-78881891D01*
X116160374Y-78943900D01*
X116478226Y-78943900D01*
X116789970Y-78881891D01*
X117083626Y-78760254D01*
X117347910Y-78583665D01*
X117572665Y-78358910D01*
X117589300Y-78334014D01*
X117605935Y-78358910D01*
X117830690Y-78583665D01*
X118094974Y-78760254D01*
X118388630Y-78881891D01*
X118700374Y-78943900D01*
X119018226Y-78943900D01*
X119329970Y-78881891D01*
X119623626Y-78760254D01*
X119887910Y-78583665D01*
X120112665Y-78358910D01*
X120195133Y-78235487D01*
X120297922Y-78368552D01*
X120521638Y-78563470D01*
X120779082Y-78710998D01*
X121060360Y-78805467D01*
X121295300Y-78677827D01*
X121295300Y-77434300D01*
X121275300Y-77434300D01*
X121275300Y-77226300D01*
X121295300Y-77226300D01*
X121295300Y-75982773D01*
X121503300Y-75982773D01*
X121503300Y-77226300D01*
X121523300Y-77226300D01*
X121523300Y-77434300D01*
X121503300Y-77434300D01*
X121503300Y-78677827D01*
X121738240Y-78805467D01*
X122019518Y-78710998D01*
X122276962Y-78563470D01*
X122500678Y-78368552D01*
X122603467Y-78235487D01*
X122685935Y-78358910D01*
X122910690Y-78583665D01*
X123174974Y-78760254D01*
X123468630Y-78881891D01*
X123780374Y-78943900D01*
X124098226Y-78943900D01*
X124409970Y-78881891D01*
X124703626Y-78760254D01*
X124967910Y-78583665D01*
X125192665Y-78358910D01*
X125209300Y-78334014D01*
X125225935Y-78358910D01*
X125450690Y-78583665D01*
X125714974Y-78760254D01*
X126008630Y-78881891D01*
X126320374Y-78943900D01*
X126638226Y-78943900D01*
X126949970Y-78881891D01*
X127243626Y-78760254D01*
X127507910Y-78583665D01*
X127732665Y-78358910D01*
X127749300Y-78334014D01*
X127765935Y-78358910D01*
X127990690Y-78583665D01*
X128254974Y-78760254D01*
X128548630Y-78881891D01*
X128860374Y-78943900D01*
X129178226Y-78943900D01*
X129489970Y-78881891D01*
X129783626Y-78760254D01*
X130047910Y-78583665D01*
X130272665Y-78358910D01*
X130289300Y-78334014D01*
X130305935Y-78358910D01*
X130530690Y-78583665D01*
X130794974Y-78760254D01*
X131088630Y-78881891D01*
X131400374Y-78943900D01*
X131718226Y-78943900D01*
X132029970Y-78881891D01*
X132323626Y-78760254D01*
X132587910Y-78583665D01*
X132812665Y-78358910D01*
X132829300Y-78334014D01*
X132845935Y-78358910D01*
X133070690Y-78583665D01*
X133334974Y-78760254D01*
X133628630Y-78881891D01*
X133940374Y-78943900D01*
X134258226Y-78943900D01*
X134569970Y-78881891D01*
X134863626Y-78760254D01*
X135127910Y-78583665D01*
X135352665Y-78358910D01*
X135369300Y-78334014D01*
X135385935Y-78358910D01*
X135610690Y-78583665D01*
X135874974Y-78760254D01*
X136168630Y-78881891D01*
X136480374Y-78943900D01*
X136798226Y-78943900D01*
X137109970Y-78881891D01*
X137403626Y-78760254D01*
X137667910Y-78583665D01*
X137892665Y-78358910D01*
X138069254Y-78094626D01*
X138190891Y-77800970D01*
X138252900Y-77489226D01*
X138252900Y-77171374D01*
X139089700Y-77171374D01*
X139089700Y-77489226D01*
X139151709Y-77800970D01*
X139273346Y-78094626D01*
X139449935Y-78358910D01*
X139674690Y-78583665D01*
X139938974Y-78760254D01*
X140232630Y-78881891D01*
X140544374Y-78943900D01*
X140862226Y-78943900D01*
X141173970Y-78881891D01*
X141467626Y-78760254D01*
X141731910Y-78583665D01*
X141956665Y-78358910D01*
X141973300Y-78334014D01*
X141989935Y-78358910D01*
X142214690Y-78583665D01*
X142478974Y-78760254D01*
X142772630Y-78881891D01*
X143084374Y-78943900D01*
X143402226Y-78943900D01*
X143713970Y-78881891D01*
X144007626Y-78760254D01*
X144271910Y-78583665D01*
X144496665Y-78358910D01*
X144513300Y-78334014D01*
X144529935Y-78358910D01*
X144754690Y-78583665D01*
X145018974Y-78760254D01*
X145312630Y-78881891D01*
X145624374Y-78943900D01*
X145942226Y-78943900D01*
X146253970Y-78881891D01*
X146547626Y-78760254D01*
X146811910Y-78583665D01*
X147036665Y-78358910D01*
X147053300Y-78334014D01*
X147069935Y-78358910D01*
X147294690Y-78583665D01*
X147558974Y-78760254D01*
X147852630Y-78881891D01*
X148164374Y-78943900D01*
X148482226Y-78943900D01*
X148793970Y-78881891D01*
X149087626Y-78760254D01*
X149351910Y-78583665D01*
X149576665Y-78358910D01*
X149593300Y-78334014D01*
X149609935Y-78358910D01*
X149834690Y-78583665D01*
X150098974Y-78760254D01*
X150392630Y-78881891D01*
X150704374Y-78943900D01*
X151022226Y-78943900D01*
X151333970Y-78881891D01*
X151627626Y-78760254D01*
X151891910Y-78583665D01*
X152116665Y-78358910D01*
X152133300Y-78334014D01*
X152149935Y-78358910D01*
X152374690Y-78583665D01*
X152638974Y-78760254D01*
X152932630Y-78881891D01*
X153244374Y-78943900D01*
X153562226Y-78943900D01*
X153873970Y-78881891D01*
X154167626Y-78760254D01*
X154431910Y-78583665D01*
X154656665Y-78358910D01*
X154673300Y-78334014D01*
X154689935Y-78358910D01*
X154914690Y-78583665D01*
X155178974Y-78760254D01*
X155472630Y-78881891D01*
X155784374Y-78943900D01*
X156102226Y-78943900D01*
X156413970Y-78881891D01*
X156707626Y-78760254D01*
X156971910Y-78583665D01*
X157196665Y-78358910D01*
X157213300Y-78334014D01*
X157229935Y-78358910D01*
X157454690Y-78583665D01*
X157718974Y-78760254D01*
X158012630Y-78881891D01*
X158324374Y-78943900D01*
X158642226Y-78943900D01*
X158953970Y-78881891D01*
X159247626Y-78760254D01*
X159511910Y-78583665D01*
X159736665Y-78358910D01*
X159913254Y-78094626D01*
X160034891Y-77800970D01*
X160096900Y-77489226D01*
X160096900Y-77171374D01*
X161949700Y-77171374D01*
X161949700Y-77489226D01*
X162011709Y-77800970D01*
X162133346Y-78094626D01*
X162309935Y-78358910D01*
X162534690Y-78583665D01*
X162798974Y-78760254D01*
X163092630Y-78881891D01*
X163404374Y-78943900D01*
X163722226Y-78943900D01*
X164033970Y-78881891D01*
X164327626Y-78760254D01*
X164591910Y-78583665D01*
X164816665Y-78358910D01*
X164833300Y-78334014D01*
X164849935Y-78358910D01*
X165074690Y-78583665D01*
X165338974Y-78760254D01*
X165632630Y-78881891D01*
X165944374Y-78943900D01*
X166262226Y-78943900D01*
X166573970Y-78881891D01*
X166867626Y-78760254D01*
X167131910Y-78583665D01*
X167356665Y-78358910D01*
X167373300Y-78334014D01*
X167389935Y-78358910D01*
X167614690Y-78583665D01*
X167878974Y-78760254D01*
X168172630Y-78881891D01*
X168484374Y-78943900D01*
X168802226Y-78943900D01*
X169113970Y-78881891D01*
X169407626Y-78760254D01*
X169671910Y-78583665D01*
X169896665Y-78358910D01*
X169913300Y-78334014D01*
X169929935Y-78358910D01*
X170154690Y-78583665D01*
X170418974Y-78760254D01*
X170712630Y-78881891D01*
X171024374Y-78943900D01*
X171342226Y-78943900D01*
X171653970Y-78881891D01*
X171947626Y-78760254D01*
X172211910Y-78583665D01*
X172436665Y-78358910D01*
X172453300Y-78334014D01*
X172469935Y-78358910D01*
X172694690Y-78583665D01*
X172958974Y-78760254D01*
X173252630Y-78881891D01*
X173564374Y-78943900D01*
X173882226Y-78943900D01*
X174193970Y-78881891D01*
X174487626Y-78760254D01*
X174751910Y-78583665D01*
X174976665Y-78358910D01*
X174993300Y-78334014D01*
X175009935Y-78358910D01*
X175234690Y-78583665D01*
X175498974Y-78760254D01*
X175792630Y-78881891D01*
X176104374Y-78943900D01*
X176422226Y-78943900D01*
X176733970Y-78881891D01*
X177027626Y-78760254D01*
X177291910Y-78583665D01*
X177516665Y-78358910D01*
X177533300Y-78334014D01*
X177549935Y-78358910D01*
X177774690Y-78583665D01*
X178038974Y-78760254D01*
X178332630Y-78881891D01*
X178644374Y-78943900D01*
X178962226Y-78943900D01*
X179273970Y-78881891D01*
X179567626Y-78760254D01*
X179831910Y-78583665D01*
X180056665Y-78358910D01*
X180073300Y-78334014D01*
X180089935Y-78358910D01*
X180314690Y-78583665D01*
X180578974Y-78760254D01*
X180872630Y-78881891D01*
X181184374Y-78943900D01*
X181502226Y-78943900D01*
X181813970Y-78881891D01*
X182107626Y-78760254D01*
X182371910Y-78583665D01*
X182596665Y-78358910D01*
X182773254Y-78094626D01*
X182894891Y-77800970D01*
X182956900Y-77489226D01*
X182956900Y-77171374D01*
X182894891Y-76859630D01*
X182773254Y-76565974D01*
X182596665Y-76301690D01*
X182371910Y-76076935D01*
X182107626Y-75900346D01*
X181813970Y-75778709D01*
X181502226Y-75716700D01*
X181184374Y-75716700D01*
X180872630Y-75778709D01*
X180578974Y-75900346D01*
X180314690Y-76076935D01*
X180089935Y-76301690D01*
X180073300Y-76326586D01*
X180056665Y-76301690D01*
X179831910Y-76076935D01*
X179567626Y-75900346D01*
X179273970Y-75778709D01*
X178962226Y-75716700D01*
X178644374Y-75716700D01*
X178332630Y-75778709D01*
X178038974Y-75900346D01*
X177774690Y-76076935D01*
X177549935Y-76301690D01*
X177533300Y-76326586D01*
X177516665Y-76301690D01*
X177291910Y-76076935D01*
X177027626Y-75900346D01*
X176733970Y-75778709D01*
X176422226Y-75716700D01*
X176104374Y-75716700D01*
X175792630Y-75778709D01*
X175498974Y-75900346D01*
X175234690Y-76076935D01*
X175009935Y-76301690D01*
X174993300Y-76326586D01*
X174976665Y-76301690D01*
X174751910Y-76076935D01*
X174487626Y-75900346D01*
X174193970Y-75778709D01*
X173882226Y-75716700D01*
X173564374Y-75716700D01*
X173252630Y-75778709D01*
X172958974Y-75900346D01*
X172694690Y-76076935D01*
X172469935Y-76301690D01*
X172453300Y-76326586D01*
X172436665Y-76301690D01*
X172211910Y-76076935D01*
X171947626Y-75900346D01*
X171653970Y-75778709D01*
X171342226Y-75716700D01*
X171024374Y-75716700D01*
X170712630Y-75778709D01*
X170418974Y-75900346D01*
X170154690Y-76076935D01*
X169929935Y-76301690D01*
X169913300Y-76326586D01*
X169896665Y-76301690D01*
X169671910Y-76076935D01*
X169407626Y-75900346D01*
X169113970Y-75778709D01*
X168802226Y-75716700D01*
X168484374Y-75716700D01*
X168172630Y-75778709D01*
X167878974Y-75900346D01*
X167614690Y-76076935D01*
X167389935Y-76301690D01*
X167373300Y-76326586D01*
X167356665Y-76301690D01*
X167131910Y-76076935D01*
X166867626Y-75900346D01*
X166573970Y-75778709D01*
X166262226Y-75716700D01*
X165944374Y-75716700D01*
X165632630Y-75778709D01*
X165338974Y-75900346D01*
X165074690Y-76076935D01*
X164849935Y-76301690D01*
X164833300Y-76326586D01*
X164816665Y-76301690D01*
X164591910Y-76076935D01*
X164327626Y-75900346D01*
X164033970Y-75778709D01*
X163722226Y-75716700D01*
X163404374Y-75716700D01*
X163092630Y-75778709D01*
X162798974Y-75900346D01*
X162534690Y-76076935D01*
X162309935Y-76301690D01*
X162133346Y-76565974D01*
X162011709Y-76859630D01*
X161949700Y-77171374D01*
X160096900Y-77171374D01*
X160034891Y-76859630D01*
X159913254Y-76565974D01*
X159736665Y-76301690D01*
X159511910Y-76076935D01*
X159247626Y-75900346D01*
X158953970Y-75778709D01*
X158642226Y-75716700D01*
X158324374Y-75716700D01*
X158012630Y-75778709D01*
X157718974Y-75900346D01*
X157454690Y-76076935D01*
X157229935Y-76301690D01*
X157213300Y-76326586D01*
X157196665Y-76301690D01*
X156971910Y-76076935D01*
X156707626Y-75900346D01*
X156413970Y-75778709D01*
X156102226Y-75716700D01*
X155784374Y-75716700D01*
X155472630Y-75778709D01*
X155178974Y-75900346D01*
X154914690Y-76076935D01*
X154689935Y-76301690D01*
X154673300Y-76326586D01*
X154656665Y-76301690D01*
X154431910Y-76076935D01*
X154167626Y-75900346D01*
X153873970Y-75778709D01*
X153562226Y-75716700D01*
X153244374Y-75716700D01*
X152932630Y-75778709D01*
X152638974Y-75900346D01*
X152374690Y-76076935D01*
X152149935Y-76301690D01*
X152133300Y-76326586D01*
X152116665Y-76301690D01*
X151891910Y-76076935D01*
X151627626Y-75900346D01*
X151333970Y-75778709D01*
X151022226Y-75716700D01*
X150704374Y-75716700D01*
X150392630Y-75778709D01*
X150098974Y-75900346D01*
X149834690Y-76076935D01*
X149609935Y-76301690D01*
X149593300Y-76326586D01*
X149576665Y-76301690D01*
X149351910Y-76076935D01*
X149087626Y-75900346D01*
X148793970Y-75778709D01*
X148482226Y-75716700D01*
X148164374Y-75716700D01*
X147852630Y-75778709D01*
X147558974Y-75900346D01*
X147294690Y-76076935D01*
X147069935Y-76301690D01*
X147053300Y-76326586D01*
X147036665Y-76301690D01*
X146811910Y-76076935D01*
X146547626Y-75900346D01*
X146253970Y-75778709D01*
X145942226Y-75716700D01*
X145624374Y-75716700D01*
X145312630Y-75778709D01*
X145018974Y-75900346D01*
X144754690Y-76076935D01*
X144529935Y-76301690D01*
X144513300Y-76326586D01*
X144496665Y-76301690D01*
X144271910Y-76076935D01*
X144007626Y-75900346D01*
X143713970Y-75778709D01*
X143402226Y-75716700D01*
X143084374Y-75716700D01*
X142772630Y-75778709D01*
X142478974Y-75900346D01*
X142214690Y-76076935D01*
X141989935Y-76301690D01*
X141973300Y-76326586D01*
X141956665Y-76301690D01*
X141731910Y-76076935D01*
X141467626Y-75900346D01*
X141173970Y-75778709D01*
X140862226Y-75716700D01*
X140544374Y-75716700D01*
X140232630Y-75778709D01*
X139938974Y-75900346D01*
X139674690Y-76076935D01*
X139449935Y-76301690D01*
X139273346Y-76565974D01*
X139151709Y-76859630D01*
X139089700Y-77171374D01*
X138252900Y-77171374D01*
X138190891Y-76859630D01*
X138069254Y-76565974D01*
X137892665Y-76301690D01*
X137667910Y-76076935D01*
X137403626Y-75900346D01*
X137109970Y-75778709D01*
X136798226Y-75716700D01*
X136480374Y-75716700D01*
X136168630Y-75778709D01*
X135874974Y-75900346D01*
X135610690Y-76076935D01*
X135385935Y-76301690D01*
X135369300Y-76326586D01*
X135352665Y-76301690D01*
X135127910Y-76076935D01*
X134863626Y-75900346D01*
X134569970Y-75778709D01*
X134258226Y-75716700D01*
X133940374Y-75716700D01*
X133628630Y-75778709D01*
X133334974Y-75900346D01*
X133070690Y-76076935D01*
X132845935Y-76301690D01*
X132829300Y-76326586D01*
X132812665Y-76301690D01*
X132587910Y-76076935D01*
X132323626Y-75900346D01*
X132029970Y-75778709D01*
X131718226Y-75716700D01*
X131400374Y-75716700D01*
X131088630Y-75778709D01*
X130794974Y-75900346D01*
X130530690Y-76076935D01*
X130305935Y-76301690D01*
X130289300Y-76326586D01*
X130272665Y-76301690D01*
X130047910Y-76076935D01*
X129783626Y-75900346D01*
X129489970Y-75778709D01*
X129178226Y-75716700D01*
X128860374Y-75716700D01*
X128548630Y-75778709D01*
X128254974Y-75900346D01*
X127990690Y-76076935D01*
X127765935Y-76301690D01*
X127749300Y-76326586D01*
X127732665Y-76301690D01*
X127507910Y-76076935D01*
X127243626Y-75900346D01*
X126949970Y-75778709D01*
X126638226Y-75716700D01*
X126320374Y-75716700D01*
X126008630Y-75778709D01*
X125714974Y-75900346D01*
X125450690Y-76076935D01*
X125225935Y-76301690D01*
X125209300Y-76326586D01*
X125192665Y-76301690D01*
X124967910Y-76076935D01*
X124703626Y-75900346D01*
X124409970Y-75778709D01*
X124098226Y-75716700D01*
X123780374Y-75716700D01*
X123468630Y-75778709D01*
X123174974Y-75900346D01*
X122910690Y-76076935D01*
X122685935Y-76301690D01*
X122603467Y-76425113D01*
X122500678Y-76292048D01*
X122276962Y-76097130D01*
X122019518Y-75949602D01*
X121738240Y-75855133D01*
X121503300Y-75982773D01*
X121295300Y-75982773D01*
X121060360Y-75855133D01*
X120779082Y-75949602D01*
X120521638Y-76097130D01*
X120297922Y-76292048D01*
X120195133Y-76425113D01*
X120112665Y-76301690D01*
X119887910Y-76076935D01*
X119623626Y-75900346D01*
X119329970Y-75778709D01*
X119018226Y-75716700D01*
X118700374Y-75716700D01*
X118388630Y-75778709D01*
X118094974Y-75900346D01*
X117830690Y-76076935D01*
X117605935Y-76301690D01*
X117589300Y-76326586D01*
X117572665Y-76301690D01*
X117347910Y-76076935D01*
X117083626Y-75900346D01*
X116789970Y-75778709D01*
X116478226Y-75716700D01*
X116160374Y-75716700D01*
X115848630Y-75778709D01*
X115554974Y-75900346D01*
X115290690Y-76076935D01*
X115065935Y-76301690D01*
X115049300Y-76326586D01*
X115032665Y-76301690D01*
X114807910Y-76076935D01*
X114543626Y-75900346D01*
X114249970Y-75778709D01*
X113938226Y-75716700D01*
X113620374Y-75716700D01*
X113308630Y-75778709D01*
X113014974Y-75900346D01*
X112750690Y-76076935D01*
X112525935Y-76301690D01*
X112349346Y-76565974D01*
X112227709Y-76859630D01*
X112165700Y-77171374D01*
X106602900Y-77171374D01*
X106602900Y-75665700D01*
X216980400Y-75665700D01*
X216980401Y-127254900D01*
G37*
%TD.AperFunction*%
%TD*%
M02*
